<?xml version="1.0" encoding="utf-8"?>
<!-- Generator: Adobe Illustrator 16.0.0, SVG Export Plug-In . SVG Version: 6.00 Build 0)  -->
<!DOCTYPE svg PUBLIC "-//W3C//DTD SVG 1.1//EN" "http://www.w3.org/Graphics/SVG/1.1/DTD/svg11.dtd">
<svg version="1.1" id="Layer_1" xmlns="http://www.w3.org/2000/svg" xmlns:xlink="http://www.w3.org/1999/xlink" x="0px" y="0px"
	 width="370px" height="160px" viewBox="0 0 370 160" enable-background="new 0 0 370 160" xml:space="preserve">
<rect x="-2" y="-4" display="none" fill="#61619B" width="373" height="166"/>
<g>
	<path fill="#FFFFFF" d="M166.975,78.579c4.55,1.899,9.548,2.948,14.792,2.948c17.04,0,31.472-11.07,36.388-26.353
		C213.885,72.304,198.285,85,179.694,85c-4.812,0-9.424-0.85-13.691-2.408C166.107,81.224,166.489,79.854,166.975,78.579
		 M140.078,45.707c0-18.438,12.804-33.911,30.073-38.147c-15.41,4.876-26.57,19.191-26.57,36.092c0,12.8,6.4,24.115,16.201,30.972
		c-0.496,1.328-0.94,2.746-1.324,4.261C147.407,71.913,140.078,59.659,140.078,45.707"/>
	<path fill="#FFFFFF" d="M167.979,17.917c-3.945,11.507,14.36,25.884,6.044,40.401c-1.608,1.485-4.843,4.597-7.335,7.018
		c-3.289-6.877-6.929-23.94-5.639-34.616c-4.305,12.034-2.044,27.813,2.739,37.449l-0.293,0.292
		C147.654,58.004,144.901,29.811,167.979,17.917"/>
	<path fill="#FFFFFF" d="M178.478,55.189c0.129-6.244-2.023-19.611,10.543-29.69c7.71-6.186,23.833-8.478,40.312-4.921
		c-4.896,5.128-18.471,34.951-43.721,28.642c1.736-19.349,20.411-25.489,35.023-26.671c-19.318,0.114-38.508,2.697-38.47,31.814
		C181.048,54.592,179.265,54.825,178.478,55.189"/>
	<path fill="#FFFFFF" d="M186.318,8.478c-1.426,1.416-3.738,1.416-5.164,0.002c-1.425-1.415-1.425-3.708,0-5.122
		c1.426-1.414,3.738-1.415,5.164,0C187.747,4.771,187.747,7.063,186.318,8.478"/>
	<path fill="#FFFFFF" d="M209.222,54.486c-3.948,11.664-21.371,23.076-39.299,17.688c7.908-11.755,26.985-8.324,34.207-13.856
		c-9.283,5.434-34.574-1.524-40.619,23.266c-0.988-0.438-1.953-0.917-2.896-1.432c2.073-9.611,7.78-15.502,13.276-19.242
		C187.012,51.98,204.065,57.095,209.222,54.486"/>
	<path fill="#FFFFFF" d="M171.533,6.684c13.403,4.697,14.076,20.165,6.304,27.019l-0.185-0.126
		c1.853-5.576,1.868-14.294-1.388-20.486c1.512,5.654,0.862,15.103-0.379,19.106C166.068,23.584,174.381,12.282,171.533,6.684"/>
	<path fill="#FFFFFF" d="M207.565,0c1.305,11.374-6.821,22.943-20.636,21.815c1.965-3.696,8.256-10.854,13.364-13.797
		c-6.717,2.095-12.92,8.271-15.586,13.513l-0.22-0.04C183.849,2.858,205.672,7.891,207.565,0"/>
</g>
<g>
	<path fill="#FFFFFF" d="M348.987,148.851v3.722c0,2.706,0,4.165,0.448,4.545c0.361,0.317,0.914,0.465,2.576,0.465
		c1.128,0,1.958-0.021,2.489-0.591c0.257-0.274,0.511-0.866,0.554-1.269c0.021-0.191,0.064-0.317,0.235-0.317
		c0.15,0,0.171,0.105,0.171,0.36c0,0.231-0.15,1.816-0.32,2.432c-0.129,0.464-0.234,0.57-1.341,0.57
		c-1.534,0-2.642-0.043-3.599-0.063c-0.957-0.043-1.725-0.063-2.599-0.063c-0.233,0-0.701,0-1.213,0.021
		c-0.49,0-1.043,0.043-1.469,0.043c-0.277,0-0.427-0.063-0.427-0.211c0-0.106,0.085-0.169,0.342-0.169
		c0.318,0,0.572-0.043,0.765-0.086c0.427-0.085,0.533-0.549,0.618-1.163c0.107-0.889,0.107-2.557,0.107-4.503v-3.722
		c0-3.215,0-3.807-0.043-4.48c-0.042-0.72-0.215-1.059-0.915-1.206c-0.173-0.044-0.427-0.064-0.704-0.064
		c-0.234,0-0.362-0.041-0.362-0.189c0-0.147,0.151-0.191,0.47-0.191c0.999,0,2.342,0.064,2.916,0.064
		c0.511,0,2.065-0.064,2.896-0.064c0.298,0,0.45,0.044,0.45,0.191c0,0.148-0.13,0.189-0.385,0.189c-0.235,0-0.576,0.021-0.831,0.064
		c-0.573,0.104-0.745,0.466-0.788,1.206C348.987,145.044,348.987,145.636,348.987,148.851 M13.38,152.572v-3.722
		c0-3.215,0-3.807-0.043-4.48c-0.041-0.72-0.256-1.08-0.723-1.187c-0.234-0.063-0.511-0.084-0.768-0.084
		c-0.211,0-0.339-0.041-0.339-0.21c0-0.127,0.169-0.171,0.508-0.171c0.812,0,2.153,0.064,2.77,0.064
		c0.534,0,1.788-0.064,2.598-0.064c0.277,0,0.449,0.044,0.449,0.171c0,0.169-0.127,0.21-0.344,0.21c-0.21,0-0.381,0.021-0.637,0.064
		c-0.576,0.104-0.745,0.466-0.788,1.206c-0.043,0.674-0.043,1.266-0.043,4.48v3.722c0,2.051,0,3.721,0.085,4.63
		c0.063,0.571,0.213,0.951,0.853,1.036c0.297,0.043,0.766,0.086,1.084,0.086c0.234,0,0.339,0.063,0.339,0.169
		c0,0.147-0.169,0.211-0.402,0.211c-1.407,0-2.748-0.063-3.323-0.063c-0.488,0-1.83,0.063-2.683,0.063
		c-0.277,0-0.426-0.063-0.426-0.211c0-0.106,0.086-0.169,0.341-0.169c0.317,0,0.575-0.043,0.768-0.086
		c0.423-0.085,0.553-0.443,0.617-1.057C13.38,156.293,13.38,154.623,13.38,152.572 M35.681,146.947l0.232,8.882
		c0.043,1.647,0.32,2.197,0.745,2.345c0.361,0.128,0.766,0.15,1.105,0.15c0.235,0,0.364,0.041,0.364,0.169
		c0,0.168-0.193,0.211-0.492,0.211c-1.382,0-2.236-0.063-2.642-0.063c-0.194,0-1.196,0.063-2.305,0.063
		c-0.277,0-0.467-0.021-0.467-0.211c0-0.128,0.127-0.169,0.339-0.169c0.277,0,0.663-0.022,0.958-0.106
		c0.555-0.169,0.64-0.783,0.661-2.623l0.19-12.516c0-0.423,0.066-0.72,0.281-0.72c0.235,0,0.426,0.276,0.792,0.656
		c0.258,0.274,3.491,3.722,6.597,6.786c1.448,1.438,4.32,4.483,4.682,4.821l-0.107-9.492c-0.02-1.291-0.211-1.692-0.724-1.903
		c-0.318-0.128-0.828-0.128-1.126-0.128c-0.254,0-0.34-0.063-0.34-0.189c0-0.168,0.233-0.191,0.551-0.191
		c1.107,0,2.13,0.064,2.575,0.064c0.235,0,1.043-0.064,2.086-0.064c0.279,0,0.493,0.023,0.493,0.191
		c0,0.126-0.128,0.189-0.384,0.189c-0.214,0-0.381,0-0.638,0.064c-0.597,0.17-0.766,0.613-0.789,1.797l-0.234,13.341
		c0,0.466-0.085,0.655-0.277,0.655c-0.234,0-0.488-0.232-0.725-0.464c-1.339-1.269-4.062-4.038-6.276-6.217
		c-2.318-2.283-4.679-4.927-5.063-5.329H35.681z M69.842,152.572v-8.668l-3.174,0.083c-1.234,0.043-1.746,0.148-2.066,0.612
		c-0.211,0.319-0.318,0.572-0.36,0.742c-0.043,0.169-0.107,0.253-0.235,0.253c-0.149,0-0.191-0.104-0.191-0.338
		c0-0.338,0.406-2.264,0.447-2.433c0.064-0.274,0.128-0.401,0.256-0.401c0.169,0,0.381,0.213,0.915,0.254
		c0.617,0.065,1.426,0.106,2.127,0.106h8.432c0.683,0,1.151-0.064,1.469-0.106c0.321-0.063,0.491-0.105,0.576-0.105
		c0.149,0,0.17,0.127,0.17,0.444c0,0.444-0.063,1.903-0.063,2.452c-0.022,0.212-0.066,0.339-0.192,0.339
		c-0.17,0-0.213-0.105-0.234-0.422l-0.02-0.234c-0.044-0.551-0.617-1.143-2.513-1.183l-2.683-0.063v8.668
		c0,1.946,0,3.614,0.106,4.524c0.064,0.593,0.19,1.057,0.83,1.142c0.298,0.043,0.766,0.086,1.085,0.086
		c0.235,0,0.343,0.063,0.343,0.169c0,0.147-0.173,0.211-0.405,0.211c-1.405,0-2.749-0.063-3.345-0.063
		c-0.488,0-1.83,0.063-2.682,0.063c-0.277,0-0.426-0.063-0.426-0.211c0-0.106,0.086-0.169,0.341-0.169
		c0.32,0,0.575-0.043,0.768-0.086c0.426-0.085,0.553-0.549,0.617-1.163C69.842,156.187,69.842,154.519,69.842,152.572
		 M94.257,152.572v-3.722c0-3.215,0-3.807-0.042-4.48c-0.042-0.72-0.211-1.059-0.914-1.206c-0.171-0.044-0.532-0.064-0.833-0.064
		c-0.232,0-0.36-0.041-0.36-0.189c0-0.147,0.149-0.191,0.468-0.191l1.724,0.023c0.555,0.021,1.043,0.041,1.343,0.041
		c0.681,0,4.918,0,5.324-0.021c0.403-0.044,0.745-0.086,0.915-0.127c0.107-0.021,0.234-0.086,0.339-0.086
		c0.107,0,0.128,0.086,0.128,0.192c0,0.147-0.107,0.399-0.17,1.373c-0.02,0.211-0.063,1.142-0.105,1.396
		c-0.023,0.104-0.064,0.231-0.213,0.231s-0.193-0.106-0.193-0.296c0-0.147-0.021-0.507-0.128-0.761
		c-0.149-0.382-0.362-0.634-1.426-0.76c-0.362-0.043-2.597-0.086-3.023-0.086c-0.106,0-0.149,0.064-0.149,0.212v5.35
		c0,0.147,0.021,0.231,0.149,0.231c0.47,0,2.917,0,3.406-0.041c0.511-0.043,0.831-0.107,1.022-0.318
		c0.149-0.169,0.234-0.275,0.342-0.275c0.084,0,0.149,0.043,0.149,0.171c0,0.125-0.086,0.464-0.17,1.543
		c-0.023,0.424-0.087,1.268-0.087,1.416c0,0.168,0,0.403-0.191,0.403c-0.148,0-0.192-0.087-0.192-0.191
		c-0.022-0.212-0.022-0.487-0.084-0.761c-0.107-0.423-0.406-0.74-1.192-0.826c-0.405-0.041-2.513-0.064-3.025-0.064
		c-0.105,0-0.127,0.087-0.127,0.213v1.671c0,0.72-0.022,2.664,0,3.277c0.043,1.459,0.383,1.776,2.556,1.776c0.554,0,1.448,0,2-0.253
		c0.555-0.256,0.812-0.699,0.96-1.566c0.042-0.232,0.085-0.317,0.234-0.317c0.171,0,0.171,0.17,0.171,0.381
		c0,0.487-0.171,1.925-0.277,2.348c-0.151,0.55-0.343,0.55-1.151,0.55c-1.597,0-2.769-0.043-3.684-0.063
		c-0.915-0.043-1.577-0.063-2.215-0.063c-0.235,0-0.703,0-1.212,0.021c-0.49,0-1.045,0.043-1.469,0.043
		c-0.278,0-0.427-0.063-0.427-0.211c0-0.106,0.085-0.169,0.342-0.169c0.318,0,0.573-0.043,0.766-0.086
		c0.427-0.085,0.532-0.549,0.617-1.163C94.257,156.187,94.257,154.519,94.257,152.572 M119.421,152.572v-3.722
		c0-3.215,0-3.807-0.042-4.48c-0.043-0.72-0.213-1.059-0.915-1.206c-0.171-0.044-0.534-0.064-0.832-0.064
		c-0.234,0-0.361-0.041-0.361-0.189c0-0.147,0.148-0.191,0.469-0.191c1.129,0,2.469,0.064,2.917,0.064
		c0.723,0,2.339-0.064,3.002-0.064c1.341,0,2.767,0.128,3.917,0.911c0.595,0.4,1.447,1.479,1.447,2.896
		c0,1.563-0.66,3.002-2.811,4.734c1.896,2.369,3.365,4.25,4.62,5.561c1.193,1.228,2.067,1.376,2.388,1.438
		c0.232,0.042,0.423,0.064,0.596,0.064c0.169,0,0.254,0.063,0.254,0.169c0,0.168-0.149,0.211-0.405,0.211h-2.023
		c-1.191,0-1.725-0.106-2.278-0.402c-0.915-0.485-1.724-1.48-2.916-3.107c-0.853-1.163-1.834-2.601-2.108-2.918
		c-0.108-0.128-0.235-0.148-0.384-0.148l-1.855-0.041c-0.105,0-0.169,0.041-0.169,0.169v0.296c0,1.967,0,3.635,0.108,4.523
		c0.062,0.614,0.192,1.078,0.83,1.163c0.321,0.043,0.789,0.086,1.043,0.086c0.171,0,0.257,0.063,0.257,0.169
		c0,0.147-0.149,0.211-0.427,0.211c-1.235,0-2.811-0.063-3.13-0.063c-0.405,0-1.745,0.063-2.597,0.063
		c-0.277,0-0.427-0.063-0.427-0.211c0-0.106,0.083-0.169,0.339-0.169c0.322,0,0.576-0.043,0.769-0.086
		c0.424-0.085,0.532-0.549,0.617-1.163C119.421,156.187,119.421,154.519,119.421,152.572 M121.934,144.095v6.426
		c0,0.232,0.044,0.318,0.193,0.381c0.449,0.149,1.086,0.211,1.618,0.211c0.851,0,1.128-0.083,1.513-0.359
		c0.637-0.464,1.254-1.437,1.254-3.171c0-3.003-2.001-3.869-3.257-3.869c-0.532,0-0.916,0.021-1.128,0.086
		C121.978,143.84,121.934,143.926,121.934,144.095 M148.598,146.947l0.237,8.882c0.042,1.647,0.316,2.197,0.744,2.345
		c0.362,0.128,0.765,0.15,1.107,0.15c0.231,0,0.36,0.041,0.36,0.169c0,0.168-0.191,0.211-0.489,0.211
		c-1.385,0-2.238-0.063-2.644-0.063c-0.195,0-1.196,0.063-2.305,0.063c-0.276,0-0.467-0.021-0.467-0.211
		c0-0.128,0.127-0.169,0.341-0.169c0.277,0,0.66-0.022,0.958-0.106c0.554-0.169,0.639-0.783,0.659-2.623l0.195-12.516
		c0-0.423,0.061-0.72,0.276-0.72c0.236,0,0.43,0.276,0.792,0.656c0.258,0.274,3.492,3.722,6.597,6.786
		c1.448,1.438,4.319,4.483,4.682,4.821l-0.107-9.492c-0.021-1.291-0.211-1.692-0.721-1.903c-0.323-0.128-0.832-0.128-1.13-0.128
		c-0.254,0-0.339-0.063-0.339-0.189c0-0.168,0.232-0.191,0.554-0.191c1.105,0,2.126,0.064,2.571,0.064
		c0.236,0,1.045-0.064,2.09-0.064c0.275,0,0.489,0.023,0.489,0.191c0,0.126-0.128,0.189-0.383,0.189c-0.213,0-0.383,0-0.64,0.064
		c-0.596,0.17-0.766,0.613-0.788,1.797l-0.234,13.341c0,0.466-0.085,0.655-0.276,0.655c-0.236,0-0.491-0.232-0.724-0.464
		c-1.343-1.269-4.065-4.038-6.277-6.217c-2.32-2.283-4.68-4.927-5.063-5.329H148.598z M185.529,153.187h-4.75
		c-0.105,0-0.149,0.041-0.192,0.168l-1.149,3.023c-0.212,0.527-0.32,1.036-0.32,1.29c0,0.381,0.191,0.656,0.854,0.656h0.318
		c0.257,0,0.321,0.041,0.321,0.169c0,0.168-0.128,0.211-0.363,0.211c-0.681,0-1.598-0.063-2.256-0.063
		c-0.235,0-1.407,0.063-2.514,0.063c-0.276,0-0.404-0.043-0.404-0.211c0-0.128,0.084-0.169,0.257-0.169
		c0.19,0,0.489-0.022,0.658-0.043c0.981-0.128,1.383-0.847,1.811-1.903l5.344-13.278c0.255-0.612,0.383-0.847,0.595-0.847
		c0.194,0,0.322,0.191,0.533,0.679c0.512,1.163,3.917,9.788,5.282,12.99c0.809,1.896,1.425,2.19,1.873,2.316
		c0.318,0.063,0.638,0.086,0.895,0.086c0.168,0,0.276,0.021,0.276,0.169c0,0.168-0.192,0.211-0.979,0.211
		c-0.767,0-2.321,0-4.025-0.043c-0.383-0.021-0.639-0.021-0.639-0.168c0-0.128,0.086-0.169,0.298-0.191
		c0.148-0.042,0.3-0.232,0.192-0.485l-1.703-4.484C185.699,153.228,185.636,153.187,185.529,153.187 M181.206,152.128h3.917
		l-1.809-5.35c-0.022-0.084-0.043-0.189-0.107-0.189s-0.107,0.105-0.127,0.189l-1.958,5.201L181.206,152.128z M209.798,152.572
		v-8.668l-3.174,0.083c-1.233,0.043-1.746,0.148-2.064,0.612c-0.214,0.319-0.32,0.572-0.362,0.742
		c-0.044,0.169-0.106,0.253-0.234,0.253c-0.149,0-0.192-0.104-0.192-0.338c0-0.338,0.406-2.264,0.447-2.433
		c0.064-0.274,0.128-0.401,0.257-0.401c0.171,0,0.383,0.213,0.916,0.254c0.615,0.065,1.425,0.106,2.129,0.106h8.432
		c0.68,0,1.149-0.064,1.469-0.106c0.318-0.063,0.488-0.105,0.575-0.105c0.148,0,0.171,0.127,0.171,0.444
		c0,0.444-0.065,1.903-0.065,2.452c-0.021,0.212-0.063,0.339-0.192,0.339c-0.17,0-0.211-0.105-0.233-0.422l-0.02-0.234
		c-0.045-0.551-0.619-1.143-2.512-1.183l-2.685-0.063v8.668c0,1.946,0,3.614,0.106,4.524c0.063,0.593,0.191,1.057,0.831,1.142
		c0.297,0.043,0.766,0.086,1.084,0.086c0.235,0,0.342,0.063,0.342,0.169c0,0.147-0.171,0.211-0.404,0.211
		c-1.406,0-2.747-0.063-3.343-0.063c-0.491,0-1.832,0.063-2.684,0.063c-0.277,0-0.426-0.063-0.426-0.211
		c0-0.106,0.087-0.169,0.341-0.169c0.319,0,0.574-0.043,0.767-0.086c0.426-0.085,0.553-0.549,0.617-1.163
		C209.798,156.187,209.798,154.519,209.798,152.572 M234.216,152.572v-3.722c0-3.215,0-3.807-0.042-4.48
		c-0.044-0.72-0.256-1.08-0.725-1.187c-0.234-0.063-0.513-0.084-0.768-0.084c-0.211,0-0.341-0.041-0.341-0.21
		c0-0.127,0.171-0.171,0.513-0.171c0.808,0,2.15,0.064,2.767,0.064c0.533,0,1.789-0.064,2.598-0.064
		c0.277,0,0.446,0.044,0.446,0.171c0,0.169-0.126,0.21-0.339,0.21c-0.214,0-0.384,0.021-0.64,0.064
		c-0.574,0.104-0.745,0.466-0.789,1.206c-0.042,0.674-0.042,1.266-0.042,4.48v3.722c0,2.051,0,3.721,0.086,4.63
		c0.064,0.571,0.213,0.951,0.853,1.036c0.299,0.043,0.766,0.086,1.085,0.086c0.233,0,0.342,0.063,0.342,0.169
		c0,0.147-0.17,0.211-0.404,0.211c-1.406,0-2.748-0.063-3.323-0.063c-0.488,0-1.831,0.063-2.683,0.063
		c-0.276,0-0.424-0.063-0.424-0.211c0-0.106,0.085-0.169,0.339-0.169c0.318,0,0.575-0.043,0.768-0.086
		c0.426-0.085,0.552-0.443,0.617-1.057C234.216,156.293,234.216,154.623,234.216,152.572 M262.021,159
		c-6.111,0-8.581-4.545-8.581-8.288c0-3.616,2.404-8.289,8.793-8.289c5.302,0,8.603,3.067,8.603,7.909S267.429,159,262.021,159
		 M262.914,157.941c1.49,0,4.94-0.717,4.94-6.829c0-4.734-2.749-7.674-6.24-7.674c-2.448,0-5.237,1.353-5.237,6.617
		C256.377,154.455,258.825,157.941,262.914,157.941 M287.959,146.947l0.233,8.882c0.042,1.647,0.321,2.197,0.744,2.345
		c0.362,0.128,0.767,0.15,1.108,0.15c0.232,0,0.36,0.041,0.36,0.169c0,0.168-0.189,0.211-0.487,0.211
		c-1.385,0-2.238-0.063-2.646-0.063c-0.193,0-1.195,0.063-2.303,0.063c-0.278,0-0.468-0.021-0.468-0.211
		c0-0.128,0.125-0.169,0.34-0.169c0.276,0,0.66-0.022,0.96-0.106c0.552-0.169,0.638-0.783,0.657-2.623l0.194-12.516
		c0-0.423,0.063-0.72,0.275-0.72c0.236,0,0.432,0.276,0.794,0.656c0.257,0.274,3.491,3.722,6.597,6.786
		c1.447,1.438,4.319,4.483,4.681,4.821l-0.104-9.492c-0.021-1.291-0.214-1.692-0.725-1.903c-0.319-0.128-0.829-0.128-1.128-0.128
		c-0.256,0-0.34-0.063-0.34-0.189c0-0.168,0.232-0.191,0.553-0.191c1.106,0,2.127,0.064,2.574,0.064
		c0.237,0,1.044-0.064,2.088-0.064c0.276,0,0.488,0.023,0.488,0.191c0,0.126-0.126,0.189-0.383,0.189c-0.211,0-0.383,0-0.639,0.064
		c-0.595,0.17-0.767,0.613-0.787,1.797l-0.232,13.341c0,0.466-0.088,0.655-0.279,0.655c-0.234,0-0.489-0.232-0.723-0.464
		c-1.343-1.269-4.063-4.038-6.277-6.217c-2.318-2.283-4.68-4.927-5.063-5.329H287.959z M324.89,153.187h-4.751
		c-0.105,0-0.148,0.041-0.189,0.168l-1.15,3.023c-0.214,0.527-0.32,1.036-0.32,1.29c0,0.381,0.19,0.656,0.851,0.656h0.32
		c0.257,0,0.319,0.041,0.319,0.169c0,0.168-0.128,0.211-0.361,0.211c-0.682,0-1.596-0.063-2.256-0.063
		c-0.234,0-1.406,0.063-2.513,0.063c-0.278,0-0.404-0.043-0.404-0.211c0-0.128,0.083-0.169,0.256-0.169
		c0.191,0,0.488-0.022,0.659-0.043c0.979-0.128,1.383-0.847,1.809-1.903l5.345-13.278c0.256-0.612,0.382-0.847,0.597-0.847
		c0.193,0,0.32,0.191,0.532,0.679c0.511,1.163,3.918,9.788,5.281,12.99c0.809,1.896,1.426,2.19,1.873,2.316
		c0.321,0.063,0.64,0.086,0.893,0.086c0.174,0,0.277,0.021,0.277,0.169c0,0.168-0.189,0.211-0.979,0.211
		c-0.766,0-2.32,0-4.023-0.043c-0.385-0.021-0.639-0.021-0.639-0.168c0-0.128,0.085-0.169,0.298-0.191
		c0.148-0.042,0.298-0.232,0.191-0.485l-1.702-4.484C325.059,153.228,324.995,153.187,324.89,153.187 M320.565,152.128h3.918
		l-1.81-5.35c-0.022-0.084-0.043-0.189-0.107-0.189c-0.063,0-0.104,0.105-0.126,0.189l-1.961,5.201L320.565,152.128z"/>
	<path fill="#FFFFFF" d="M361.66,133.265c-1.812,0-3.728-0.176-5.076-0.774c-0.498-0.213-0.604-0.354-0.604-1.021
		c0-1.621,0.142-3.49,0.177-3.982c0-0.457,0.143-0.775,0.393-0.775c0.282,0,0.319,0.281,0.319,0.494
		c0,0.385,0.104,1.021,0.284,1.549c0.673,2.221,3.017,2.961,4.967,2.961c2.697,0,4.329-1.691,4.329-3.807
		c0-1.303-0.319-2.606-3.087-4.227l-1.811-1.057c-3.689-2.151-4.896-4.161-4.896-6.803c0-3.666,3.549-6.027,7.879-6.027
		c2.023,0,3.62,0.283,4.437,0.494c0.284,0.071,0.425,0.178,0.425,0.387c0,0.39-0.105,1.236-0.105,3.597
		c0,0.634-0.142,0.95-0.39,0.95c-0.214,0-0.319-0.176-0.319-0.528c0-0.28-0.146-1.198-0.818-1.974
		c-0.462-0.564-1.454-1.409-3.478-1.409c-2.233,0-4.258,1.163-4.258,3.206c0,1.34,0.495,2.398,3.299,3.946l1.279,0.706
		c4.116,2.254,5.395,4.546,5.395,7.259c0,2.22-0.852,4.019-3.124,5.604C365.386,133.089,363.326,133.265,361.66,133.265
		 M8.057,119.805v2.854c0,3.382,0,6.025,0.176,7.505c0.107,1.021,0.32,1.797,1.384,1.938c0.499,0.07,1.279,0.141,1.774,0.141
		c0.46,0,0.603,0.107,0.603,0.283c0,0.248-0.248,0.352-0.78,0.352c-2.235,0-4.47-0.104-5.395-0.104
		c-0.921,0-3.159,0.104-4.507,0.104c-0.496,0-0.746-0.07-0.746-0.352c0-0.176,0.143-0.283,0.533-0.283
		c0.532,0,0.958-0.07,1.279-0.141c0.708-0.141,0.885-0.916,1.026-1.938c0.179-1.479,0.179-4.123,0.179-7.505v-6.204
		c0-5.355,0-6.343-0.071-7.469c-0.071-1.199-0.356-1.764-1.525-2.009c-0.286-0.07-0.889-0.106-1.386-0.106
		C0.25,106.871,0,106.802,0,106.59c0-0.282,0.284-0.352,0.817-0.352c0.922,0,1.952,0.033,2.874,0.033
		c0.921,0.036,1.739,0.072,2.235,0.072c1.349,0,8.554,0,9.371-0.036c0.673-0.036,1.099-0.036,1.455-0.141
		c0.213-0.071,0.39-0.212,0.566-0.212c0.142,0,0.25,0.141,0.25,0.316c0,0.248-0.177,0.672-0.285,1.587
		c-0.034,0.351-0.107,2.431-0.176,2.853c-0.036,0.283-0.107,0.496-0.355,0.496s-0.32-0.178-0.356-0.564c0-0.282,0-0.848-0.211-1.338
		c-0.25-0.495-0.995-1.023-2.343-1.057l-5.465-0.107c-0.213,0-0.319,0.107-0.319,0.492v8.809c0,0.214,0.035,0.318,0.248,0.318
		l4.542-0.035c0.603,0,1.101,0,1.598-0.035c0.672-0.034,1.171-0.176,1.525-0.633c0.178-0.213,0.249-0.355,0.461-0.355
		c0.141,0,0.214,0.107,0.214,0.318c0,0.213-0.18,1.094-0.284,2.187c-0.071,0.704-0.142,2.324-0.142,2.572
		c0,0.316,0,0.669-0.357,0.669c-0.211,0-0.28-0.246-0.28-0.494s-0.073-0.669-0.215-1.093c-0.177-0.493-0.71-1.126-1.809-1.268
		c-0.888-0.106-4.649-0.106-5.252-0.106C8.126,119.486,8.057,119.559,8.057,119.805 M25.341,123.682h6.033l-2.803-7.788
		c-0.035-0.106-0.072-0.282-0.142-0.282c-0.108,0-0.143,0.176-0.177,0.282l-3.017,7.573L25.341,123.682z M44.399,129.882
		l3.087-19.556c0.071-0.494,0.355-0.777,0.603-0.777c0.319,0,0.534,0.143,0.96,0.952l8.375,16.704l8.375-16.916
		c0.249-0.494,0.53-0.74,0.818-0.74c0.246,0,0.604,0.318,0.707,0.952l2.84,18.501c0.283,1.867,0.568,2.677,1.526,2.959
		c0.888,0.248,1.384,0.281,1.774,0.281c0.284,0,0.496,0.107,0.496,0.283c0,0.248-0.354,0.352-0.815,0.352
		c-0.784,0-5.217-0.141-6.459-0.211c-0.746-0.034-0.922-0.176-0.922-0.353c0-0.142,0.142-0.246,0.354-0.317
		c0.178-0.07,0.249-0.422,0.141-1.268l-1.739-12.969l-6.813,13.391c-0.709,1.409-0.886,1.691-1.241,1.691
		c-0.39,0-0.745-0.6-1.241-1.514c-0.749-1.375-3.23-5.958-3.585-6.803c-0.249-0.563-2.095-4.334-3.125-6.412l-1.597,11.697
		c-0.07,0.529-0.105,0.918-0.105,1.41c0,0.564,0.425,0.775,0.957,0.881c0.533,0.107,0.816,0.141,1.102,0.141
		c0.281,0,0.496,0.142,0.496,0.283c0,0.281-0.284,0.352-0.745,0.352c-1.314,0-2.735-0.104-3.301-0.104
		c-0.604,0-2.095,0.104-3.088,0.104c-0.109,0-0.213-0.008-0.3-0.031c-0.201,0.023-0.492,0.031-0.908,0.031
		c-1.1,0-3.372,0-5.995-0.07c-0.569-0.033-0.924-0.033-0.924-0.247c0-0.176,0.071-0.282,0.39-0.317
		c0.213-0.033,0.427-0.316,0.285-0.668l-2.415-6.026c-0.071-0.178-0.178-0.212-0.318-0.212h-7.346c-0.177,0-0.215,0.034-0.284,0.212
		l-1.671,4.019c-0.317,0.738-0.461,1.479-0.461,1.83c0,0.529,0.285,0.846,1.244,0.846h0.46c0.392,0,0.461,0.142,0.461,0.317
		c0,0.247-0.176,0.317-0.498,0.317c-1.027,0-2.482-0.104-3.477-0.104c-0.319,0-1.986,0.104-3.618,0.104
		c-0.392,0-0.569-0.07-0.569-0.317c0-0.176,0.106-0.317,0.354-0.317c0.284,0,0.641-0.033,0.922-0.033
		c1.421-0.213,1.955-1.129,2.592-2.643l8.162-18.855c0.355-0.844,0.603-1.197,0.923-1.197c0.461,0,0.603,0.281,0.924,0.953
		c0.745,1.654,5.961,13.918,7.946,18.447c1.206,2.701,2.097,3.086,2.662,3.222c0.463,0.073,0.819,0.106,1.174,0.106
		c0.462,0,0.674,0,1.173-0.07C43.974,132.067,44.258,130.869,44.399,129.882 M79.606,124.173v-5.286c0-4.545,0-5.391-0.035-6.342
		c-0.073-1.021-0.392-1.374-1.066-1.586c-0.355-0.105-0.747-0.141-1.135-0.141c-0.318,0-0.499-0.07-0.499-0.352
		c0-0.178,0.249-0.248,0.746-0.248c1.17,0,3.301,0.07,4.188,0.07c0.781,0,2.803-0.07,4.011-0.07c0.39,0,0.638,0.07,0.638,0.248
		c0,0.281-0.176,0.352-0.496,0.352c-0.319,0-0.568,0.035-0.923,0.105c-0.851,0.142-1.101,0.564-1.171,1.621
		c-0.071,0.951-0.071,1.797-0.071,6.342v5.286c0,2.892,0,5.286,0.141,6.556c0.108,0.809,0.32,1.268,1.243,1.407
		c0.426,0.073,1.135,0.106,1.596,0.106c0.356,0,0.498,0.178,0.498,0.317c0,0.214-0.248,0.317-0.603,0.317
		c-2.059,0-4.189-0.104-5.039-0.104c-0.709,0-2.84,0.104-4.08,0.104c-0.393,0-0.604-0.104-0.604-0.317
		c0-0.14,0.108-0.317,0.496-0.317c0.461,0,0.818-0.033,1.1-0.106c0.64-0.14,0.816-0.562,0.923-1.442
		C79.606,129.459,79.606,127.064,79.606,124.173 M98.771,118.887v5.286c0,3.841,0,5.743,0.674,6.309
		c0.533,0.456,1.738,0.634,4.15,0.634c1.67,0,2.876-0.035,3.656-0.844c0.392-0.39,0.71-1.236,0.782-1.799
		c0.034-0.281,0.105-0.459,0.355-0.459c0.213,0,0.284,0.318,0.284,0.671c0,0.351-0.215,2.57-0.463,3.451
		c-0.213,0.671-0.355,0.812-1.987,0.812c-2.235,0-4.045-0.035-5.607-0.105c-1.56-0.035-2.874-0.068-4.152-0.068
		c-0.353,0-1.028,0.033-1.775,0.033c-0.745,0.035-1.524,0.07-2.162,0.07c-0.392,0-0.604-0.104-0.604-0.317
		c0-0.14,0.107-0.317,0.497-0.317c0.461,0,0.817-0.033,1.101-0.106c0.637-0.14,0.816-0.701,0.921-1.585
		c0.143-1.268,0.143-3.628,0.143-6.378v-5.286c0-4.545,0-5.391-0.036-6.342c-0.069-1.021-0.354-1.338-1.349-1.621
		c-0.247-0.07-0.637-0.105-1.028-0.105c-0.354,0-0.532-0.107-0.532-0.317c0-0.212,0.213-0.282,0.674-0.282
		c1.456,0,3.44,0.07,4.294,0.07c0.744,0,3.302-0.07,4.508-0.07c0.461,0,0.672,0.07,0.672,0.282c0,0.21-0.177,0.317-0.566,0.317
		c-0.355,0-0.853,0.035-1.208,0.105c-0.851,0.142-1.098,0.564-1.169,1.621C98.771,113.496,98.771,114.342,98.771,118.887
		 M116.658,127.556v-2.468c0-1.621-0.283-2.254-0.71-3.135c-0.211-0.457-4.471-7.047-5.571-8.634
		c-0.78-1.091-1.419-1.796-2.022-2.112c-0.392-0.213-0.921-0.389-1.313-0.389c-0.248,0-0.461-0.107-0.461-0.317
		c0-0.212,0.213-0.282,0.603-0.282c0.532,0,2.875,0.07,3.906,0.07c0.672,0,2.127-0.07,3.547-0.07c0.284,0,0.46,0.07,0.46,0.282
		c0,0.247-0.212,0.247-0.708,0.387c-0.25,0.071-0.427,0.212-0.427,0.46c0,0.246,0.143,0.598,0.392,1.021
		c0.567,0.916,4.648,7.93,5.181,8.773c0.388-0.705,4.187-7.117,4.648-8.033c0.32-0.671,0.461-1.197,0.461-1.586
		c0-0.282-0.141-0.564-0.674-0.67c-0.285-0.07-0.567-0.105-0.567-0.353c0-0.212,0.176-0.282,0.53-0.282
		c1.031,0,2.131,0.07,3.053,0.07c0.676,0,2.732-0.07,3.338-0.07c0.353,0,0.566,0.07,0.566,0.248c0,0.209-0.249,0.352-0.603,0.352
		c-0.321,0-0.889,0.141-1.348,0.353c-0.674,0.317-0.958,0.601-1.635,1.409c-1.029,1.197-5.5,8.316-6.068,9.585
		c-0.46,1.093-0.389,2.008-0.389,2.996v2.395c0,0.494,0,1.728,0.071,2.995c0.07,0.884,0.354,1.445,1.279,1.585
		c0.461,0.073,1.133,0.106,1.559,0.106c0.357,0,0.532,0.178,0.532,0.317c0,0.214-0.248,0.317-0.674,0.317
		c-1.951,0-4.044-0.104-4.897-0.104c-0.78,0-2.875,0.104-4.045,0.104c-0.426,0-0.675-0.07-0.675-0.317
		c0-0.14,0.143-0.317,0.496-0.317c0.428,0,0.818-0.033,1.102-0.106c0.64-0.14,0.887-0.701,0.957-1.585
		C116.658,129.283,116.658,128.05,116.658,127.556 M148.787,122.659v-6.204c0-5.355,0-6.343-0.071-7.469
		c-0.071-1.199-0.426-1.797-1.208-1.975c-0.39-0.104-0.852-0.141-1.277-0.141c-0.353,0-0.569-0.069-0.569-0.352
		c0-0.212,0.285-0.281,0.853-0.281c1.348,0,3.583,0.105,4.613,0.105c0.888,0,2.981-0.105,4.329-0.105
		c0.464,0,0.745,0.069,0.745,0.281c0,0.282-0.21,0.352-0.564,0.352c-0.357,0-0.642,0.036-1.066,0.106
		c-0.958,0.175-1.242,0.774-1.313,2.009c-0.071,1.126-0.071,2.113-0.071,7.469v6.204c0,3.417,0,6.201,0.142,7.717
		c0.106,0.952,0.355,1.585,1.419,1.726c0.498,0.07,1.277,0.141,1.811,0.141c0.39,0,0.568,0.107,0.568,0.283
		c0,0.248-0.284,0.352-0.675,0.352c-2.343,0-4.579-0.104-5.535-0.104c-0.818,0-3.054,0.104-4.473,0.104
		c-0.461,0-0.709-0.104-0.709-0.352c0-0.176,0.143-0.283,0.567-0.283c0.532,0,0.958-0.07,1.276-0.141
		c0.711-0.141,0.924-0.739,1.029-1.762C148.787,128.86,148.787,126.076,148.787,122.659 M165.538,116.561l0.354,12.229
		c0.072,2.326,0.461,3.03,1.064,3.243c0.533,0.177,1.136,0.21,1.632,0.21c0.354,0,0.531,0.142,0.531,0.317
		c0,0.247-0.283,0.317-0.707,0.317c-2.023,0-3.476-0.104-4.045-0.104c-0.284,0-1.774,0.104-3.37,0.104
		c-0.429,0-0.709-0.035-0.709-0.317c0-0.176,0.212-0.317,0.496-0.317c0.427,0,0.993-0.033,1.421-0.141
		c0.814-0.21,0.921-1.021,0.956-3.629l0.284-17.762c0-0.599,0.213-1.02,0.532-1.02c0.39,0,0.816,0.457,1.35,0.984
		c0.39,0.39,5.07,5.146,9.606,9.551c2.126,2.08,6.276,6.307,6.737,6.73l-0.179-13.319c-0.035-1.833-0.317-2.362-1.063-2.644
		c-0.461-0.176-1.204-0.176-1.631-0.176c-0.39,0-0.496-0.143-0.496-0.317c0-0.247,0.319-0.282,0.78-0.282
		c1.63,0,3.302,0.07,3.982,0.07c0.355,0,1.53-0.07,3.058-0.07c0.426,0,0.708,0.035,0.708,0.282c0,0.175-0.178,0.317-0.533,0.317
		c-0.319,0-0.567,0-0.958,0.105c-0.85,0.247-1.1,0.775-1.135,2.469l-0.355,18.885c0,0.67-0.249,0.953-0.5,0.953
		c-0.534,0-0.964-0.318-1.286-0.635c-1.953-1.799-5.854-5.498-9.115-8.633c-3.402-3.242-6.7-6.871-7.302-7.402H165.538z
		 M205.181,133.265c-4.259,0-7.879-0.881-10.719-3.241c-3.088-2.572-3.902-5.956-3.902-8.844c0-2.045,0.675-5.568,3.655-8.211
		c2.271-1.975,5.251-3.174,9.9-3.174c1.952,0,3.125,0.143,4.543,0.317c1.17,0.177,2.2,0.389,3.122,0.495
		c0.354,0.035,0.463,0.176,0.463,0.352c0,0.248-0.071,0.599-0.144,1.655c-0.071,0.987-0.071,2.645-0.107,3.243
		c-0.035,0.421-0.141,0.74-0.424,0.74c-0.25,0-0.32-0.246-0.32-0.635c-0.036-0.95-0.425-2.009-1.205-2.785
		c-1.064-1.021-3.16-1.761-6.035-1.761c-2.73,0-4.47,0.495-5.891,1.692c-2.308,1.972-2.873,4.863-2.873,7.787
		c0,7.117,5.535,10.5,9.723,10.5c2.77,0,4.294-0.211,5.537-1.586c0.531-0.598,0.958-1.442,1.064-2.007
		c0.071-0.458,0.142-0.599,0.389-0.599c0.215,0,0.355,0.281,0.355,0.525c0,0.355-0.355,2.963-0.673,3.984
		c-0.142,0.527-0.284,0.669-0.816,0.881C209.581,133.089,207.204,133.265,205.181,133.265 M219.519,124.173v-5.286
		c0-4.545,0-5.391-0.035-6.342c-0.07-1.021-0.354-1.338-1.348-1.621c-0.249-0.07-0.783-0.105-1.244-0.105
		c-0.318,0-0.531-0.107-0.531-0.317c0-0.212,0.248-0.282,0.71-0.282c1.632,0,3.62,0.07,4.508,0.07c0.992,0,7.914,0.037,8.516,0
		c0.566-0.035,1.063-0.141,1.314-0.177c0.177-0.034,0.354-0.14,0.495-0.14c0.18,0,0.213,0.14,0.213,0.281
		c0,0.213-0.176,0.564-0.247,1.938c-0.037,0.32-0.107,1.624-0.178,1.975c-0.036,0.141-0.106,0.492-0.354,0.492
		c-0.214,0-0.25-0.141-0.25-0.386c0-0.214-0.034-0.741-0.211-1.095c-0.249-0.525-0.497-0.949-2.059-1.09
		c-0.532-0.073-4.259-0.143-4.899-0.143c-0.14,0-0.213,0.105-0.213,0.283v7.398c0,0.178,0.036,0.316,0.213,0.316
		c0.711,0,4.758,0,5.468-0.068c0.743-0.07,1.206-0.141,1.49-0.457c0.247-0.212,0.353-0.389,0.496-0.389
		c0.141,0,0.249,0.141,0.249,0.316s-0.071,0.67-0.249,2.185c-0.071,0.599-0.144,1.796-0.144,2.011c0,0.246-0.034,0.668-0.318,0.668
		c-0.212,0-0.283-0.106-0.283-0.246c-0.035-0.318-0.035-0.705-0.106-1.094c-0.179-0.6-0.568-1.057-1.737-1.164
		c-0.569-0.068-4.118-0.139-4.899-0.139c-0.143,0-0.179,0.139-0.179,0.316v2.396c0,1.022-0.034,3.559,0,4.439
		c0.073,2.044,1.028,2.502,4.225,2.502c0.816,0,2.127-0.035,2.946-0.387c0.779-0.353,1.135-0.986,1.348-2.222
		c0.071-0.316,0.143-0.458,0.354-0.458c0.249,0,0.283,0.389,0.283,0.706c0,0.671-0.248,2.714-0.425,3.312
		c-0.213,0.775-0.496,0.775-1.668,0.775c-2.343,0-4.225-0.035-5.75-0.105c-1.525-0.035-2.696-0.068-3.618-0.068
		c-0.357,0-1.03,0.033-1.776,0.033c-0.745,0.035-1.524,0.07-2.164,0.07c-0.39,0-0.602-0.104-0.602-0.317
		c0-0.14,0.105-0.317,0.494-0.317c0.463,0,0.817-0.033,1.101-0.106c0.64-0.14,0.816-0.701,0.924-1.585
		C219.519,129.283,219.519,126.923,219.519,124.173 M239.784,124.173v-5.286c0-4.545,0-5.391-0.035-6.342
		c-0.069-1.021-0.355-1.338-1.349-1.621c-0.249-0.07-0.78-0.105-1.241-0.105c-0.32,0-0.535-0.107-0.535-0.317
		c0-0.212,0.248-0.282,0.712-0.282c1.632,0,3.619,0.07,4.507,0.07c1.277,0,3.762-0.07,5.181-0.07c3.905,0,5.324,1.27,5.819,1.693
		c0.676,0.633,1.564,1.971,1.564,3.592c0,4.23-3.408,7.26-7.845,7.26c-0.142,0-0.781,0-0.923-0.035
		c-0.177,0-0.391-0.104-0.391-0.317c0-0.246,0.355-0.388,1.029-0.388c1.738,0,4.188-1.797,4.188-4.861
		c0-0.986-0.107-2.962-1.845-4.441c-1.137-0.986-2.414-1.127-3.124-1.127c-0.461,0-1.064,0.034-1.35,0.141
		c-0.178,0.07-0.248,0.246-0.248,0.563v11.876c0,2.75,0,5.11,0.144,6.415c0.104,0.847,0.282,1.408,1.205,1.548
		c0.461,0.073,1.137,0.106,1.599,0.106c0.353,0,0.495,0.178,0.495,0.317c0,0.214-0.247,0.317-0.567,0.317
		c-2.095,0-4.294-0.104-5.111-0.104c-0.709,0-2.696,0.104-3.938,0.104c-0.39,0-0.603-0.104-0.603-0.317
		c0-0.14,0.104-0.317,0.497-0.317c0.461,0,0.815-0.033,1.101-0.106c0.637-0.14,0.813-0.701,0.922-1.585
		C239.784,129.283,239.784,126.923,239.784,124.173 M265.621,124.18v-12.113l-4.649,0.107c-1.81,0.034-2.554,0.246-3.016,0.915
		c-0.32,0.423-0.463,0.81-0.532,1.022c-0.07,0.244-0.145,0.385-0.354,0.385c-0.214,0-0.285-0.176-0.285-0.492
		c0-0.492,0.604-3.393,0.674-3.644c0.072-0.388,0.178-0.565,0.356-0.565c0.248,0,0.566,0.248,1.348,0.355
		c0.922,0.106,2.094,0.141,3.123,0.141h12.66c0.989,0,1.662-0.07,2.124-0.143c0.498-0.07,0.75-0.14,0.86-0.14
		c0.218,0,0.252,0.176,0.252,0.634c0,0.633-0.073,2.854-0.073,3.645c-0.034,0.315-0.106,0.491-0.289,0.491
		c-0.252,0-0.326-0.141-0.361-0.599l-0.035-0.316c-0.071-0.774-0.885-1.689-3.684-1.725l-3.931-0.072v12.113
		c0,2.746,0.035,5.105,0.177,6.408c0.106,0.847,0.283,1.408,1.204,1.55c0.424,0.071,1.134,0.104,1.593,0.104
		c0.355,0,0.498,0.178,0.498,0.317c0,0.214-0.248,0.317-0.603,0.317c-2.055,0-4.146-0.104-5.035-0.104
		c-0.708,0-2.839,0.104-4.08,0.104c-0.39,0-0.604-0.104-0.604-0.317c0-0.14,0.107-0.317,0.497-0.317
		c0.462,0,0.851-0.033,1.101-0.104c0.638-0.142,0.816-0.703,0.922-1.585C265.621,129.285,265.621,126.926,265.621,124.18
		 M284.468,124.173v-5.286c0-4.545,0-5.391-0.036-6.342c-0.07-1.021-0.391-1.374-1.064-1.586c-0.354-0.105-0.746-0.141-1.136-0.141
		c-0.319,0-0.497-0.07-0.497-0.352c0-0.178,0.25-0.248,0.745-0.248c1.173,0,3.301,0.07,4.188,0.07c0.779,0,2.805-0.07,4.01-0.07
		c0.39,0,0.64,0.07,0.64,0.248c0,0.281-0.18,0.352-0.498,0.352s-0.567,0.035-0.923,0.105c-0.851,0.142-1.099,0.564-1.171,1.621
		c-0.07,0.951-0.07,1.797-0.07,6.342v5.286c0,2.892,0,5.286,0.143,6.556c0.104,0.809,0.318,1.268,1.239,1.407
		c0.428,0.073,1.138,0.106,1.598,0.106c0.356,0,0.498,0.178,0.498,0.317c0,0.214-0.25,0.317-0.604,0.317
		c-2.057,0-4.187-0.104-5.04-0.104c-0.709,0-2.837,0.104-4.08,0.104c-0.392,0-0.603-0.104-0.603-0.317
		c0-0.14,0.105-0.317,0.496-0.317c0.46,0,0.815-0.033,1.102-0.106c0.637-0.14,0.814-0.562,0.92-1.442
		C284.468,129.459,284.468,127.064,284.468,124.173 M308.459,133.265c-9.086,0-12.774-6.413-12.774-11.734
		c0-5.11,3.62-11.735,13.094-11.735c7.879,0,12.774,4.337,12.774,11.207S316.514,133.265,308.459,133.265 M309.736,131.645
		c2.202,0,7.17-1.022,7.17-9.55c0-6.624-4.01-10.713-9.05-10.713c-3.479,0-7.56,1.833-7.56,9.232
		C300.297,126.781,303.845,131.645,309.736,131.645 M329.505,116.561l0.355,12.229c0.071,2.326,0.461,3.03,1.064,3.243
		c0.53,0.177,1.133,0.21,1.63,0.21c0.354,0,0.532,0.142,0.532,0.317c0,0.247-0.284,0.317-0.709,0.317
		c-2.021,0-3.476-0.104-4.044-0.104c-0.284,0-1.775,0.104-3.37,0.104c-0.427,0-0.711-0.035-0.711-0.317
		c0-0.176,0.213-0.317,0.497-0.317c0.427,0,0.994-0.033,1.419-0.141c0.816-0.21,0.924-1.021,0.959-3.629l0.285-17.762
		c0-0.599,0.212-1.02,0.53-1.02c0.391,0,0.816,0.457,1.349,0.984c0.392,0.39,5.07,5.146,9.608,9.551
		c2.128,2.08,6.275,6.307,6.735,6.73l-0.177-13.319c-0.036-1.833-0.318-2.362-1.063-2.644c-0.461-0.176-1.205-0.176-1.632-0.176
		c-0.391,0-0.497-0.143-0.497-0.317c0-0.247,0.32-0.282,0.781-0.282c1.631,0,3.303,0.07,3.981,0.07c0.355,0,1.531-0.07,3.058-0.07
		c0.424,0,0.708,0.035,0.708,0.282c0,0.175-0.176,0.317-0.531,0.317c-0.319,0-0.569,0-0.959,0.105
		c-0.85,0.247-1.101,0.775-1.135,2.469l-0.355,18.885c0,0.67-0.249,0.953-0.5,0.953c-0.536,0-0.964-0.318-1.286-0.635
		c-1.952-1.799-5.853-5.498-9.114-8.633c-3.403-3.242-6.699-6.871-7.302-7.402H329.505z"/>
</g>
<image display="none" overflow="visible" width="370" height="160" xlink:href="footer-logo.png" >
</image>
</svg>
