<?xml version="1.0" encoding="utf-8"?>
<!-- Generator: Adobe Illustrator 16.0.0, SVG Export Plug-In . SVG Version: 6.00 Build 0)  -->
<!DOCTYPE svg PUBLIC "-//W3C//DTD SVG 1.1//EN" "http://www.w3.org/Graphics/SVG/1.1/DTD/svg11.dtd">
<svg version="1.1" id="Layer_1" xmlns="http://www.w3.org/2000/svg" xmlns:xlink="http://www.w3.org/1999/xlink" x="0px" y="0px"
	 width="50px" height="44px" viewBox="0 0 50 44" enable-background="new 0 0 50 44" xml:space="preserve">
<g>
	<path fill="#A6A8AB" d="M15.331,39.76c2.481,1.043,5.207,1.619,8.067,1.619c9.293,0,17.163-6.085,19.844-14.489
		c-2.33,9.418-10.836,16.401-20.975,16.401c-2.625,0-5.14-0.469-7.467-1.326C14.857,41.212,15.066,40.46,15.331,39.76 M0.662,21.685
		c0-10.138,6.982-18.646,16.401-20.974C8.659,3.391,2.573,11.262,2.573,20.554c0,7.038,3.491,13.259,8.834,17.03
		c-0.271,0.729-0.512,1.509-0.722,2.342C4.66,36.093,0.662,29.356,0.662,21.685"/>
	<g>
		<path fill="#76B6B6" d="M13.432,34.195c3.882-4.968,4.865-4.761,5.742-5.577c4.536-7.981-5.447-15.886-3.296-22.213
			C3.292,12.944,4.794,28.446,13.432,34.195l0.16-0.161"/>
		<path fill="#76B6B6" d="M13.698,31.625C13.573,31.922,13.585,32.182,13.698,31.625L13.698,31.625z"/>
	</g>
	<g>
		<path fill="#DD5841" d="M27.354,10.574c-6.853,5.542-5.679,12.891-5.749,16.325l1.77-3.223
			c13.77,3.47,23.293-12.988,25.963-15.808C40.351,5.912,31.56,7.173,27.354,10.574z"/>
	</g>
	<path fill="#DD5841" d="M26.076,8.351c-1.749,1.749-4.583,1.749-6.333,0.001c-1.748-1.748-1.748-4.583,0-6.331
		c1.749-1.749,4.584-1.749,6.333-0.001C27.825,3.768,27.825,6.603,26.076,8.351"/>
	<circle fill="#FFFFFF" cx="27.388" cy="18.873" r="2.272"/>
	<circle fill="#FFFFFF" cx="14.209" cy="25.797" r="2.854"/>
	<path fill="#DD5841" d="M19.102,30.042c-2.998,2.06-6.11,5.299-7.24,10.581c0.514,0.283,1.041,0.547,1.58,0.788
		c0.535-2.211,1.347-3.96,2.351-5.355c11.729,3.405,20.44-3.18,22.578-9.544C35.559,27.946,26.257,25.134,19.102,30.042z
		 M20.37,34.876c-0.611,0-1.104-0.495-1.104-1.105s0.494-1.104,1.104-1.104c0.61,0,1.104,0.493,1.104,1.104
		S20.98,34.876,20.37,34.876z"/>
</g>
</svg>
