<?xml version="1.0" standalone="no"?>
<!DOCTYPE svg PUBLIC "-//W3C//DTD SVG 20010904//EN"
 "http://www.w3.org/TR/2001/REC-SVG-20010904/DTD/svg10.dtd">
<svg version="1.0" xmlns="http://www.w3.org/2000/svg"
 width="284.000000pt" height="51.000000pt" viewBox="0 0 284.000000 51.000000"
 preserveAspectRatio="xMidYMid meet">
<metadata>
Created by potrace 1.13, written by Peter Selinger 2001-2015
</metadata>
<g transform="translate(0.000000,51.000000) scale(0.100000,-0.100000)"
fill="#000000" stroke="none">
<path d="M0 408 l0 -103 21 42 c24 48 68 89 118 110 50 21 48 9 -4 -21 -63
-37 -98 -93 -103 -166 -5 -73 11 -122 55 -171 22 -24 33 -45 29 -54 -9 -25
-52 9 -87 69 l-29 51 0 -82 0 -83 79 0 c74 0 79 1 74 20 -5 18 -1 19 59 13 41
-3 79 -1 103 7 46 15 108 70 125 110 7 17 16 30 21 30 16 0 -21 -74 -54 -109
-18 -18 -50 -42 -72 -52 -39 -18 -15 -19 1233 -19 l1272 0 0 115 c0 114 0 116
-21 105 -29 -16 -69 -4 -69 20 0 24 6 25 27 5 8 -8 19 -13 24 -10 16 11 9 31
-15 45 -51 27 -33 90 26 90 l28 0 0 70 0 70 -1220 0 -1220 0 0 -29 c0 -49 -30
-88 -77 -101 -47 -14 -63 -8 -63 21 0 36 19 57 67 75 27 9 52 21 58 26 5 4
-80 8 -188 8 l-197 0 0 -102z m176 -66 c3 -14 9 -20 16 -16 6 4 8 3 5 -3 -4
-6 0 -30 8 -53 8 -23 15 -53 15 -66 0 -23 -58 -99 -68 -89 -3 2 -11 26 -19 52
-10 35 -12 39 -8 13 3 -19 8 -48 11 -65 l7 -30 -23 20 c-32 28 -60 93 -60 139
0 53 34 120 73 145 l32 20 3 -22 c1 -12 5 -32 8 -45z m544 41 c-1 -18 -18 -35
-24 -24 -13 21 -36 12 -36 -15 0 -23 3 -26 25 -22 21 4 25 1 25 -18 0 -13 -4
-24 -10 -24 -5 0 -10 5 -10 10 0 6 -7 10 -15 10 -19 0 -21 -66 -2 -73 6 -3 -8
-5 -33 -5 -25 0 -39 2 -32 5 16 6 16 135 0 151 -9 9 2 12 50 12 34 0 62 -3 62
-7z m822 -69 c-3 -56 0 -79 10 -85 8 -6 -4 -8 -32 -8 -25 0 -39 3 -32 6 16 6
16 135 0 151 -9 9 -4 12 23 12 l34 0 -3 -76z m-723 -14 c15 -35 32 -65 38 -67
7 -3 14 20 18 55 10 87 19 94 46 39 13 -26 26 -47 29 -47 3 0 16 20 28 45 12
25 26 45 31 45 5 0 13 -30 17 -67 8 -60 12 -68 32 -71 21 -3 22 0 22 57 0 36
-4 61 -11 61 -5 0 -7 5 -4 10 3 6 19 10 34 10 l27 0 -4 -66 c-3 -49 -1 -69 9
-75 9 -5 -13 -9 -58 -9 -71 0 -73 1 -73 24 0 37 -16 40 -30 6 -16 -39 -34 -38
-51 1 -12 31 -13 31 -21 9 -6 -16 -5 -26 4 -32 8 -4 -8 -8 -39 -8 -43 0 -53 3
-58 20 -4 13 -15 20 -32 20 -20 0 -24 -4 -20 -20 4 -17 0 -20 -26 -20 -18 0
-27 4 -20 8 6 4 24 37 39 75 15 37 32 66 37 64 5 -1 21 -31 36 -67z m393 4
c-4 -59 -3 -64 16 -64 11 0 22 6 25 13 2 6 8 9 12 5 4 -4 5 -14 2 -23 -5 -10
-20 -15 -54 -15 l-48 0 3 65 c3 44 0 65 -8 65 -25 0 1 17 28 18 l28 1 -4 -65z
m98 33 c12 -28 14 -29 27 -12 7 11 13 25 13 32 0 7 11 13 25 13 14 0 25 -4 25
-10 0 -5 -4 -10 -9 -10 -14 0 -51 -69 -51 -95 0 -13 6 -26 13 -28 6 -3 -4 -6
-24 -6 -34 -1 -35 0 -31 29 4 30 -30 100 -49 100 -6 0 -8 4 -5 9 3 5 16 9 29
9 16 0 27 -10 37 -31z m341 -19 l48 -53 1 37 c0 20 -4 40 -10 43 -20 12 -9 25
20 25 17 0 30 -4 30 -10 0 -5 -4 -10 -10 -10 -6 0 -10 -30 -10 -70 0 -38 -3
-70 -7 -70 -4 0 -29 21 -55 47 l-48 47 0 -36 c0 -20 6 -39 13 -41 6 -3 -3 -6
-21 -6 -29 -1 -32 1 -22 18 5 11 10 45 10 75 0 31 3 56 7 56 3 0 28 -24 54
-52z m237 23 c4 -22 3 -23 -19 -7 -13 9 -29 16 -36 16 -19 0 -43 -29 -43 -52
0 -45 58 -76 88 -46 9 9 12 7 12 -10 0 -50 -116 -32 -134 21 -21 59 25 110 94
105 28 -2 36 -8 38 -27z m122 8 c0 -12 -7 -15 -25 -11 -18 3 -25 0 -25 -12 0
-10 9 -16 25 -16 18 0 25 -5 25 -20 0 -21 -15 -27 -25 -10 -12 19 -25 10 -25
-16 0 -24 3 -26 31 -20 22 4 29 2 27 -7 -3 -7 -27 -13 -59 -15 -43 -3 -52 -1
-41 9 14 15 16 119 2 119 -5 0 -10 4 -10 8 0 5 22 8 50 8 39 -1 50 -5 50 -17z
m130 1 c6 -10 9 -9 12 1 3 9 25 13 71 14 56 0 67 -2 67 -16 0 -12 -7 -15 -25
-11 -24 4 -25 3 -25 -51 0 -35 5 -57 13 -60 6 -3 -4 -6 -23 -6 l-35 -1 3 60
c3 48 1 60 -11 60 -15 0 -23 -7 -55 -45 -7 -8 -22 -15 -32 -15 -23 0 -27 -29
-8 -48 9 -9 3 -12 -27 -11 -22 0 -34 3 -27 6 15 6 17 123 2 123 -5 0 -10 5
-10 10 0 14 101 5 110 -10z m230 9 c0 -5 -4 -9 -10 -9 -14 0 -12 -104 2 -118
9 -9 3 -12 -27 -11 -22 0 -34 3 -27 6 15 6 17 123 2 123 -5 0 -10 4 -10 9 0 5
16 9 35 9 19 0 35 -4 35 -9z m143 0 c30 -16 37 -28 37 -65 0 -49 -30 -79 -78
-79 -54 0 -82 26 -82 76 0 62 65 98 123 68z m131 -39 l46 -49 0 39 c0 22 -4
40 -10 40 -5 0 -10 5 -10 10 0 6 14 10 30 10 17 0 30 -4 30 -10 0 -5 -4 -10
-10 -10 -5 0 -10 -33 -12 -72 l-3 -73 -52 49 -53 49 0 -30 c0 -16 5 -34 12
-41 9 -9 4 -12 -22 -12 -26 0 -31 3 -22 12 7 7 12 39 12 75 0 35 4 63 9 63 4
0 29 -22 55 -50z m-1929 -205 c0 -48 -2 -55 -20 -55 -18 0 -20 7 -20 55 0 48
2 55 20 55 18 0 20 -7 20 -55z m162 23 c-5 27 -3 32 12 32 16 0 17 -7 13 -52
-2 -29 -6 -55 -8 -57 -2 -3 -18 9 -35 25 l-32 29 5 -27 c5 -25 2 -28 -21 -27
-14 0 -20 3 -13 6 7 3 12 24 12 56 l0 51 36 -35 37 -34 -6 33z m203 17 c0 -9
-6 -12 -16 -8 -14 5 -16 -1 -13 -40 4 -42 2 -47 -16 -47 -18 0 -20 5 -16 47 3
39 1 45 -13 40 -10 -4 -16 -1 -16 8 0 11 12 15 45 15 33 0 45 -4 45 -15z m150
-1 c0 -10 -6 -14 -15 -10 -9 3 -15 0 -15 -9 0 -9 6 -12 16 -8 12 4 15 2 12 -8
-3 -8 -11 -13 -17 -12 -6 2 -11 -7 -11 -18 0 -18 2 -19 15 -9 12 10 15 10 15
-4 0 -11 -9 -16 -32 -16 l-33 0 0 55 0 55 33 0 c23 0 32 -5 32 -16z m150 1 c6
-8 9 -23 5 -34 -4 -13 1 -27 14 -40 18 -18 19 -21 4 -21 -9 0 -25 8 -36 17
-19 17 -20 17 -14 1 5 -14 1 -18 -16 -18 -20 0 -22 5 -22 55 0 53 1 55 26 55
15 0 32 -7 39 -15z m177 -17 c-5 27 -3 32 12 32 16 0 17 -7 13 -52 -2 -29 -6
-55 -8 -57 -2 -3 -18 9 -35 25 l-32 29 5 -27 c4 -21 1 -28 -11 -28 -13 0 -15
10 -13 56 l4 56 35 -33 36 -34 -6 33z m173 11 c0 -6 9 -28 19 -49 17 -35 17
-40 4 -40 -9 0 -21 7 -28 17 -12 16 -40 9 -30 -8 4 -5 -3 -9 -14 -9 -18 0 -18
2 -6 28 8 15 19 40 24 55 10 26 31 30 31 6z m200 5 c0 -11 -6 -14 -20 -9 -18
6 -20 2 -20 -33 0 -23 5 -43 13 -45 6 -3 1 -6 -13 -6 -24 -1 -25 1 -21 45 3
43 2 46 -18 39 -15 -5 -21 -2 -21 9 0 12 11 16 50 16 39 0 50 -4 50 -16z m115
-39 c0 -48 -2 -55 -20 -55 -18 0 -20 7 -20 55 0 48 2 55 20 55 18 0 20 -7 20
-55z m185 35 c24 -24 25 -38 4 -68 -20 -29 -79 -31 -94 -3 -16 31 -12 59 12
75 30 21 54 20 78 -4z m147 -17 l32 -38 1 28 c0 15 -4 27 -10 27 -5 0 -10 5
-10 10 0 6 12 10 26 10 19 0 24 -4 20 -17 -3 -10 -8 -35 -12 -55 -3 -21 -9
-38 -12 -38 -3 0 -19 12 -35 28 l-30 27 5 -27 c4 -21 1 -28 -11 -28 -13 0 -15
10 -13 55 2 30 7 55 10 55 4 0 21 -17 39 -37z m211 -25 c21 -47 21 -48 1 -48
-10 0 -19 7 -19 15 0 8 -7 15 -15 15 -8 0 -15 -7 -15 -15 0 -8 -9 -15 -20 -15
-18 0 -18 2 -4 28 8 15 19 40 25 56 11 34 19 28 47 -36z m134 16 c-5 -44 -4
-46 17 -39 15 5 21 2 21 -9 0 -12 -10 -16 -37 -16 l-38 0 0 55 c0 49 2 55 21
55 20 0 21 -4 16 -46z"/>
<path d="M770 295 c0 -8 4 -15 10 -15 5 0 7 7 4 15 -4 8 -8 15 -10 15 -2 0 -4
-7 -4 -15z"/>
<path d="M2080 319 c0 -20 4 -29 13 -27 18 7 20 45 3 51 -12 5 -16 -1 -16 -24z"/>
<path d="M2435 326 c-28 -42 16 -108 58 -85 23 13 22 71 -1 92 -25 23 -39 21
-57 -7z"/>
<path d="M1351 134 c0 -11 3 -14 6 -6 3 7 2 16 -1 19 -3 4 -6 -2 -5 -13z"/>
<path d="M2167 143 c-13 -12 -7 -50 9 -63 12 -11 18 -10 31 3 14 13 14 21 5
42 -11 24 -31 32 -45 18z"/>
<path d="M2794 339 c-7 -11 36 -52 45 -43 6 6 -21 54 -30 54 -4 0 -11 -5 -15
-11z"/>
</g>
</svg>
