<?xml version="1.0" encoding="utf-8"?>
<!-- Generator: Adobe Illustrator 16.0.0, SVG Export Plug-In . SVG Version: 6.00 Build 0)  -->
<!DOCTYPE svg PUBLIC "-//W3C//DTD SVG 1.1//EN" "http://www.w3.org/Graphics/SVG/1.1/DTD/svg11.dtd">
<svg version="1.1" id="Layer_1" xmlns="http://www.w3.org/2000/svg" xmlns:xlink="http://www.w3.org/1999/xlink" x="0px" y="0px"
	 width="40px" height="30px" viewBox="0 0 40 30" enable-background="new 0 0 40 30" xml:space="preserve">
<path fill="#DFE0E1" d="M38.713,0.301c-6.249-0.153-15.666,7.667-17.082,13.917c-0.904,3.988,0.5,13.167,6.333,15.083
	c0.079,0.026,7,2.292,9.833-2.333c0.043-0.07,3.25-5.167-3.916-7.167c-0.179-0.05-12.834-5.5,4.832-17.75
	C38.85,1.956,39.906,0.33,38.713,0.301z"/>
<path fill="#DFE0E1" d="M18.041,0.301C11.792,0.147,2.375,7.968,0.959,14.218c-0.904,3.988,0.5,13.167,6.333,15.083
	c0.079,0.026,7,2.292,9.833-2.333c0.043-0.07,3.25-5.167-3.916-7.167c-0.179-0.05-12.834-5.5,4.832-17.75
	C18.178,1.956,19.234,0.33,18.041,0.301z"/>
</svg>
