<?xml version="1.0" encoding="utf-8"?>
<!-- Generator: Adobe Illustrator 16.0.0, SVG Export Plug-In . SVG Version: 6.00 Build 0)  -->
<!DOCTYPE svg PUBLIC "-//W3C//DTD SVG 1.1//EN" "http://www.w3.org/Graphics/SVG/1.1/DTD/svg11.dtd">
<svg version="1.1" id="Layer_1" xmlns="http://www.w3.org/2000/svg" xmlns:xlink="http://www.w3.org/1999/xlink" x="0px" y="0px"
	 width="20px" height="20px" viewBox="0 0 20 20" enable-background="new 0 0 20 20" xml:space="preserve">
<g>
	<path fill="#75B8B8" d="M9.999,0.035c-5.494,0-9.964,4.471-9.964,9.965c0,5.496,4.47,9.965,9.964,9.965
		c5.495,0,9.966-4.47,9.966-9.965C19.965,4.505,15.494,0.035,9.999,0.035L9.999,0.035z M12.479,10.349h-1.621v5.782H8.454v-5.782
		H7.312V8.308h1.143V6.987c0-0.945,0.449-2.425,2.424-2.425l1.78,0.008v1.981h-1.291c-0.212,0-0.51,0.106-0.51,0.557v1.202h1.831
		L12.479,10.349z M12.479,10.349"/>
</g>
</svg>
