<?xml version="1.0" encoding="utf-8"?>
<!-- Generator: Adobe Illustrator 16.0.0, SVG Export Plug-In . SVG Version: 6.00 Build 0)  -->
<!DOCTYPE svg PUBLIC "-//W3C//DTD SVG 1.1//EN" "http://www.w3.org/Graphics/SVG/1.1/DTD/svg11.dtd">
<svg version="1.1" id="Layer_1" xmlns="http://www.w3.org/2000/svg" xmlns:xlink="http://www.w3.org/1999/xlink" x="0px" y="0px"
	 width="20px" height="20px" viewBox="0 0 20 20" enable-background="new 0 0 20 20" xml:space="preserve">
<ellipse fill="#FFFFFF" cx="10" cy="10.044" rx="10" ry="9.956"/>
<path fill="#6D6D6D" d="M15.602,9.214h-5.239v1.747h3.197c-0.476,1.517-1.896,2.619-3.571,2.619c-2.066,0-3.742-1.675-3.742-3.742
	s1.676-3.743,3.742-3.743c1.041,0,1.983,0.425,2.659,1.111l1.271-1.378c-1.014-0.991-2.399-1.603-3.93-1.603
	c-3.1,0-5.613,2.513-5.613,5.614c0,3.1,2.513,5.613,5.613,5.613c2.717,0,5.095-1.93,5.613-4.49V9.214z M15.602,9.214"/>
<path fill="#6D6D6D" d="M19.875,9.409h-1.379V8.033h-1.18v1.376h-1.377v1.184h1.377v1.374h1.18v-1.374h1.379V9.409z M19.875,9.409"
	/>
</svg>
