<?xml version="1.0" encoding="utf-8"?>
<!-- Generator: Adobe Illustrator 16.0.0, SVG Export Plug-In . SVG Version: 6.00 Build 0)  -->
<!DOCTYPE svg PUBLIC "-//W3C//DTD SVG 1.1//EN" "http://www.w3.org/Graphics/SVG/1.1/DTD/svg11.dtd">
<svg version="1.1" id="Layer_1" xmlns="http://www.w3.org/2000/svg" xmlns:xlink="http://www.w3.org/1999/xlink" x="0px" y="0px"
	 width="20px" height="20px" viewBox="0 0 20 20" enable-background="new 0 0 20 20" xml:space="preserve">
<g>
	<path fill="#FFFFFF" d="M9.923,0.139C4.452,0.139,0,4.535,0,9.937c0,5.403,4.452,9.799,9.923,9.799
		c5.472,0,9.925-4.396,9.925-9.799C19.848,4.535,15.395,0.139,9.923,0.139L9.923,0.139z M14.351,7.696
		c0.006,0.096,0.008,0.194,0.008,0.293c0,2.979-2.298,6.415-6.5,6.415c-1.29,0-2.491-0.37-3.501-1.014
		c0.179,0.022,0.361,0.033,0.544,0.033c1.071,0,2.055-0.361,2.838-0.966c-1-0.019-1.843-0.67-2.134-1.566
		c0.139,0.027,0.281,0.041,0.429,0.041c0.207,0,0.41-0.027,0.602-0.079c-1.044-0.207-1.833-1.118-1.833-2.21
		c0-0.01,0-0.019,0.002-0.029c0.306,0.169,0.66,0.27,1.035,0.28C5.227,8.491,4.822,7.8,4.822,7.018c0-0.413,0.114-0.8,0.309-1.134
		c1.126,1.365,2.811,2.263,4.708,2.357C9.8,8.075,9.782,7.903,9.782,7.726c0-1.245,1.021-2.254,2.283-2.254
		c0.656,0,1.25,0.273,1.665,0.711c0.521-0.1,1.013-0.287,1.452-0.547c-0.171,0.528-0.531,0.969-1.004,1.249
		c0.462-0.055,0.904-0.175,1.311-0.354C15.185,6.98,14.797,7.377,14.351,7.696L14.351,7.696z M14.351,7.696"/>
</g>
</svg>
