<?xml version="1.0" encoding="utf-8"?>
<!-- Generator: Adobe Illustrator 16.0.0, SVG Export Plug-In . SVG Version: 6.00 Build 0)  -->
<!DOCTYPE svg PUBLIC "-//W3C//DTD SVG 1.1//EN" "http://www.w3.org/Graphics/SVG/1.1/DTD/svg11.dtd">
<svg version="1.1" id="Layer_1" xmlns="http://www.w3.org/2000/svg" xmlns:xlink="http://www.w3.org/1999/xlink" x="0px" y="0px"
	 width="26px" height="18px" viewBox="0 0 26 18" enable-background="new 0 0 26 18" xml:space="preserve">
<g>
	<g>
		<path fill="#FFFFFF" d="M25.551,2.86c-0.32-1.383-1.45-2.401-2.811-2.552c-3.227-0.36-6.487-0.362-9.737-0.36
			c-3.249-0.002-6.513,0-9.737,0.36C1.907,0.459,0.776,1.477,0.458,2.86C0.005,4.827,0,6.974,0,9c0,2.025,0,4.174,0.453,6.141
			c0.317,1.381,1.448,2.401,2.811,2.553c3.224,0.359,6.486,0.361,9.735,0.359c3.25,0.002,6.513,0,9.734-0.359
			c1.361-0.15,2.493-1.172,2.813-2.553C25.997,13.174,26,11.027,26,9C26,6.974,26.004,4.827,25.551,2.86L25.551,2.86z M9.645,13.032
			v-8.59c2.754,1.437,5.491,2.862,8.263,4.308C15.145,10.182,12.408,11.602,9.645,13.032L9.645,13.032z"/>
	</g>
</g>
<g>
	<g>
		<path fill="#FFFFFF" d="M25.551,2.896c-0.32-1.375-1.45-2.387-2.811-2.537c-3.227-0.357-6.487-0.36-9.737-0.357
			c-3.249-0.002-6.513,0-9.737,0.357c-1.359,0.15-2.49,1.162-2.808,2.537C0.005,4.852,0,6.986,0,9c0,2.014,0,4.149,0.453,6.105
			c0.317,1.372,1.448,2.387,2.811,2.537C6.487,18,9.749,18.002,12.998,18c3.25,0.002,6.513,0,9.734-0.357
			c1.361-0.149,2.493-1.165,2.813-2.537C25.997,13.149,26,11.016,26,9C26,6.986,26.004,4.852,25.551,2.896L25.551,2.896z
			 M9.645,13.009V4.468c2.754,1.429,5.491,2.846,8.263,4.283C15.145,10.175,12.408,11.587,9.645,13.009L9.645,13.009z"/>
	</g>
</g>
</svg>
