<?xml version="1.0" encoding="utf-8"?>
<!-- Generator: Adobe Illustrator 16.0.0, SVG Export Plug-In . SVG Version: 6.00 Build 0)  -->
<!DOCTYPE svg PUBLIC "-//W3C//DTD SVG 1.1//EN" "http://www.w3.org/Graphics/SVG/1.1/DTD/svg11.dtd">
<svg version="1.1" id="Layer_1" xmlns="http://www.w3.org/2000/svg" xmlns:xlink="http://www.w3.org/1999/xlink" x="0px" y="0px"
	 width="26px" height="18px" viewBox="0 0 26 18" enable-background="new 0 0 26 18" xml:space="preserve">
<g>
	<g>
		<path fill-rule="evenodd" clip-rule="evenodd" fill="#75B8B8" d="M25.551,2.896c-0.319-1.375-1.449-2.387-2.811-2.538
			C19.515,0,16.253-0.001,13.004,0C9.755-0.001,6.491,0,3.267,0.358c-1.36,0.15-2.491,1.163-2.809,2.538C0.005,4.852,0,6.986,0,9
			c0,2.015,0,4.149,0.453,6.104c0.318,1.373,1.449,2.388,2.811,2.538C6.487,18,9.75,18.002,12.999,18
			c3.25,0.002,6.513,0,9.735-0.357c1.362-0.15,2.494-1.165,2.813-2.538C25.998,13.149,26,11.015,26,9
			C26,6.986,26.004,4.852,25.551,2.896L25.551,2.896z M9.645,13.009v-8.54c2.755,1.428,5.491,2.845,8.264,4.283
			C15.145,10.175,12.408,11.585,9.645,13.009L9.645,13.009z M9.645,13.009"/>
	</g>
</g>
</svg>
