<?xml version="1.0" encoding="utf-8"?>
<!-- Generator: Adobe Illustrator 16.0.0, SVG Export Plug-In . SVG Version: 6.00 Build 0)  -->
<!DOCTYPE svg PUBLIC "-//W3C//DTD SVG 1.1//EN" "http://www.w3.org/Graphics/SVG/1.1/DTD/svg11.dtd">
<svg version="1.1" id="Layer_1" xmlns="http://www.w3.org/2000/svg" xmlns:xlink="http://www.w3.org/1999/xlink" x="0px" y="0px"
	 width="132.203px" height="126.934px" viewBox="0 0 132.203 126.934" enable-background="new 0 0 132.203 126.934"
	 xml:space="preserve">
<g>
	<defs>
		<rect id="SVGID_1_" width="132.203" height="126.934"/>
	</defs>
	<clipPath id="SVGID_2_">
		<use xlink:href="#SVGID_1_"  overflow="visible"/>
	</clipPath>
	<path clip-path="url(#SVGID_2_)" fill="#DBDADB" d="M39.838,117.344c6.74,2.836,14.143,4.401,21.911,4.401
		c25.24,0,46.616-16.53,53.897-39.354c-6.327,25.58-29.432,44.542-56.966,44.542c-7.128,0-13.96-1.271-20.28-3.599
		C38.553,121.292,39.12,119.249,39.838,117.344 M0,68.254c0-27.534,18.964-50.64,44.543-56.965
		C21.719,18.57,5.189,39.947,5.189,65.185c0,19.113,9.48,36.012,23.995,46.251c-0.734,1.981-1.392,4.102-1.961,6.363
		C10.857,107.388,0,89.089,0,68.254"/>
	<path clip-path="url(#SVGID_2_)" fill="#DBDADB" d="M41.325,26.756c-5.843,17.184,21.27,38.654,8.953,60.333
		c-2.381,2.218-7.172,6.865-10.865,10.479c-4.872-10.269-10.264-35.751-8.352-51.692c-6.377,17.97-3.029,41.535,4.056,55.923
		l-0.434,0.435C11.222,86.619,7.144,44.518,41.325,26.756"/>
	<path clip-path="url(#SVGID_2_)" fill="#DBDADB" d="M56.877,82.415c0.192-9.325-2.997-29.285,15.615-44.336
		c11.421-9.237,35.303-12.66,59.71-7.349c-7.251,7.658-27.359,52.192-64.76,42.77c2.571-28.894,30.231-38.062,51.875-39.828
		c-28.614,0.17-57.036,4.027-56.98,47.508C60.685,81.523,58.043,81.872,56.877,82.415"/>
	<path clip-path="url(#SVGID_2_)" fill="#DBDADB" d="M68.491,12.66c-2.113,2.113-5.537,2.113-7.649,0.002
		c-2.112-2.112-2.112-5.536,0-7.648c2.112-2.112,5.536-2.113,7.649-0.001C70.604,7.125,70.604,10.548,68.491,12.66"/>
	<path clip-path="url(#SVGID_2_)" fill="#DBDADB" d="M102.413,81.366c-5.848,17.418-31.652,34.461-58.209,26.414
		c11.714-17.553,39.969-12.43,50.668-20.692c-13.75,8.115-51.212-2.275-60.163,34.744c-1.464-0.655-2.895-1.369-4.292-2.139
		c3.072-14.351,11.524-23.147,19.666-28.734C69.516,77.624,94.776,85.26,102.413,81.366"/>
	<path clip-path="url(#SVGID_2_)" fill="#DBDADB" d="M46.59,9.981c19.853,7.014,20.847,30.112,9.337,40.348l-0.272-0.189
		c2.744-8.326,2.766-21.345-2.055-30.591c2.237,8.443,1.277,22.553-0.562,28.531C38.497,35.219,50.809,18.341,46.59,9.981"/>
	<path clip-path="url(#SVGID_2_)" fill="#DBDADB" d="M99.959,0c1.933,16.985-10.102,34.26-30.563,32.576
		c2.908-5.518,12.228-16.206,19.793-20.603c-9.947,3.129-19.137,12.35-23.084,20.179l-0.327-0.059
		C64.833,4.269,97.157,11.784,99.959,0"/>
</g>
</svg>
