<?xml version="1.0" encoding="utf-8"?>
<!-- Generator: Adobe Illustrator 16.0.0, SVG Export Plug-In . SVG Version: 6.00 Build 0)  -->
<!DOCTYPE svg PUBLIC "-//W3C//DTD SVG 1.1//EN" "http://www.w3.org/Graphics/SVG/1.1/DTD/svg11.dtd">
<svg version="1.1" id="Layer_1" xmlns="http://www.w3.org/2000/svg" xmlns:xlink="http://www.w3.org/1999/xlink" x="0px" y="0px"
	 width="512px" height="511.982px" viewBox="0 0 512 511.982" enable-background="new 0 0 512 511.982" xml:space="preserve">
<g>
	<g>
		<path fill="#FFFFFF" d="M255.991,0C114.85,0,0,114.832,0,255.991s114.85,255.991,255.991,255.991
			C397.15,511.982,512,397.168,512,255.991C512,114.832,397.15,0,255.991,0 M206.769,91.667l11.962,3.397V79.325l4.662-4.391
			l4.988,9.685l9.504,11.474l-3.849,5.277l-15.323,3.523v-9.324l-11.962,9.324l-3.469-5.312L206.769,91.667z M22.388,250.299
			c1.193-49.547,17.871-95.209,45.409-132.558c0.921,0.126,1.572,0.361,1.572,0.361c0,3.524-4.807,4.373,0,13.227
			c6.143,11.456,0.867,16.75,0.867,16.75S55.238,158.65,52.6,160.421c-2.638,1.753-9.685,11.438-5.294,8.8
			c4.409-2.638,9.685-5.277,5.294,1.771c-4.409,7.065-12.341,18.503-14.094,22.93c-1.753,4.427-10.571,14.979-10.571,20.274
			c0,5.294-3.523,15.865-2.638,20.292C25.893,237.542,23.924,246.576,22.388,250.299 M113.422,397.53l-3.541,13.173l3.541,10.589
			c0,0-5.312,4.409-8.8,4.409c-3.252,0-4.354,2.041-7.914,1.12c-33.609-31.405-58.003-72.479-68.574-118.825
			c1.138,0.307,2.765,1.12,5.06,3.144c3.324,2.893,5.294,4.373,9.703,6.161c4.391,1.808,6.162,4.392,11.456,7.048
			s3.542,0.903,10.571,8.836c7.065,7.914,6.179,7.914,7.932,12.323s4.409,8.818,6.18,11.474c1.771,2.656,7.047,4.41,9.685,6.182
			c2.638,1.771,7.047,3.521,9.685,3.521c2.657,0,10.589,7.935,14.998,8.782c4.409,0.923,4.409,9.74,4.409,9.74L113.422,397.53z
			 M148.676,57.298c-11.456,12.342-8.818,8.818-11.456,12.342c-2.638,3.523-1.771,4.39-7.951,8.817
			c-6.161,4.373-8.8,9.668-8.8,9.668l-9.703,3.541l-7.914-3.541c0,0-7.084,2.656-6.198-0.886c0.253-0.921,0.614-1.897,1.03-2.927
			c21.575-19.913,46.818-35.742,74.681-46.493c-2.747,3.542-6.071,7.138-6.071,7.138S160.132,44.938,148.676,57.298
			 M417.496,373.714c-0.921,3.487-2.638,9.667-3.522,13.189c-0.887,3.523-5.296,10.59-7.915,12.343
			c-2.639,1.789-7.083,7.083-9.702,7.95c-2.62,0.867-4.409-6.218-3.524-9.703c0.922-3.561,5.295-13.229,5.295-13.229
			s0.885-5.258,1.771-8.816c0.921-3.471,11.474-7.914,11.474-7.914l7.083-13.229c0,0,0.885,3.562,0.885,6.198
			C419.268,363.106,418.382,370.19,417.496,373.714 M420.134,290.847c-1.789,2.639-7.083,9.668-9.702,13.19
			s-6.145,8.817-11.438,13.228c-5.294,4.391-5.33,8.764-7.914,12.359c-2.639,3.521-6.198,11.438-6.198,11.438
			s1.789,17.654,2.64,21.178c0.921,3.523-6.146,13.191-6.146,13.191l-7.932,7.914l-10.625,14.112l0.849,13.173
			c0,0-8.005,6.179-12.432,9.703c-4.373,3.522-3.704,6.18-7.209,9.703c-3.471,3.487-12.85,9.667-16.371,10.57
			c-3.506,0.902-18.467,3.506-18.467,3.506v-7.914l-4.897-8.818c0,0-4.896-10.553-7.554-14.112
			c-2.637-3.486-2.637-8.816-7.028-13.189c-4.409-4.409-6.56-7.914-7.444-10.589c-0.904-2.639,0.649-10.553,0.649-10.553
			s3.397-9.705,5.149-13.209c1.789-3.523-0.035-8.817-1.844-12.379c-1.771-3.521-2.638-12.357-2.638-14.961
			c0-2.639-7.119-7.102-9.739-9.703c-2.639-2.656-1.771-6.18-1.771-9.703c0-3.506-2.637-11.475-1.788-17.617
			c0.885-6.182-7.915-1.809-13.191,0c-5.293,1.734-8.8-1.809-8.8-7.102c0-5.259-9.685-0.85-15.865,2.637
			c-6.198,3.507-13.227,3.507-20.31,6.146c-7.029,2.638-10.534-2.64-10.534-2.64s-6.198-5.295-10.571-7.913
			c-4.427-2.64-8.836-7.914-12.378-12.343c-3.505-4.426-12.341-17.672-13.191-22.912c-0.885-5.313,0-8.854,0-15.015
			c0-6.162,0-9.686,0.868-14.095c0.885-4.409,3.523-9.703,6.18-14.112c2.638-4.409,12.341-9.685,14.961-11.456
			c2.638-1.753,8.818-7.029,8.818-10.571c0-3.523,3.542-5.276,5.276-8.818c1.789-3.523,7.951-12.323,15.884-8.799
			c0,0,7.029-0.868,9.667-1.753c2.638-0.886,9.685-3.506,13.172-5.276c3.524-1.771,12.306-2.603,12.306-2.603
			s6.938,2.765,9.576,2.765s11.258-1.536,11.258-1.536s3.992,12.775,3.992,15.432c0,2.656,2.639,5.276,7.084,7.047
			c4.354,1.752,24.646,6.161,33.501-0.886c2.022-1.626,8.764,2.638,8.764,2.638s22.045,4.409,25.55,7.048
			c3.542,2.656,9.704,4.427,11.477,7.083c1.789,2.638,7.914,10.571,8.78,13.209c0.922,2.638,5.331,12.359,6.217,15.865
			c0.902,3.523,3.506,12.341,6.161,16.75c2.639,4.427,17.653,23.781,22.912,32.617l15.919-2.639
			C423.676,280.276,421.923,288.228,420.134,290.847 M484.48,257.399c-0.887-3.542-6.182-15.882-6.182-15.882
			s-5.294-7.047-8.816-8.818c-3.487-1.771-6.145-6.18-12.342-9.685c-6.181-3.542-8.801-5.295-14.059-5.295
			c-5.331,0-10.589-7.065-16.787-10.588c-6.18-3.506-7.063-1.753-7.063-1.753s7.063,10.571,7.063,13.209
			c0,2.638,7.915,7.047,15.901,5.276c0,0,5.258,9.703,7.915,12.341c2.655,2.639-0.887,5.295-6.181,8.818
			c-5.294,3.506-4.373,2.639-7.083,5.277c-2.64,2.638-11.438,7.083-14.096,8.818c-2.638,1.752-13.188,7.047-18.449,1.752
			c-2.619-2.547-1.807-7.914-3.521-11.456c-1.771-3.523-20.256-30.844-29.074-43.168c-1.554-2.168-5.294-8.854-7.914-10.571
			c-2.639-1.788,6.197-1.788,6.197-1.788s0-6.18-0.903-10.571c-0.885-4.409,0.903-10.571,0.903-10.571s-8.818,5.277-11.492,7.047
			c-2.638,1.771-5.294-3.505-8.764-7.932c-3.523-4.391-7.083-9.703-7.934-14.112c-0.885-4.391,4.409-6.162,4.409-6.162l7.914-4.391
			c0,0,9.704-1.753,15.92-0.885c6.145,0.885,15.848,1.771,15.848,1.771s2.639-6.179-0.923-8.818
			c-3.485-2.638-11.474-7.047-14.961-6.161c-3.522,0.867,1.734-4.409,6.145-7.933l-9.775-1.771c0,0-8.854,4.409-11.547,5.295
			c-2.638,0.867-7.191,2.638-10.77,7.047c-3.487,4.409,1.408,10.571-2.113,12.341c-3.488,1.771-5.892,2.638-8.547,3.506
			c-2.639,0.885-11.006,0-11.006,0c-9.106,0-3.287,8.312-0.921,11.257l-7.064-8.601l-5.224-12.359c0,0-7.517-5.277-11.004-7.03
			c-3.561-1.752-14.4-7.932-14.4-7.932l0.74,7.932l10.19,10.336l0.921,0.235l6.252,7.047l-10.805,0.886V146.4
			c-18.07-2.674-9.105-5.421-10.336-6.27c-2.62-1.753-9.215-6.18-9.215-6.18s-10.661,1.753-13.301,2.656
			c-2.655,0.886-3.486,3.524-8.763,5.277c-5.313,1.77-7.77,4.408-9.523,7.047c-1.753,2.638-7.517,10.57-11.004,14.094
			c-3.542,3.541-10.155,2.638-12.793,2.638c-2.657,0-15.432-3.524-15.432-3.524v-14.943c0,0,1.771-8.384,0.886-11.022l7.751-1.301
			l12.884-2.657l3.795-2.656l5.42-7.047c0,0-6.089-4.409-1.698-10.571c2.114-2.963,9.721-3.523,13.245-6.161
			c3.505-2.639,8.836-4.409,8.836-4.409s6.181-5.277,12.341-11.456c0,0,4.409-2.657,9.688-4.427c0,0,14.996,13.226,17.652,13.226
			s12.359-6.161,12.359-6.161s2.639-7.915,1.789-10.571c-0.885-2.638-5.294-11.456-5.294-11.456s-2.64,4.409-5.259,7.932
			c-2.639,3.524-4.445,7.933-4.445,7.933s-12.395-0.867-13.227-3.505c-0.885-2.657-2.64-6.993-3.541-9.613
			c-0.852-2.657-7.916-2.566-13.174-0.796c-5.313,1.771,0.85-9.504,0.85-9.504s5.313-6.65,8.818-6.65
			c3.486,0,11.49-4.517,14.961-5.384c3.506-0.886,14.131-7.662,18.504-7.662c4.408,0,9.702-0.831,12.378-0.831h13.172l18.484,1.247
			c0,0,15.885,7.228,10.554,10.769c0,0,6.216,4.518,8.854,7.156c2.478,2.493,8.854-1.952,12.522-3.994
			c65.936,41.416,110.044,114.778,110.044,198.241c0,4.481-0.38,8.944-0.633,13.353C487.552,265.024,485.094,259.713,484.48,257.399
			"/>
	</g>
	<g>
		<polygon fill="#FFFFFF" points="211.811,95.046 211.811,95.57 212.1,95.209 		"/>
	</g>
</g>
</svg>
