<?xml version="1.0" encoding="utf-8"?>
<!-- Generator: Adobe Illustrator 16.0.0, SVG Export Plug-In . SVG Version: 6.00 Build 0)  -->
<!DOCTYPE svg PUBLIC "-//W3C//DTD SVG 1.1//EN" "http://www.w3.org/Graphics/SVG/1.1/DTD/svg11.dtd">
<svg version="1.1" id="Layer_1" xmlns="http://www.w3.org/2000/svg" xmlns:xlink="http://www.w3.org/1999/xlink" x="0px" y="0px"
	 width="30.9px" height="31.333px" viewBox="9.65 10.833 30.9 31.333" enable-background="new 9.65 10.833 30.9 31.333"
	 xml:space="preserve">
<path fill="#FFFFFF" d="M40.363,23.397c1.048,7.507-2.113,18.769-15.046,18.769c-8.652,0-15.667-7.014-15.667-15.666
	c0-8.652,7.014-15.667,15.667-15.667c4.06,0,7.759,1.544,10.542,4.078c-3.278,3.096-3.172,3.28-4.461,4.568
	c-1.608-1.331-3.364-2.286-6.083-2.286c-5.14,0-9.151,4.167-9.151,9.307c0,5.141,4.011,9.307,9.151,9.307
	c5.081,0,7.143-2.189,8.47-6.211c-2.451,0-8.47,0.008-8.47,0.008v-6.206C25.317,23.397,37.302,23.397,40.363,23.397z"/>
</svg>
