<?xml version="1.0" encoding="utf-8"?>
<!-- Generator: Adobe Illustrator 16.0.0, SVG Export Plug-In . SVG Version: 6.00 Build 0)  -->
<!DOCTYPE svg PUBLIC "-//W3C//DTD SVG 1.1//EN" "http://www.w3.org/Graphics/SVG/1.1/DTD/svg11.dtd">
<svg version="1.1" id="Layer_1" xmlns="http://www.w3.org/2000/svg" xmlns:xlink="http://www.w3.org/1999/xlink" x="0px" y="0px"
	 width="713.2px" height="126.935px" viewBox="11.146 13.503 713.2 126.935" enable-background="new 11.146 13.503 713.2 126.935"
	 xml:space="preserve">
<g>
	<path fill="#A7A9AC" d="M50.984,130.848c6.74,2.836,14.144,4.401,21.912,4.401c25.239,0,46.616-16.53,53.896-39.354
		c-6.327,25.58-29.431,44.543-56.966,44.543c-7.127,0-13.959-1.271-20.279-3.599C49.7,134.797,50.267,132.753,50.984,130.848
		 M11.146,81.759c0-27.534,18.964-50.64,44.543-56.965c-22.824,7.28-39.354,28.657-39.354,53.896c0,19.113,9.48,36.012,23.995,46.25
		c-0.734,1.982-1.392,4.103-1.961,6.365C22.004,120.893,11.146,102.594,11.146,81.759"/>
	<path fill="#76B7B7" d="M52.472,40.26c-5.842,17.184,21.27,38.655,8.953,60.332c-2.381,2.219-7.172,6.866-10.865,10.48
		c-4.872-10.27-10.264-35.75-8.352-51.692c-6.377,17.97-3.029,41.535,4.056,55.923l-0.434,0.436
		C22.369,100.123,18.291,58.022,52.472,40.26"/>
	<path fill="#DD5841" d="M68.024,95.918c0.191-9.325-2.997-29.284,15.615-44.336c11.421-9.236,35.303-12.66,59.71-7.349
		c-7.251,7.658-27.359,52.192-64.76,42.771c2.57-28.895,30.232-38.063,51.875-39.829c-28.614,0.17-57.035,4.027-56.98,47.508
		C71.832,95.027,69.19,95.375,68.024,95.918"/>
	<path fill="#DD5841" d="M79.638,26.164c-2.112,2.113-5.537,2.113-7.649,0.002c-2.112-2.111-2.112-5.535,0-7.647
		c2.113-2.112,5.537-2.113,7.649-0.001C81.75,20.628,81.75,24.052,79.638,26.164"/>
	<path fill="#DD5841" d="M113.56,94.87c-5.848,17.418-31.652,34.459-58.209,26.414c11.714-17.554,39.969-12.431,50.668-20.693
		c-13.75,8.115-51.212-2.274-60.164,34.744c-1.463-0.655-2.895-1.369-4.292-2.138c3.071-14.352,11.524-23.147,19.666-28.735
		C80.662,91.127,105.923,98.764,113.56,94.87"/>
	<path fill="#DD5841" d="M57.737,23.485C77.59,30.5,78.584,53.598,67.074,63.834l-0.272-0.189
		c2.745-8.326,2.766-21.345-2.055-30.591c2.237,8.443,1.277,22.553-0.562,28.531C49.644,48.723,61.956,31.845,57.737,23.485"/>
	<path fill="#76B7B7" d="M111.106,13.503c1.932,16.985-10.102,34.26-30.563,32.576c2.908-5.519,12.228-16.206,19.793-20.603
		c-9.947,3.129-19.137,12.35-23.083,20.179l-0.327-0.059C75.979,17.773,108.304,25.287,111.106,13.503"/>
</g>
<g>
	<path fill="#999999" d="M692.469,109.787v5.686c0,4.135,0,6.364,0.678,6.945c0.55,0.482,1.389,0.709,3.909,0.709
		c1.711,0,2.972-0.031,3.777-0.904c0.389-0.418,0.775-1.322,0.841-1.938c0.031-0.292,0.098-0.484,0.355-0.484
		c0.229,0,0.26,0.161,0.26,0.551c0,0.354-0.229,2.775-0.486,3.715c-0.193,0.709-0.354,0.873-2.034,0.873
		c-2.327,0-4.007-0.066-5.46-0.099c-1.451-0.065-2.615-0.097-3.94-0.097c-0.354,0-1.063,0-1.84,0.031
		c-0.744,0-1.582,0.065-2.229,0.065c-0.42,0-0.646-0.097-0.646-0.323c0-0.162,0.129-0.258,0.518-0.258
		c0.484,0,0.871-0.066,1.162-0.131c0.646-0.129,0.808-0.839,0.936-1.777c0.163-1.356,0.163-3.906,0.163-6.879v-5.687
		c0-4.911,0-5.815-0.064-6.847c-0.063-1.099-0.323-1.616-1.389-1.842c-0.261-0.065-0.646-0.098-1.066-0.098
		c-0.355,0-0.55-0.063-0.55-0.289s0.229-0.292,0.713-0.292c1.517,0,3.554,0.099,4.425,0.099c0.773,0,3.133-0.099,4.392-0.099
		c0.452,0,0.683,0.065,0.683,0.292S695.376,101,694.986,101c-0.354,0-0.872,0.032-1.26,0.098c-0.869,0.16-1.131,0.711-1.195,1.842
		C692.469,103.971,692.469,104.875,692.469,109.787L692.469,109.787z M183.325,115.473v-5.686c0-4.911,0-5.814-0.065-6.846
		c-0.063-1.1-0.39-1.648-1.097-1.813c-0.354-0.097-0.775-0.128-1.164-0.128c-0.321,0-0.516-0.063-0.516-0.321
		c0-0.193,0.258-0.26,0.772-0.26c1.23,0,3.266,0.098,4.201,0.098c0.81,0,2.713-0.098,3.94-0.098c0.421,0,0.682,0.066,0.682,0.26
		c0,0.258-0.194,0.321-0.521,0.321c-0.32,0-0.578,0.032-0.967,0.097c-0.873,0.161-1.131,0.713-1.193,1.844
		c-0.066,1.031-0.066,1.935-0.066,6.846v5.686c0,3.135,0,5.687,0.129,7.074c0.098,0.873,0.323,1.454,1.294,1.583
		c0.452,0.065,1.161,0.131,1.646,0.131c0.355,0,0.515,0.095,0.515,0.259c0,0.226-0.257,0.322-0.609,0.322
		c-2.135,0-4.169-0.097-5.042-0.097c-0.741,0-2.776,0.097-4.069,0.097c-0.421,0-0.646-0.097-0.646-0.322
		c0-0.164,0.131-0.259,0.518-0.259c0.48,0,0.873-0.065,1.165-0.131c0.641-0.129,0.838-0.678,0.936-1.614
		C183.325,121.158,183.325,118.605,183.325,115.473L183.325,115.473z M217.156,106.878l0.352,13.57
		c0.066,2.518,0.486,3.356,1.131,3.583c0.55,0.195,1.162,0.229,1.677,0.229c0.357,0,0.553,0.063,0.553,0.258
		c0,0.258-0.292,0.323-0.747,0.323c-2.095,0-3.392-0.097-4.007-0.097c-0.294,0-1.813,0.097-3.496,0.097
		c-0.42,0-0.71-0.034-0.71-0.323c0-0.193,0.195-0.258,0.516-0.258c0.421,0,1.005-0.033,1.454-0.162
		c0.841-0.259,0.97-1.197,1.002-4.008l0.289-19.122c0-0.647,0.1-1.099,0.426-1.099c0.357,0,0.646,0.421,1.201,1.001
		c0.392,0.42,5.297,5.687,10.008,10.368c2.198,2.197,6.554,6.851,7.104,7.367l-0.163-14.504c-0.032-1.973-0.321-2.584-1.099-2.908
		c-0.486-0.193-1.258-0.193-1.71-0.193c-0.387,0-0.516-0.098-0.516-0.289c0-0.258,0.353-0.292,0.836-0.292
		c1.68,0,3.231,0.099,3.906,0.099c0.358,0,1.583-0.099,3.166-0.099c0.423,0,0.746,0.034,0.746,0.292
		c0,0.191-0.194,0.289-0.583,0.289c-0.324,0-0.579,0-0.968,0.098c-0.904,0.26-1.162,0.938-1.196,2.746l-0.354,20.383
		c0,0.713-0.129,1.002-0.421,1.002c-0.354,0-0.741-0.355-1.099-0.711c-2.032-1.938-6.162-6.17-9.521-9.498
		c-3.518-3.488-7.099-7.526-7.682-8.143L217.156,106.878L217.156,106.878z M268.981,115.473v-13.244l-4.816,0.129
		c-1.872,0.065-2.649,0.226-3.134,0.936c-0.32,0.486-0.483,0.873-0.547,1.133c-0.065,0.258-0.162,0.387-0.357,0.387
		c-0.226,0-0.289-0.16-0.289-0.517c0-0.519,0.615-3.459,0.679-3.717c0.097-0.42,0.194-0.613,0.389-0.613
		c0.258,0,0.578,0.324,1.388,0.388c0.937,0.1,2.164,0.162,3.229,0.162h12.792c1.036,0,1.745-0.098,2.229-0.162
		c0.486-0.096,0.744-0.162,0.873-0.162c0.226,0,0.258,0.194,0.258,0.679c0,0.679-0.095,2.907-0.095,3.746
		c-0.034,0.323-0.101,0.518-0.292,0.518c-0.258,0-0.323-0.161-0.355-0.644l-0.031-0.357c-0.065-0.841-0.936-1.746-3.812-1.809
		l-4.069-0.098v13.244c0,2.973,0,5.523,0.16,6.914c0.097,0.904,0.289,1.614,1.259,1.743c0.452,0.065,1.162,0.131,1.646,0.131
		c0.357,0,0.521,0.095,0.521,0.259c0,0.226-0.263,0.322-0.615,0.322c-2.132,0-4.169-0.097-5.073-0.097
		c-0.741,0-2.776,0.097-4.069,0.097c-0.421,0-0.647-0.097-0.647-0.322c0-0.164,0.132-0.259,0.519-0.259
		c0.486,0,0.873-0.065,1.164-0.131c0.647-0.129,0.839-0.839,0.937-1.778C268.981,120.996,268.981,118.445,268.981,115.473
		L268.981,115.473z M306.021,115.473v-5.686c0-4.911,0-5.814-0.063-6.846c-0.063-1.1-0.321-1.617-1.389-1.844
		c-0.257-0.064-0.807-0.097-1.262-0.097c-0.352,0-0.547-0.063-0.547-0.289s0.227-0.292,0.71-0.292l2.616,0.034
		c0.841,0.032,1.582,0.063,2.037,0.063c1.033,0,7.46,0,8.075-0.033c0.612-0.065,1.131-0.131,1.389-0.193
		c0.163-0.032,0.354-0.131,0.516-0.131c0.163,0,0.194,0.131,0.194,0.294c0,0.226-0.163,0.61-0.258,2.098
		c-0.031,0.324-0.098,1.745-0.16,2.132c-0.034,0.16-0.098,0.354-0.323,0.354c-0.227,0-0.292-0.163-0.292-0.452
		c0-0.227-0.031-0.775-0.194-1.162c-0.227-0.583-0.55-0.97-2.163-1.162c-0.55-0.064-3.94-0.131-4.588-0.131
		c-0.16,0-0.227,0.098-0.227,0.324v8.173c0,0.226,0.031,0.354,0.227,0.354c0.713,0,4.428,0,5.169-0.063
		c0.774-0.065,1.259-0.163,1.551-0.485c0.227-0.258,0.354-0.42,0.519-0.42c0.128,0,0.227,0.064,0.227,0.26
		c0,0.191-0.132,0.709-0.258,2.357c-0.034,0.646-0.133,1.938-0.133,2.163c0,0.258,0,0.616-0.287,0.616
		c-0.228,0-0.292-0.133-0.292-0.292c-0.034-0.324-0.034-0.744-0.13-1.162c-0.162-0.646-0.614-1.13-1.809-1.263
		c-0.615-0.063-3.812-0.098-4.591-0.098c-0.16,0-0.191,0.131-0.191,0.324v2.553c0,1.1-0.034,4.072,0,5.008
		c0.065,2.229,0.581,2.713,3.878,2.713c0.842,0,2.197,0,3.033-0.387c0.842-0.389,1.23-1.066,1.457-2.392
		c0.063-0.354,0.128-0.483,0.354-0.483c0.26,0,0.26,0.258,0.26,0.58c0,0.744-0.26,2.939-0.42,3.586
		c-0.229,0.842-0.521,0.842-1.746,0.842c-2.424,0-4.2-0.066-5.589-0.099c-1.389-0.065-2.394-0.097-3.359-0.097
		c-0.356,0-1.066,0-1.841,0.031c-0.743,0-1.585,0.065-2.229,0.065c-0.421,0-0.647-0.097-0.647-0.323
		c0-0.162,0.129-0.258,0.519-0.258c0.483,0,0.87-0.066,1.162-0.131c0.646-0.129,0.807-0.839,0.936-1.777
		C306.021,120.996,306.021,118.445,306.021,115.473L306.021,115.473z M344.198,115.473v-5.686c0-4.911,0-5.814-0.063-6.846
		c-0.064-1.1-0.322-1.617-1.388-1.844c-0.261-0.064-0.812-0.097-1.263-0.097c-0.354,0-0.546-0.063-0.546-0.289
		s0.223-0.292,0.709-0.292c1.715,0,3.745,0.098,4.428,0.098c1.096,0,3.549-0.098,4.553-0.098c2.035,0,4.198,0.194,5.944,1.391
		c0.9,0.613,2.193,2.262,2.193,4.426c0,2.39-1.001,4.587-4.264,7.234c2.876,3.619,5.105,6.493,7.009,8.496
		c1.813,1.875,3.137,2.102,3.622,2.197c0.354,0.063,0.643,0.098,0.904,0.098c0.258,0,0.387,0.096,0.387,0.258
		c0,0.258-0.227,0.323-0.615,0.323h-3.066c-1.81,0-2.619-0.163-3.457-0.614c-1.389-0.742-2.616-2.262-4.425-4.748
		c-1.293-1.777-2.781-3.973-3.196-4.459c-0.163-0.195-0.357-0.227-0.584-0.227l-2.813-0.063c-0.16,0-0.258,0.063-0.258,0.257v0.452
		c0,3.004,0,5.555,0.163,6.91c0.095,0.939,0.291,1.649,1.259,1.778c0.486,0.065,1.196,0.132,1.583,0.132
		c0.261,0,0.39,0.094,0.39,0.258c0,0.226-0.227,0.322-0.646,0.322c-1.874,0-4.264-0.097-4.748-0.097
		c-0.614,0-2.646,0.097-3.939,0.097c-0.421,0-0.646-0.097-0.646-0.322c0-0.164,0.126-0.258,0.516-0.258
		c0.486,0,0.873-0.066,1.165-0.132c0.645-0.129,0.808-0.839,0.936-1.778C344.198,120.996,344.198,118.445,344.198,115.473
		L344.198,115.473z M348.01,102.52v9.818c0,0.355,0.065,0.487,0.292,0.582c0.682,0.229,1.648,0.323,2.455,0.323
		c1.291,0,1.712-0.129,2.295-0.55c0.968-0.709,1.903-2.194,1.903-4.844c0-4.588-3.036-5.912-4.942-5.912
		c-0.807,0-1.388,0.035-1.711,0.131C348.075,102.131,348.01,102.262,348.01,102.52L348.01,102.52z M388.46,106.878l0.36,13.57
		c0.063,2.518,0.479,3.356,1.128,3.583c0.549,0.195,1.159,0.229,1.68,0.229c0.352,0,0.547,0.063,0.547,0.258
		c0,0.258-0.29,0.323-0.742,0.323c-2.1,0-3.394-0.097-4.011-0.097c-0.295,0-1.813,0.097-3.497,0.097c-0.42,0-0.71-0.034-0.71-0.323
		c0-0.193,0.195-0.258,0.52-0.258c0.42,0,1.001-0.033,1.452-0.162c0.84-0.259,0.969-1.197,0.999-4.008l0.296-19.122
		c0-0.647,0.095-1.099,0.421-1.099c0.356,0,0.65,0.421,1.2,1.001c0.393,0.42,5.298,5.687,10.009,10.368
		c2.197,2.197,6.554,6.851,7.104,7.367l-0.163-14.504c-0.032-1.973-0.321-2.584-1.094-2.908c-0.49-0.193-1.263-0.193-1.715-0.193
		c-0.387,0-0.517-0.098-0.517-0.289c0-0.258,0.354-0.292,0.843-0.292c1.677,0,3.226,0.099,3.899,0.099
		c0.357,0,1.585-0.099,3.171-0.099c0.418,0,0.741,0.034,0.741,0.292c0,0.191-0.193,0.289-0.581,0.289c-0.323,0-0.581,0-0.97,0.098
		c-0.904,0.26-1.162,0.938-1.196,2.746l-0.354,20.383c0,0.713-0.129,1.002-0.418,1.002c-0.357,0-0.743-0.355-1.1-0.711
		c-2.037-1.938-6.167-6.17-9.521-9.498c-3.521-3.488-7.102-7.526-7.683-8.143L388.46,106.878L388.46,106.878z M444.486,116.411
		h-7.203c-0.161,0-0.228,0.063-0.292,0.257l-1.743,4.619c-0.323,0.807-0.486,1.583-0.486,1.971c0,0.582,0.289,1.002,1.293,1.002
		h0.484c0.389,0,0.486,0.063,0.486,0.258c0,0.258-0.194,0.323-0.551,0.323c-1.032,0-2.424-0.097-3.423-0.097
		c-0.356,0-2.135,0.097-3.813,0.097c-0.418,0-0.612-0.065-0.612-0.323c0-0.193,0.129-0.258,0.389-0.258
		c0.29,0,0.742-0.033,0.999-0.066c1.488-0.193,2.099-1.293,2.748-2.906L440.868,101c0.387-0.936,0.582-1.293,0.901-1.293
		c0.295,0,0.489,0.292,0.811,1.036c0.776,1.776,5.943,14.956,8.014,19.848c1.228,2.897,2.162,3.347,2.84,3.539
		c0.484,0.097,0.969,0.131,1.356,0.131c0.258,0,0.421,0.032,0.421,0.259c0,0.258-0.291,0.322-1.487,0.322
		c-1.161,0-3.52,0-6.104-0.064c-0.581-0.032-0.97-0.032-0.97-0.258c0-0.194,0.132-0.259,0.451-0.293
		c0.227-0.063,0.455-0.354,0.292-0.74l-2.584-6.853C444.746,116.475,444.649,116.411,444.486,116.411L444.486,116.411z
		 M437.93,114.794h5.943l-2.744-8.173c-0.034-0.128-0.066-0.289-0.163-0.289c-0.098,0-0.163,0.161-0.193,0.289l-2.972,7.947
		L437.93,114.794L437.93,114.794z M481.306,115.473v-13.244l-4.813,0.129c-1.872,0.065-2.65,0.226-3.134,0.936
		c-0.324,0.486-0.486,0.873-0.551,1.133c-0.064,0.258-0.159,0.387-0.354,0.387c-0.227,0-0.292-0.16-0.292-0.517
		c0-0.519,0.615-3.459,0.679-3.717c0.098-0.42,0.193-0.613,0.39-0.613c0.258,0,0.581,0.324,1.391,0.388
		c0.934,0.1,2.161,0.162,3.229,0.162h12.792c1.033,0,1.745-0.098,2.229-0.162c0.484-0.096,0.741-0.162,0.873-0.162
		c0.227,0,0.258,0.194,0.258,0.679c0,0.679-0.097,2.907-0.097,3.746c-0.032,0.323-0.1,0.518-0.293,0.518
		c-0.257,0-0.32-0.161-0.354-0.644l-0.031-0.357c-0.065-0.841-0.936-1.746-3.81-1.809l-4.072-0.098v13.244
		c0,2.973,0,5.523,0.161,6.914c0.097,0.904,0.291,1.614,1.262,1.743c0.45,0.065,1.162,0.131,1.646,0.131
		c0.354,0,0.519,0.095,0.519,0.259c0,0.226-0.261,0.322-0.614,0.322c-2.134,0-4.167-0.097-5.071-0.097
		c-0.744,0-2.779,0.097-4.069,0.097c-0.422,0-0.646-0.097-0.646-0.322c0-0.164,0.132-0.259,0.519-0.259
		c0.483,0,0.87-0.065,1.161-0.131c0.647-0.129,0.839-0.839,0.938-1.778C481.306,120.996,481.306,118.445,481.306,115.473
		L481.306,115.473z M518.349,115.473v-5.686c0-4.911,0-5.814-0.063-6.846c-0.065-1.1-0.389-1.648-1.099-1.813
		c-0.355-0.097-0.775-0.128-1.165-0.128c-0.32,0-0.516-0.063-0.516-0.321c0-0.193,0.257-0.26,0.775-0.26
		c1.229,0,3.263,0.098,4.198,0.098c0.81,0,2.713-0.098,3.939-0.098c0.421,0,0.679,0.066,0.679,0.26c0,0.258-0.191,0.321-0.515,0.321
		c-0.324,0-0.582,0.032-0.971,0.097c-0.873,0.161-1.131,0.713-1.196,1.844c-0.063,1.031-0.063,1.935-0.063,6.846v5.686
		c0,3.135,0,5.687,0.129,7.074c0.098,0.873,0.322,1.454,1.294,1.583c0.452,0.065,1.162,0.131,1.646,0.131
		c0.355,0,0.52,0.095,0.52,0.259c0,0.226-0.259,0.322-0.613,0.322c-2.135,0-4.169-0.097-5.042-0.097
		c-0.741,0-2.775,0.097-4.069,0.097c-0.418,0-0.645-0.097-0.645-0.322c0-0.164,0.129-0.259,0.516-0.259
		c0.483,0,0.873-0.065,1.164-0.131c0.646-0.129,0.839-0.678,0.938-1.614C518.349,121.158,518.349,118.605,518.349,115.473
		L518.349,115.473z M560.531,125.294c-9.271,0-13.02-6.944-13.02-12.663c0-5.525,3.649-12.664,13.342-12.664
		c8.041,0,13.051,4.686,13.051,12.082C573.904,119.447,568.735,125.294,560.531,125.294L560.531,125.294z M561.888,123.677
		c2.262,0,7.495-1.096,7.495-10.434c0-7.234-4.17-11.726-9.467-11.726c-3.715,0-7.944,2.067-7.944,10.111
		C551.972,118.35,555.684,123.677,561.888,123.677L561.888,123.677z M599.882,106.878l0.355,13.57
		c0.064,2.518,0.485,3.356,1.131,3.583c0.549,0.195,1.161,0.229,1.68,0.229c0.353,0,0.547,0.063,0.547,0.258
		c0,0.258-0.289,0.323-0.741,0.323c-2.098,0-3.395-0.097-4.012-0.097c-0.293,0-1.813,0.097-3.494,0.097
		c-0.421,0-0.71-0.034-0.71-0.323c0-0.193,0.192-0.258,0.517-0.258c0.42,0,1.002-0.033,1.455-0.162c0.84-0.259,0.968-1.197,1-4.008
		l0.291-19.122c0-0.647,0.098-1.099,0.422-1.099c0.356,0,0.65,0.421,1.203,1.001c0.39,0.42,5.298,5.687,10.009,10.368
		c2.194,2.197,6.551,6.851,7.101,7.367l-0.16-14.504c-0.031-1.973-0.323-2.584-1.099-2.908c-0.484-0.194-1.257-0.194-1.71-0.194
		c-0.389,0-0.519-0.099-0.519-0.289c0-0.258,0.354-0.292,0.84-0.292c1.68,0,3.229,0.098,3.905,0.098
		c0.357,0,1.583-0.098,3.168-0.098c0.418,0,0.741,0.034,0.741,0.292c0,0.19-0.191,0.289-0.581,0.289c-0.319,0-0.581,0-0.971,0.097
		c-0.903,0.26-1.161,0.938-1.193,2.747l-0.354,20.382c0,0.713-0.131,1.002-0.42,1.002c-0.355,0-0.744-0.354-1.1-0.709
		c-2.035-1.938-6.165-6.17-9.521-9.5c-3.519-3.488-7.102-7.525-7.682-8.142h-0.099V106.878z M655.909,116.411h-7.206
		c-0.161,0-0.228,0.063-0.289,0.257l-1.746,4.619c-0.323,0.807-0.484,1.583-0.484,1.971c0,0.582,0.29,1.002,1.291,1.002h0.487
		c0.386,0,0.483,0.063,0.483,0.258c0,0.258-0.194,0.323-0.551,0.323c-1.031,0-2.421-0.097-3.423-0.097
		c-0.354,0-2.132,0.097-3.812,0.097c-0.42,0-0.612-0.065-0.612-0.323c0-0.193,0.126-0.258,0.388-0.258c0.288,0,0.74-0.033,1-0.066
		c1.485-0.193,2.099-1.293,2.744-2.906L652.289,101c0.389-0.936,0.58-1.293,0.904-1.293c0.294,0,0.485,0.292,0.81,1.036
		c0.772,1.776,5.943,14.956,8.01,19.848c1.229,2.897,2.164,3.347,2.843,3.539c0.486,0.097,0.97,0.131,1.355,0.131
		c0.261,0,0.421,0.032,0.421,0.259c0,0.258-0.289,0.322-1.484,0.322c-1.162,0-3.521,0-6.104-0.064
		c-0.583-0.032-0.97-0.032-0.97-0.258c0-0.194,0.129-0.259,0.452-0.293c0.226-0.063,0.452-0.354,0.289-0.74l-2.582-6.853
		C656.166,116.475,656.068,116.411,655.909,116.411L655.909,116.411z M649.35,114.794h5.944l-2.745-8.173
		c-0.034-0.128-0.064-0.289-0.162-0.289s-0.161,0.161-0.191,0.289l-2.975,7.947L649.35,114.794L649.35,114.794z"/>
	<path fill="#76B8B7" d="M711.693,85.974c-2.748,0-5.652-0.269-7.701-1.183c-0.753-0.326-0.914-0.542-0.914-1.561
		c0-2.477,0.216-5.332,0.268-6.083c0-0.7,0.217-1.186,0.596-1.186c0.429,0,0.482,0.429,0.482,0.754c0,0.589,0.16,1.562,0.432,2.367
		c1.022,3.394,4.577,4.524,7.536,4.524c4.095,0,6.567-2.584,6.567-5.815c0-1.99-0.483-3.982-4.683-6.459l-2.746-1.614
		c-5.601-3.286-7.431-6.356-7.431-10.394c0-5.6,5.385-9.206,11.954-9.206c3.067,0,5.491,0.431,6.729,0.754
		c0.431,0.108,0.644,0.271,0.644,0.591c0,0.594-0.159,1.887-0.159,5.494c0,0.967-0.216,1.451-0.592,1.451
		c-0.324,0-0.482-0.268-0.482-0.807c0-0.429-0.221-1.83-1.242-3.015c-0.699-0.863-2.205-2.154-5.275-2.154
		c-3.389,0-6.459,1.778-6.459,4.898c0,2.048,0.751,3.665,5.005,6.031l1.939,1.077c6.244,3.444,8.185,6.946,8.185,11.092
		c0,3.391-1.293,6.138-4.739,8.562C717.345,85.706,714.222,85.974,711.693,85.974L711.693,85.974z M175.249,65.409v4.361
		c0,5.168,0,9.207,0.268,11.467c0.161,1.561,0.484,2.744,2.098,2.96c0.757,0.107,1.94,0.215,2.693,0.215
		c0.698,0,0.914,0.163,0.914,0.431c0,0.378-0.376,0.539-1.183,0.539c-3.392,0-6.783-0.161-8.184-0.161
		c-1.398,0-4.792,0.161-6.837,0.161c-0.752,0-1.131-0.108-1.131-0.539c0-0.269,0.216-0.431,0.808-0.431
		c0.807,0,1.454-0.108,1.94-0.215c1.075-0.216,1.343-1.399,1.559-2.96c0.271-2.261,0.271-6.299,0.271-11.467v-9.478
		c0-8.183,0-9.692-0.108-11.412c-0.108-1.833-0.542-2.694-2.314-3.07c-0.434-0.108-1.348-0.164-2.103-0.164
		c-0.537,0-0.915-0.105-0.915-0.428c0-0.432,0.431-0.54,1.241-0.54c1.399,0,2.96,0.053,4.358,0.053
		c1.399,0.055,2.64,0.11,3.392,0.11c2.045,0,12.976,0,14.217-0.055c1.02-0.055,1.667-0.055,2.206-0.215
		c0.323-0.108,0.591-0.324,0.859-0.324c0.216,0,0.379,0.216,0.379,0.483c0,0.379-0.269,1.025-0.432,2.424
		c-0.053,0.537-0.163,3.715-0.268,4.359c-0.056,0.433-0.164,0.757-0.539,0.757c-0.376,0-0.484-0.271-0.539-0.863
		c0-0.431,0-1.293-0.321-2.045c-0.379-0.754-1.509-1.562-3.554-1.614l-8.292-0.163c-0.323,0-0.484,0.163-0.484,0.751v13.46
		c0,0.326,0.053,0.486,0.376,0.486l6.89-0.055c0.915,0,1.67,0,2.425-0.053c1.02-0.052,1.776-0.268,2.313-0.967
		c0.271-0.326,0.379-0.542,0.702-0.542c0.213,0,0.323,0.164,0.323,0.484c0,0.326-0.273,1.671-0.431,3.341
		c-0.107,1.075-0.216,3.551-0.216,3.93c0,0.483,0,1.022-0.542,1.022c-0.32,0-0.425-0.376-0.425-0.755
		c0-0.378-0.111-1.022-0.326-1.669c-0.269-0.754-1.078-1.722-2.745-1.937c-1.346-0.163-7.053-0.163-7.968-0.163
		C175.354,64.923,175.249,65.033,175.249,65.409L175.249,65.409z M201.47,71.331h9.153l-4.254-11.898
		c-0.052-0.163-0.107-0.431-0.215-0.431c-0.163,0-0.216,0.268-0.269,0.431l-4.577,11.572L201.47,71.331L201.47,71.331z
		 M230.382,80.806l4.685-29.88c0.107-0.754,0.538-1.185,0.914-1.185c0.484,0,0.811,0.216,1.457,1.453l12.705,25.521l12.705-25.844
		c0.379-0.754,0.805-1.13,1.241-1.13c0.373,0,0.915,0.486,1.072,1.453l4.309,28.266c0.429,2.854,0.862,4.09,2.316,4.521
		c1.346,0.379,2.098,0.431,2.691,0.431c0.432,0,0.752,0.163,0.752,0.431c0,0.378-0.536,0.539-1.235,0.539
		c-1.188,0-7.916-0.216-9.801-0.324c-1.13-0.052-1.398-0.268-1.398-0.539c0-0.215,0.216-0.375,0.536-0.483
		c0.271-0.108,0.379-0.647,0.216-1.938l-2.64-19.813l-10.336,20.458c-1.075,2.153-1.344,2.584-1.883,2.584
		c-0.592,0-1.13-0.915-1.882-2.313c-1.136-2.101-4.9-9.102-5.439-10.392c-0.376-0.859-3.178-6.622-4.74-9.798l-2.421,17.874
		c-0.107,0.807-0.16,1.401-0.16,2.153c0,0.862,0.645,1.186,1.451,1.346c0.808,0.163,1.238,0.215,1.672,0.215
		c0.426,0,0.752,0.216,0.752,0.431c0,0.431-0.431,0.539-1.13,0.539c-1.993,0-4.148-0.161-5.009-0.161
		c-0.914,0-3.178,0.161-4.685,0.161c-0.165,0-0.323-0.013-0.454-0.05c-0.306,0.037-0.747,0.05-1.378,0.05
		c-1.669,0-5.116,0-9.096-0.108c-0.862-0.053-1.401-0.053-1.401-0.379c0-0.268,0.108-0.431,0.592-0.483
		c0.323-0.052,0.646-0.484,0.431-1.023l-3.662-9.206c-0.107-0.271-0.271-0.323-0.483-0.323h-11.144
		c-0.269,0-0.326,0.052-0.432,0.323l-2.534,6.138c-0.48,1.13-0.699,2.261-0.699,2.797c0,0.81,0.432,1.293,1.888,1.293h0.699
		c0.595,0,0.699,0.216,0.699,0.483c0,0.379-0.268,0.487-0.754,0.487c-1.56,0-3.768-0.161-5.276-0.161
		c-0.483,0-3.013,0.161-5.489,0.161c-0.594,0-0.862-0.108-0.862-0.487c0-0.268,0.16-0.483,0.536-0.483
		c0.432,0,0.973-0.052,1.399-0.052c2.155-0.324,2.965-1.725,3.933-4.039l12.382-28.806c0.539-1.289,0.914-1.83,1.4-1.83
		c0.7,0,0.915,0.431,1.401,1.456c1.131,2.529,9.043,21.265,12.056,28.184c1.83,4.127,3.182,4.716,4.038,4.924
		c0.702,0.111,1.241,0.163,1.78,0.163c0.702,0,1.022,0,1.779-0.108C229.737,84.145,230.169,82.314,230.382,80.806L230.382,80.806z
		 M283.795,72.083v-8.076c0-6.945,0-8.236-0.053-9.69c-0.11-1.561-0.594-2.1-1.617-2.423c-0.539-0.16-1.133-0.215-1.722-0.215
		c-0.483,0-0.757-0.105-0.757-0.537c0-0.271,0.378-0.378,1.133-0.378c1.774,0,5.008,0.108,6.352,0.108
		c1.186,0,4.253-0.108,6.085-0.108c0.592,0,0.968,0.108,0.968,0.378c0,0.431-0.268,0.537-0.752,0.537
		c-0.483,0-0.862,0.055-1.401,0.163c-1.29,0.215-1.669,0.862-1.777,2.476c-0.107,1.454-0.107,2.746-0.107,9.69v8.076
		c0,4.417,0,8.075,0.216,10.015c0.163,1.236,0.483,1.938,1.885,2.151c0.646,0.111,1.722,0.163,2.421,0.163
		c0.539,0,0.755,0.271,0.755,0.483c0,0.326-0.376,0.487-0.915,0.487c-3.123,0-6.354-0.161-7.645-0.161
		c-1.075,0-4.309,0.161-6.19,0.161c-0.595,0-0.915-0.161-0.915-0.487c0-0.213,0.163-0.483,0.752-0.483
		c0.699,0,1.24-0.052,1.669-0.163c0.971-0.213,1.238-0.86,1.401-2.206C283.795,80.159,283.795,76.5,283.795,72.083L283.795,72.083z
		 M312.869,64.007v8.076c0,5.868,0,8.775,1.022,9.637c0.808,0.699,2.638,0.97,6.296,0.97c2.534,0,4.363-0.055,5.548-1.291
		c0.594-0.594,1.077-1.888,1.186-2.747c0.053-0.431,0.16-0.702,0.539-0.702c0.323,0,0.431,0.486,0.431,1.025
		c0,0.536-0.325,3.927-0.7,5.273c-0.324,1.025-0.539,1.241-3.017,1.241c-3.392,0-6.136-0.056-8.507-0.163
		c-2.366-0.053-4.359-0.105-6.299-0.105c-0.536,0-1.561,0.053-2.692,0.053c-1.131,0.053-2.313,0.108-3.28,0.108
		c-0.595,0-0.918-0.161-0.918-0.487c0-0.213,0.163-0.483,0.755-0.483c0.699,0,1.238-0.052,1.669-0.163
		c0.968-0.213,1.238-1.073,1.398-2.421c0.216-1.938,0.216-5.544,0.216-9.745v-8.076c0-6.945,0-8.236-0.056-9.69
		c-0.104-1.561-0.536-2.044-2.045-2.476c-0.376-0.108-0.968-0.163-1.562-0.163c-0.536,0-0.807-0.163-0.807-0.484
		c0-0.323,0.323-0.431,1.022-0.431c2.208,0,5.221,0.108,6.515,0.108c1.13,0,5.01-0.108,6.84-0.108c0.699,0,1.021,0.108,1.021,0.431
		c0,0.322-0.27,0.484-0.86,0.484c-0.539,0-1.293,0.055-1.832,0.163c-1.291,0.215-1.667,0.862-1.773,2.476
		C312.869,55.771,312.869,57.063,312.869,64.007L312.869,64.007z M340.005,77.251v-3.77c0-2.477-0.429-3.444-1.078-4.791
		c-0.319-0.698-6.782-10.768-8.452-13.191c-1.183-1.667-2.151-2.745-3.066-3.228c-0.594-0.324-1.398-0.594-1.993-0.594
		c-0.376,0-0.699-0.163-0.699-0.484c0-0.323,0.323-0.431,0.915-0.431c0.809,0,4.361,0.108,5.926,0.108
		c1.021,0,3.229-0.108,5.382-0.108c0.432,0,0.698,0.108,0.698,0.431c0,0.379-0.322,0.379-1.074,0.592
		c-0.379,0.108-0.646,0.324-0.646,0.702c0,0.376,0.216,0.915,0.594,1.562c0.86,1.399,7.051,12.114,7.86,13.404
		c0.589-1.078,6.352-10.875,7.051-12.274c0.486-1.025,0.699-1.83,0.699-2.424c0-0.431-0.213-0.862-1.022-1.022
		c-0.432-0.108-0.858-0.161-0.858-0.54c0-0.323,0.268-0.431,0.805-0.431c1.563,0,3.232,0.108,4.632,0.108
		c1.025,0,4.146-0.108,5.063-0.108c0.537,0,0.859,0.108,0.859,0.378c0,0.321-0.376,0.537-0.915,0.537
		c-0.485,0-1.349,0.215-2.045,0.539c-1.022,0.486-1.454,0.917-2.479,2.153c-1.563,1.83-8.344,12.708-9.206,14.645
		c-0.699,1.669-0.592,3.068-0.592,4.577v3.659c0,0.754,0,2.64,0.107,4.577c0.107,1.348,0.536,2.208,1.939,2.421
		c0.698,0.111,1.72,0.163,2.366,0.163c0.541,0,0.807,0.271,0.807,0.483c0,0.326-0.376,0.487-1.022,0.487
		c-2.96,0-6.136-0.161-7.429-0.161c-1.184,0-4.361,0.161-6.136,0.161c-0.646,0-1.025-0.108-1.025-0.487
		c0-0.213,0.216-0.483,0.752-0.483c0.649,0,1.24-0.052,1.672-0.163c0.971-0.213,1.347-1.073,1.451-2.421
		C340.005,79.891,340.005,78.006,340.005,77.251L340.005,77.251z M388.746,69.77v-9.478c0-8.183,0-9.692-0.107-11.412
		c-0.107-1.833-0.646-2.747-1.833-3.018c-0.591-0.16-1.29-0.215-1.938-0.215c-0.536,0-0.862-0.105-0.862-0.536
		c0-0.324,0.433-0.432,1.294-0.432c2.045,0,5.438,0.163,6.998,0.163c1.346,0,4.521-0.163,6.566-0.163
		c0.705,0,1.131,0.108,1.131,0.432c0,0.431-0.32,0.536-0.856,0.536c-0.542,0-0.974,0.056-1.616,0.164
		c-1.454,0.268-1.886,1.182-1.993,3.07c-0.107,1.719-0.107,3.229-0.107,11.412v9.478c0,5.221,0,9.474,0.216,11.79
		c0.16,1.454,0.539,2.421,2.152,2.637c0.755,0.107,1.938,0.215,2.747,0.215c0.592,0,0.863,0.163,0.863,0.431
		c0,0.378-0.433,0.539-1.026,0.539c-3.554,0-6.945-0.161-8.396-0.161c-1.24,0-4.633,0.161-6.784,0.161
		c-0.699,0-1.075-0.161-1.075-0.539c0-0.269,0.215-0.431,0.859-0.431c0.807,0,1.452-0.108,1.938-0.215
		c1.078-0.216,1.401-1.13,1.563-2.692C388.746,79.244,388.746,74.991,388.746,69.77L388.746,69.77z M414.159,60.453l0.536,18.683
		c0.109,3.554,0.698,4.629,1.613,4.956c0.811,0.269,1.726,0.321,2.478,0.321c0.536,0,0.805,0.216,0.805,0.483
		c0,0.379-0.429,0.487-1.073,0.487c-3.066,0-5.272-0.161-6.136-0.161c-0.431,0-2.69,0.161-5.113,0.161
		c-0.647,0-1.074-0.055-1.074-0.487c0-0.268,0.32-0.483,0.752-0.483c0.646,0,1.507-0.052,2.155-0.215
		c1.235-0.321,1.398-1.562,1.451-5.544l0.432-27.137c0-0.916,0.323-1.559,0.808-1.559c0.591,0,1.238,0.699,2.048,1.506
		c0.591,0.594,7.691,7.86,14.574,14.59c3.226,3.178,9.521,9.638,10.221,10.284l-0.272-20.35c-0.054-2.8-0.48-3.61-1.611-4.038
		c-0.699-0.271-1.827-0.271-2.474-0.271c-0.593,0-0.752-0.216-0.752-0.484c0-0.378,0.482-0.431,1.183-0.431
		c2.474,0,5.011,0.108,6.042,0.108c0.538,0,2.32-0.108,4.637-0.108c0.646,0,1.075,0.053,1.075,0.431
		c0,0.269-0.269,0.484-0.807,0.484c-0.484,0-0.863,0-1.454,0.163c-1.291,0.376-1.67,1.183-1.723,3.77l-0.538,28.854
		c0,1.025-0.38,1.456-0.761,1.456c-0.81,0-1.462-0.487-1.95-0.97c-2.964-2.747-8.881-8.399-13.827-13.188
		c-5.163-4.953-10.166-10.5-11.078-11.31L414.159,60.453L414.159,60.453z M474.302,85.974c-6.462,0-11.953-1.346-16.262-4.953
		c-4.685-3.93-5.92-9.099-5.92-13.512c0-3.124,1.021-8.507,5.544-12.545c3.447-3.015,7.968-4.847,15.021-4.847
		c2.96,0,4.74,0.216,6.892,0.483c1.776,0.271,3.338,0.594,4.736,0.757c0.538,0.052,0.701,0.268,0.701,0.536
		c0,0.379-0.106,0.915-0.216,2.529c-0.106,1.508-0.106,4.041-0.163,4.955c-0.053,0.644-0.216,1.13-0.644,1.13
		c-0.379,0-0.486-0.376-0.486-0.97c-0.053-1.451-0.644-3.067-1.83-4.253c-1.614-1.562-4.792-2.692-9.153-2.692
		c-4.143,0-6.781,0.757-8.936,2.587c-3.501,3.013-4.361,7.429-4.361,11.898c0,10.874,8.399,16.042,14.751,16.042
		c4.2,0,6.515-0.321,8.401-2.421c0.805-0.915,1.451-2.205,1.614-3.067c0.106-0.7,0.215-0.916,0.591-0.916
		c0.324,0,0.54,0.432,0.54,0.805c0,0.542-0.54,4.524-1.023,6.086c-0.215,0.807-0.431,1.023-1.236,1.346
		C480.978,85.706,477.37,85.974,474.302,85.974L474.302,85.974z M496.054,72.083v-8.076c0-6.945,0-8.236-0.056-9.69
		c-0.105-1.561-0.536-2.044-2.042-2.476c-0.379-0.108-1.188-0.163-1.888-0.163c-0.484,0-0.809-0.163-0.809-0.484
		c0-0.323,0.376-0.431,1.078-0.431c2.478,0,5.491,0.108,6.838,0.108c1.506,0,12.006,0.055,12.92,0
		c0.86-0.055,1.614-0.216,1.993-0.271c0.269-0.053,0.536-0.213,0.752-0.213c0.271,0,0.323,0.213,0.323,0.429
		c0,0.326-0.268,0.862-0.376,2.962c-0.055,0.487-0.163,2.479-0.271,3.015c-0.053,0.216-0.16,0.752-0.535,0.752
		c-0.323,0-0.38-0.216-0.38-0.589c0-0.326-0.053-1.132-0.32-1.672c-0.378-0.804-0.754-1.451-3.122-1.667
		c-0.809-0.111-6.462-0.216-7.434-0.216c-0.213,0-0.322,0.161-0.322,0.431v11.304c0,0.271,0.056,0.484,0.322,0.484
		c1.078,0,7.218,0,8.294-0.105c1.13-0.108,1.83-0.216,2.262-0.7c0.377-0.323,0.537-0.594,0.753-0.594
		c0.215,0,0.379,0.215,0.379,0.484c0,0.271-0.108,1.025-0.379,3.338c-0.108,0.916-0.216,2.745-0.216,3.071
		c0,0.375-0.054,1.021-0.484,1.021c-0.322,0-0.431-0.163-0.431-0.376c-0.054-0.487-0.054-1.078-0.16-1.672
		c-0.271-0.916-0.862-1.614-2.637-1.777c-0.862-0.105-6.246-0.213-7.433-0.213c-0.216,0-0.271,0.213-0.271,0.484v3.662
		c0,1.561-0.054,5.436,0,6.782c0.109,3.123,1.562,3.823,6.408,3.823c1.238,0,3.229-0.053,4.47-0.591
		c1.184-0.539,1.723-1.506,2.046-3.394c0.107-0.484,0.216-0.7,0.536-0.7c0.378,0,0.432,0.595,0.432,1.078
		c0,1.025-0.376,4.146-0.645,5.061c-0.323,1.186-0.754,1.186-2.532,1.186c-3.554,0-6.406-0.056-8.722-0.163
		c-2.313-0.053-4.092-0.105-5.489-0.105c-0.541,0-1.564,0.053-2.694,0.053c-1.131,0.053-2.313,0.108-3.283,0.108
		c-0.592,0-0.915-0.161-0.915-0.487c0-0.213,0.16-0.483,0.752-0.483c0.701,0,1.24-0.052,1.67-0.163
		c0.971-0.213,1.237-1.073,1.4-2.421C496.054,79.891,496.054,76.284,496.054,72.083L496.054,72.083z M526.798,72.083v-8.076
		c0-6.945,0-8.236-0.053-9.69c-0.107-1.561-0.539-2.044-2.048-2.476c-0.376-0.108-1.184-0.163-1.883-0.163
		c-0.485,0-0.811-0.163-0.811-0.484c0-0.323,0.376-0.431,1.079-0.431c2.476,0,5.49,0.108,6.837,0.108
		c1.938,0,5.707-0.108,7.86-0.108c5.923,0,8.075,1.94,8.827,2.586c1.024,0.967,2.371,3.013,2.371,5.49
		c0,6.461-5.169,11.09-11.897,11.09c-0.216,0-1.187,0-1.401-0.055c-0.269,0-0.591-0.158-0.591-0.484
		c0-0.376,0.538-0.591,1.562-0.591c2.637,0,6.354-2.747,6.354-7.429c0-1.506-0.163-4.524-2.8-6.785
		c-1.726-1.507-3.662-1.722-4.74-1.722c-0.699,0-1.613,0.052-2.045,0.215c-0.271,0.107-0.378,0.376-0.378,0.86v18.145
		c0,4.201,0,7.808,0.218,9.8c0.16,1.293,0.43,2.153,1.83,2.366c0.698,0.111,1.722,0.163,2.423,0.163
		c0.536,0,0.752,0.271,0.752,0.483c0,0.326-0.376,0.487-0.858,0.487c-3.179,0-6.519-0.161-7.755-0.161
		c-1.076,0-4.092,0.161-5.977,0.161c-0.591,0-0.915-0.161-0.915-0.487c0-0.213,0.16-0.483,0.755-0.483
		c0.699,0,1.238-0.052,1.669-0.163c0.968-0.213,1.236-1.073,1.398-2.421C526.798,79.891,526.798,76.284,526.798,72.083
		L526.798,72.083z M565.993,72.094V53.587l-7.053,0.163c-2.744,0.052-3.875,0.375-4.574,1.398c-0.485,0.647-0.701,1.236-0.811,1.562
		c-0.104,0.373-0.216,0.589-0.536,0.589c-0.322,0-0.431-0.268-0.431-0.752c0-0.752,0.914-5.184,1.022-5.568
		c0.106-0.592,0.269-0.862,0.539-0.862c0.376,0,0.858,0.378,2.045,0.542c1.397,0.163,3.175,0.216,4.736,0.216h19.206
		c1.501,0,2.523-0.108,3.225-0.219c0.754-0.108,1.138-0.213,1.303-0.213c0.332,0,0.385,0.269,0.385,0.967
		c0,0.967-0.11,4.361-0.11,5.568c-0.053,0.483-0.162,0.751-0.438,0.751c-0.384,0-0.494-0.215-0.55-0.915l-0.053-0.484
		c-0.107-1.183-1.344-2.581-5.59-2.634l-5.962-0.11v18.507c0,4.195,0.054,7.799,0.27,9.79c0.159,1.293,0.428,2.153,1.827,2.369
		c0.644,0.108,1.719,0.16,2.416,0.16c0.537,0,0.754,0.271,0.754,0.483c0,0.326-0.376,0.487-0.912,0.487
		c-3.118,0-6.29-0.161-7.641-0.161c-1.074,0-4.306,0.161-6.189,0.161c-0.592,0-0.915-0.161-0.915-0.487
		c0-0.213,0.163-0.483,0.754-0.483c0.7,0,1.292-0.052,1.67-0.16c0.967-0.216,1.238-1.076,1.398-2.421
		C565.993,79.893,565.993,76.289,565.993,72.094L565.993,72.094z M594.586,72.083v-8.076c0-6.945,0-8.236-0.053-9.69
		c-0.108-1.561-0.594-2.1-1.617-2.423c-0.536-0.16-1.131-0.215-1.722-0.215c-0.484,0-0.754-0.105-0.754-0.537
		c0-0.271,0.378-0.378,1.13-0.378c1.776,0,5.008,0.108,6.354,0.108c1.185,0,4.254-0.108,6.083-0.108
		c0.592,0,0.972,0.108,0.972,0.378c0,0.431-0.271,0.537-0.756,0.537c-0.482,0-0.861,0.055-1.399,0.163
		c-1.291,0.215-1.667,0.862-1.775,2.476c-0.106,1.454-0.106,2.746-0.106,9.69v8.076c0,4.417,0,8.075,0.216,10.015
		c0.16,1.236,0.482,1.938,1.882,2.151c0.646,0.111,1.725,0.163,2.424,0.163c0.539,0,0.754,0.271,0.754,0.483
		c0,0.326-0.378,0.487-0.914,0.487c-3.123,0-6.354-0.161-7.646-0.161c-1.075,0-4.307,0.161-6.188,0.161
		c-0.594,0-0.915-0.161-0.915-0.487c0-0.213,0.16-0.483,0.752-0.483c0.699,0,1.238-0.052,1.67-0.163
		c0.969-0.213,1.238-0.86,1.398-2.206C594.586,80.159,594.586,76.5,594.586,72.083L594.586,72.083z M630.984,85.974
		c-13.786,0-19.384-9.798-19.384-17.929c0-7.808,5.492-17.928,19.866-17.928c11.953,0,19.38,6.625,19.38,17.122
		C650.848,77.735,643.203,85.974,630.984,85.974L630.984,85.974z M632.922,83.498c3.339,0,10.876-1.562,10.876-14.591
		c0-10.121-6.083-16.367-13.728-16.367c-5.279,0-11.472,2.8-11.472,14.106C618.6,76.068,623.983,83.498,632.922,83.498
		L632.922,83.498z M662.912,60.453l0.538,18.683c0.107,3.554,0.7,4.629,1.615,4.956c0.805,0.269,1.719,0.321,2.474,0.321
		c0.535,0,0.807,0.216,0.807,0.483c0,0.379-0.431,0.487-1.074,0.487c-3.067,0-5.273-0.161-6.137-0.161
		c-0.431,0-2.69,0.161-5.112,0.161c-0.646,0-1.078-0.055-1.078-0.487c0-0.268,0.323-0.483,0.755-0.483
		c0.646,0,1.509-0.052,2.152-0.215c1.238-0.321,1.401-1.562,1.453-5.544l0.433-27.137c0-0.916,0.323-1.559,0.807-1.559
		c0.592,0,1.238,0.699,2.046,1.506c0.594,0.594,7.691,7.86,14.577,14.59c3.229,3.178,9.52,9.638,10.218,10.284l-0.268-20.35
		c-0.056-2.8-0.484-3.61-1.612-4.038c-0.701-0.271-1.829-0.271-2.477-0.271c-0.592,0-0.754-0.216-0.754-0.484
		c0-0.378,0.485-0.431,1.186-0.431c2.474,0,5.011,0.108,6.039,0.108c0.541,0,2.323-0.108,4.64-0.108
		c0.646,0,1.075,0.053,1.075,0.431c0,0.269-0.269,0.484-0.808,0.484c-0.483,0-0.861,0-1.453,0.163
		c-1.291,0.376-1.67,1.183-1.722,3.77l-0.539,28.854c0,1.025-0.379,1.456-0.761,1.456c-0.813,0-1.462-0.487-1.95-0.97
		c-2.962-2.747-8.88-8.399-13.827-13.188c-5.163-4.953-10.163-10.5-11.078-11.31L662.912,60.453L662.912,60.453z"/>
</g>
</svg>
