<?xml version="1.0" encoding="utf-8"?>
<!-- Generator: Adobe Illustrator 16.0.0, SVG Export Plug-In . SVG Version: 6.00 Build 0)  -->
<!DOCTYPE svg PUBLIC "-//W3C//DTD SVG 1.1//EN" "http://www.w3.org/Graphics/SVG/1.1/DTD/svg11.dtd">
<svg version="1.1" id="Layer_1" xmlns="http://www.w3.org/2000/svg" xmlns:xlink="http://www.w3.org/1999/xlink" x="0px" y="0px"
	 width="172px" height="166.667px" viewBox="0 0 172 166.667" enable-background="new 0 0 172 166.667" xml:space="preserve">
<path fill="#A7A9AC" d="M54.224,149.039c8.371,3.521,17.566,5.467,27.215,5.467c31.349,0,57.899-20.531,66.942-48.879
	c-7.858,31.771-36.555,55.324-70.755,55.324c-8.853,0-17.338-1.578-25.188-4.469C52.628,153.943,53.333,151.405,54.224,149.039
	 M4.743,88.067c0-34.199,23.554-62.897,55.325-70.754c-28.349,9.042-48.88,35.594-48.88,66.941c0,23.74,11.775,44.729,29.803,57.446
	c-0.912,2.462-1.729,5.095-2.436,7.904C18.229,136.673,4.743,113.945,4.743,88.067"/>
<path fill="#76B7B7" d="M56.071,36.524c-7.257,21.343,26.418,48.011,11.12,74.935c-2.958,2.755-8.908,8.528-13.495,13.017
	c-6.051-12.754-12.748-44.404-10.374-64.204c-7.92,22.32-3.762,51.588,5.038,69.459l-0.539,0.54
	C18.682,110.877,13.616,58.585,56.071,36.524"/>
<path fill="#DD5841" d="M75.388,105.654c0.238-11.582-3.722-36.373,19.395-55.068c14.186-11.472,43.848-15.724,74.163-9.127
	c-9.007,9.511-33.981,64.825-80.436,53.123c3.192-35.889,37.55-47.276,64.431-49.47c-35.54,0.212-70.841,5.002-70.772,59.008
	C80.118,104.547,76.836,104.98,75.388,105.654"/>
<path fill="#DD5841" d="M89.813,19.016c-2.624,2.624-6.877,2.624-9.501,0.002c-2.623-2.622-2.623-6.875,0-9.498
	c2.624-2.624,6.877-2.625,9.501-0.002C92.437,12.14,92.437,16.393,89.813,19.016"/>
<path fill="#DD5841" d="M131.946,104.353c-7.264,21.634-39.313,42.801-72.299,32.808c14.55-21.802,49.644-15.439,62.933-25.702
	c-17.078,10.079-63.608-2.826-74.726,43.154c-1.818-0.813-3.596-1.701-5.331-2.656c3.815-17.824,14.314-28.75,24.427-35.69
	C91.084,99.704,122.46,109.188,131.946,104.353"/>
<path fill="#DD5841" d="M62.611,15.689c24.658,8.712,25.894,37.401,11.597,50.115l-0.338-0.235
	c3.409-10.342,3.436-26.511-2.552-37.996c2.778,10.487,1.586,28.012-0.698,35.437C52.559,47.035,67.851,26.072,62.611,15.689"/>
<path fill="#76B7B7" d="M128.898,3.291c2.399,21.097-12.547,42.553-37.961,40.461c3.612-6.854,15.188-20.129,24.584-25.59
	c-12.354,3.887-23.769,15.339-28.671,25.063l-0.406-0.073C85.269,8.594,125.417,17.927,128.898,3.291"/>
</svg>
