<?xml version="1.0" encoding="utf-8"?>
<!-- Generator: Adobe Illustrator 16.0.0, SVG Export Plug-In . SVG Version: 6.00 Build 0)  -->
<!DOCTYPE svg PUBLIC "-//W3C//DTD SVG 1.1//EN" "http://www.w3.org/Graphics/SVG/1.1/DTD/svg11.dtd">
<svg version="1.1" id="Layer_1" xmlns="http://www.w3.org/2000/svg" xmlns:xlink="http://www.w3.org/1999/xlink" x="0px" y="0px"
	 width="40px" height="40px" viewBox="5 5 40 40" enable-background="new 5 5 40 40" xml:space="preserve">
<rect x="5" y="5" fill="#FFFFFF" width="40" height="40"/>
<g>
	<path fill="#6D6D6D" d="M39.723,16.155c-1.062,0.471-2.201,0.79-3.399,0.933c1.223-0.733,2.161-1.893,2.604-3.276
		c-1.144,0.679-2.411,1.171-3.76,1.437c-1.08-1.151-2.619-1.87-4.321-1.87c-3.271,0-5.92,2.651-5.92,5.92
		c0,0.464,0.051,0.916,0.152,1.35c-4.92-0.247-9.282-2.605-12.202-6.186c-0.51,0.874-0.803,1.891-0.803,2.976
		c0,2.054,1.045,3.867,2.635,4.929c-0.972-0.031-1.884-0.297-2.682-0.741c-0.001,0.024-0.001,0.05-0.001,0.074
		c0,2.87,2.041,5.263,4.75,5.807c-0.496,0.135-1.02,0.208-1.56,0.208c-0.382,0-0.752-0.036-1.114-0.106
		c0.753,2.353,2.94,4.063,5.53,4.111c-2.025,1.59-4.579,2.535-7.352,2.535c-0.479,0-0.949-0.029-1.413-0.085
		c2.62,1.683,5.732,2.661,9.076,2.661c10.89,0,16.845-9.021,16.845-16.846c0-0.256-0.006-0.512-0.02-0.766
		C37.926,18.387,38.93,17.344,39.723,16.155L39.723,16.155z"/>
</g>
</svg>
