<?xml version="1.0" encoding="utf-8"?>
<!-- Generator: Adobe Illustrator 16.0.0, SVG Export Plug-In . SVG Version: 6.00 Build 0)  -->
<!DOCTYPE svg PUBLIC "-//W3C//DTD SVG 1.1//EN" "http://www.w3.org/Graphics/SVG/1.1/DTD/svg11.dtd">
<svg version="1.1" id="Layer_1" xmlns="http://www.w3.org/2000/svg" xmlns:xlink="http://www.w3.org/1999/xlink" x="0px" y="0px"
	 width="14px" height="20px" viewBox="0 0 14 20" enable-background="new 0 0 14 20" xml:space="preserve">
<rect x="-0.333" display="none" fill="#FF0000" width="15.083" height="20"/>
<path display="none" d="M1.304,7.833c-0.551,0-0.999,0.417-0.999,0.93v10.308C0.305,19.584,0.752,20,1.304,20h11.392
	c0.552,0,0.999-0.416,0.999-0.929V8.763c0-0.513-0.447-0.93-0.999-0.93H1.304z M5.313,11.671
	C5.638,11.126,5.163,11.922,5.313,11.671L5.313,11.671z M5.313,11.671"/>
<path fill="#FFFFFF" d="M3.81,4.828c0-1.759,1.431-3.19,3.19-3.19c1.761,0,3.191,1.431,3.191,3.19v2.53h1.32v-2.53
	c0-2.487-2.024-4.511-4.512-4.511S2.489,2.341,2.489,4.828v2.53H3.81V4.828z M3.81,4.828"/>
<path fill="#FFFFFF" d="M0.069,7.982V20h13.863V7.982H0.069z M6.453,16.333L3.864,13.81l0.933-0.911l1.655,1.612l2.464-2.404
	l0.936,0.91L6.453,16.333z M6.453,16.333"/>
</svg>
