<?xml version="1.0" encoding="utf-8"?>
<!-- Generator: Adobe Illustrator 16.0.0, SVG Export Plug-In . SVG Version: 6.00 Build 0)  -->
<!DOCTYPE svg PUBLIC "-//W3C//DTD SVG 1.1//EN" "http://www.w3.org/Graphics/SVG/1.1/DTD/svg11.dtd">
<svg version="1.1" id="Layer_1" xmlns="http://www.w3.org/2000/svg" xmlns:xlink="http://www.w3.org/1999/xlink" x="0px" y="0px"
	 width="30px" height="17px" viewBox="0 0 30 17" enable-background="new 0 0 30 17" xml:space="preserve">
<g>
	<path fill="#DE5841" d="M5.17,3.452L5.17,3.452C5.17,3.439,5.17,3.452,5.17,3.452z"/>
	<path fill="#DE5841" d="M3.901,2.56c0.064,0.029,0.083,0,0.13-0.065c0.052-0.06,0.042-0.073,0.071-0.12
		C4.13,2.334,4.254,2.258,4.254,2.258v0.07v0.12l0.072,0.094v0.083v0.083c0,0,0.052,0,0.146,0c0.095,0,0.178,0,0.178,0
		s0.005,0.094,0.005,0.148c0,0.052-0.125,0-0.125,0S4.449,2.885,4.407,2.936c-0.041,0.055,0,0-0.005,0.073c-0.005,0.07,0,0,0,0.041
		c0,0.042,0.184,0.071,0.184,0.071l0.125,0.083l0.052,0.005h0.242L5.17,3.204l0.095-0.119l0.196,0.007c0,0,0.099,0.094,0.176,0.118
		c0.07,0.023,0.208,0,0.208,0h0.13c0.07,0,0.035-0.118-0.143-0.1C5.656,3.115,5.856,3.056,5.827,3.009
		C5.796,2.955,5.745,2.944,5.745,2.944l-0.12-0.102V2.791v-0.06L5.567,2.606l-0.13-0.101L5.413,2.357c0,0-0.029-0.058-0.024-0.154
		C5.396,2.11,5.413,2.152,5.419,2.074c0.005-0.083-0.007-0.13-0.007-0.13H5.348l-0.13,0.083l-0.052,0.07v0.096L5.17,2.246
		c0,0,0.006,0.071,0.013,0.148C5.176,2.37,5.147,2.357,5.124,2.3C5.094,2.228,4.846,2.134,4.846,2.134l-0.16-0.06l-0.07-0.13H4.491
		c0,0-0.084-0.042-0.1-0.101C4.366,1.786,4.36,1.773,4.36,1.773S4.195,1.75,4.083,1.661c-0.117-0.096-0.099,0-0.099,0h-0.12
		c0,0-0.041,0-0.054,0.042c-0.005,0.041-0.028,0.07-0.028,0.07l0.023,0.07l0.041,0.13l-0.07,0.101L3.735,2.323l0.041,0.166
		C3.782,2.477,3.841,2.529,3.901,2.56z"/>
	<path fill="#DE5841" d="M7.292,4.226c0,0,0.067-0.041,0.073,0c0.005,0.041,0.06,0.088,0.06,0.088s0.099,0.06,0.099-0.011
		c0-0.072-0.034-0.142-0.034-0.142l-0.101-0.06L7.322,4.073c0,0-0.07-0.012-0.088-0.031C7.222,4.037,7.169,4.014,7.169,4.014
		S6.949,4.055,7.015,4.22c0.066,0.154,0.066,0.237,0.155,0.219c0,0-0.023-0.083,0.041-0.129C7.281,4.255,7.292,4.226,7.292,4.226z"
		/>
	<path fill="#DE5841" d="M8.486,4.267l0.059,0.006c0,0,0.06,0.037,0.065,0.054c0.005,0.011,0.036,0.058,0.036,0.058
		s0.029,0.03,0.088,0.03c0.054,0,0.119,0,0.119,0s0.024-0.023,0.029-0.071C8.888,4.291,8.854,4.22,8.854,4.22S8.823,4.167,8.8,4.148
		C8.776,4.125,8.735,4.084,8.735,4.084s-0.023-0.035-0.023-0.06c0-0.024-0.06-0.071-0.083-0.1c-0.023-0.03-0.052-0.071-0.083-0.101
		C8.517,3.795,8.452,3.8,8.452,3.8S8.369,3.735,8.309,3.718c-0.06-0.013-0.117,0-0.117,0S8.138,3.753,8.125,3.842
		C8.114,3.931,8.067,3.967,8.067,3.967L7.956,3.978c0,0-0.12-0.042-0.208,0.036C7.665,4.096,7.694,4.143,7.725,4.162
		c0.029,0.011,0.094,0.011,0.094,0.011L7.93,4.143c0.06-0.083,0.143-0.036,0.143-0.036l0.102,0.088l0.07,0.091l0.06,0.088
		c0,0,0.07,0.117,0.207,0.182c0.13,0.073,0.147,0,0.147,0L8.652,4.491c0,0-0.023-0.023-0.125-0.088
		c-0.099-0.07-0.023-0.029-0.034-0.035C8.48,4.361,8.452,4.333,8.452,4.304C8.47,4.267,8.486,4.267,8.486,4.267z"/>
	<path fill="#DE5841" d="M7.653,2.388c-0.182,0-0.206-0.013-0.206-0.013V2.341V2.276c0,0,0.029,0.005,0.029-0.09
		c0-0.094-0.029-0.154-0.029-0.154L7.346,1.95c0,0-0.102,0.007-0.112,0c-0.008-0.005-0.042,0-0.042,0s0.005,0.031,0,0.06
		c-0.006,0.023,0,0.06,0,0.06S7.073,2.281,7.05,2.11c-0.024-0.166,0.125-0.212,0-0.189S6.772,1.985,6.743,2.116
		C6.712,2.258,6.684,2.536,6.778,2.63c0.096,0.101,0.119,0.153,0.119,0.153s-0.07,0.012,0.071,0.065
		C7.11,2.908,7.18,2.908,7.252,2.908c0.081-0.005,0.182-0.029,0.182-0.029l0.195-0.059c0,0,0.013-0.088,0.166,0.125
		C7.948,3.162,8.109,3.286,8.109,3.31s0.07,0.125,0.07,0.125s0.029,0.052,0.036,0.07c0.011,0.023,0.065,0.06,0.065,0.06
		S8.268,3.575,8.338,3.605C8.41,3.635,8.462,3.658,8.462,3.658l0.114,0.083c0,0,0-0.011,0.099-0.023c0.096-0.005,0.13,0,0.13,0
		s0.023,0.111,0.023,0.148v0.094c0,0,0.031,0.101,0.042,0.083c0.013-0.023,0.023-0.059,0.143-0.153s0.159-0.07,0.119-0.167
		C9.09,3.629,8.818,3.541,8.753,3.458c-0.06-0.083-0.071-0.023-0.161-0.143C8.504,3.204,8.48,3.133,8.48,3.133L8.379,3.009
		c0,0,0-0.124,0.036-0.195c0.036-0.072-0.011-0.065-0.011-0.065S8.393,2.76,8.291,2.801c-0.094,0.036-0.141,0-0.141,0L8.12,2.749
		L7.996,2.606l-0.094-0.06L7.865,2.435V2.323c0,0-0.083-0.023-0.094-0.023c-0.005,0-0.054,0-0.054,0S7.836,2.388,7.653,2.388z"/>
	<path fill="#DE5841" d="M6.076,1.856L5.98,1.851l-0.06-0.025L5.869,1.851L5.833,1.916L5.798,2.004L5.731,2.039v0.118v0.13
		l0.036,0.088c0,0,0.037,0.089,0.143,0.131c0.1,0.036,0.195-0.118,0.195-0.148c0.005-0.029,0-0.088,0-0.088l-0.06-0.118
		c-0.029-0.06-0.005-0.208-0.005-0.208L6.076,1.856z"/>
	<path fill="#DE5841" d="M6.181,0.887v0.082l0.054,0.023c0,0,0.052,0.026,0.083,0.055c0.029,0.023,0.125,0.059,0.125,0.059
		l0.042,0.083v0.099c0,0,0,0.12,0,0.148c0,0.031,0.034,0.054,0.052,0.065c0.013,0.007,0.065,0.041,0.065,0.041
		s0.042,0.037,0.06,0.06c0.011,0.024,0.213,0.065,0.213,0.065h0.13c0,0,0.036,0.023,0.348,0C7.665,1.643,7.546,1.443,7.53,1.33
		c-0.025-0.118-0.267-0.13-0.267-0.13L7.045,1.264L6.961,1.3L6.814,1.246L6.772,1.194c0,0-0.029-0.065-0.042-0.129
		c-0.011-0.065,0-0.013,0-0.013V1.028L6.696,0.992L6.5,0.898l-0.082-0.07c0,0-0.042-0.013-0.09-0.042
		c-0.042-0.031-0.024,0.005-0.065,0c-0.042-0.007,0,0-0.07,0.042C6.11,0.869,6.181,0.887,6.181,0.887z"/>
	<path fill="#DE5841" d="M5.614,1.253l0.125,0.057l0.035,0.037l0.025,0.101c0.034,0.034,0.159,0,0.159,0s0.094-0.023,0.125-0.054
		C6.11,1.365,6.116,1.36,6.116,1.36V1.246c0,0-0.028-0.023-0.052-0.034c-0.029-0.013,0-0.06,0-0.096c0-0.034-0.005-0.034,0-0.065
		c0.005-0.023,0-0.06,0-0.088S6.022,0.898,6.022,0.898H5.934L5.851,0.927L5.75,0.981H5.715l-0.13,0.023l-0.036,0.13
		c0,0,0.024,0.024,0.036,0.037C5.573,1.189,5.614,1.253,5.614,1.253z"/>
	<path fill="#DE5841" d="M6.294,1.334C6.3,1.425,6.24,1.454,6.193,1.466v0.052l0.052,0.083h0.072h0.042l0.042-0.088V1.347
		L6.359,1.253L6.347,1.218C6.336,1.218,6.287,1.241,6.294,1.334z"/>
	<path fill="#DE5841" d="M4.031,1.134l0.224-0.036h0.023H4.35c0,0,0.081,0.067,0.099,0.083c0.024,0.012-0.005,0.059-0.005,0.059
		L4.415,1.3c0,0-0.024,0.06-0.031,0.083C4.378,1.407,4.467,1.472,4.467,1.472s0.083,0.005,0.095,0
		c0.011-0.005,0.088,0.053,0.088,0.053v0.03c0,0,0,0.071,0,0.094c0,0.024,0.035,0,0.035,0s0.119,0.005,0.142,0
		c0.024-0.005,0.131-0.065,0.131-0.065l0.03-0.052l0.035-0.024c0,0,0.059-0.007,0.13,0c0.072,0.005,0.129,0,0.129,0l0.096-0.119
		c0.042-0.059,0.024-0.13,0.024-0.13s-0.024-0.023-0.06-0.06c-0.034-0.034-0.064,0-0.083,0c-0.011,0-0.034-0.01-0.042-0.117
		c-0.005-0.101,0,0-0.023-0.042C5.17,1.004,5.17,0.981,5.16,0.922c-0.007-0.06-0.09-0.065-0.09-0.065S5.035,0.869,5.012,0.893
		C4.988,0.916,4.988,0.992,4.988,0.992l0.005,0.09l0.023,0.094c0,0,0.06,0.083,0.065,0.101C5.088,1.3,5.046,1.318,5.046,1.318
		L4.929,1.342c0,0-0.037-0.023-0.042-0.036c-0.005-0.023-0.013-0.07-0.036-0.153c-0.024-0.07-0.06-0.059-0.06-0.059L4.727,1.082
		c0,0-0.064,0-0.123,0c-0.059,0-0.09-0.031-0.09-0.031L4.479,1.028c0,0-0.023-0.01-0.035-0.036c-0.006-0.023,0-0.07,0-0.07
		s0.023-0.011,0.07-0.167C4.568,0.61,4.521,0.727,4.521,0.727V0.698l-0.03-0.059h-0.06c0,0-0.13,0.041-0.195,0.07
		C4.171,0.739,4.153,0.797,4.153,0.797s0,0.054-0.123,0.119c-0.125,0.06-0.114,0.166-0.114,0.166L4.031,1.134z"/>
	<path fill="#DE5841" d="M7.039,1l0.024-0.013l0.099-0.06c0,0,0.083,0,0.101,0c0.023,0,0.101,0.013,0.148,0.036
		C7.453,0.987,7.4,0.922,7.482,1c0.087,0.07,0.142,0.065,0.142,0.065s0.054-0.031,0.088-0.089c0.037-0.06,0-0.155,0-0.155
		L7.564,0.691L7.482,0.633L7.317,0.568c-0.073,0.011-0.101,0.024-0.12,0.029C7.187,0.602,7.187,0.602,7.187,0.602L7.063,0.626
		L7.039,0.508L6.92,0.473H6.897v0.054v0.071c0,0,0.052,0.088,0.023,0.117C6.892,0.75,6.855,0.755,6.855,0.755
		s-0.07,0.042-0.088,0.073C6.743,0.851,6.736,0.887,6.736,0.887s0.025,0.029,0.031,0.04C6.785,0.963,6.91,1.098,7.039,1z"/>
	<path fill="#DE5841" d="M13.411,6.124c0.212-0.042,0.111-0.143,0.111-0.143l0.007-0.112l0.006-0.095l0.117-0.005
		c0,0,0.142,0.06,0.064,0.125c-0.083,0.064-0.088,0.142-0.088,0.142s-0.011,0.271,0.16,0.218h0.164h0.036V6.218l0.101-0.07V6.051
		v-0.07c0,0-0.065-0.065-0.088-0.129c-0.023-0.065-0.072-0.177-0.072-0.177l-0.159-0.213V5.396v-0.09V5.241V5.19l-0.023-0.053
		L13.8,5.042l0.042-0.125c0,0-0.023-0.065-0.166,0.148c-0.154,0.212-0.242,0.165-0.271,0.212c-0.031,0.042-0.036,0.154,0.034,0.195
		c0.083,0.042,0.042,0.161-0.058,0.178c-0.101,0.011-0.22,0.188-0.207,0.278C13.215,5.994,13.192,6.165,13.411,6.124z"/>
	<path fill="#DE5841" d="M12.442,3.795c-0.06,0.023-0.096,0.058-0.096,0.058s-0.083,0.013-0.083-0.034
		c0-0.06-0.058-0.083-0.058-0.083l-0.113,0.011l-0.07,0.125l0.041,0.083l0.095,0.037l0.03,0.125c0,0-0.023,0.034,0.112,0.158
		c0.13,0.125,0.55-0.208,0.55-0.208C12.925,3.611,12.5,3.772,12.442,3.795z"/>
	<path fill="#DE5841" d="M26.606,13.119l-0.079-0.052l-0.024-0.059c0,0-0.094-0.051-0.127-0.059c-0.033-0.006,0-0.09,0-0.09
		s-0.007-0.039-0.033-0.067c-0.024-0.03-0.064-0.059-0.064-0.059l-0.035-0.039l-0.029-0.029c0,0-0.099-0.035-0.102-0.062
		c-0.011-0.021-0.054-0.173-0.054-0.173l-0.064-0.043l-0.103-0.188l-0.071-0.218l-0.079,0.124v0.078v0.217l-0.058,0.151
		l-0.091-0.043c0,0-0.011-0.067-0.118-0.067s-0.179-0.085-0.146-0.163c0.038-0.079,0.015-0.065,0.015-0.065s0.011-0.04,0-0.101
		c-0.015-0.059-0.064-0.033-0.123-0.033c-0.061,0-0.158,0-0.158,0h-0.126h-0.091l-0.007,0.127l-0.058,0.068l-0.086-0.004
		l-0.066-0.043H24.54l-0.12,0.111l-0.18,0.196l-0.094,0.089l-0.062,0.131c0,0,0,0-0.364,0.094c-0.369,0.094-0.295,0.372-0.295,0.372
		v0.082l0.067,0.147l0.098,0.224l0.051,0.142c-0.022,0.129-0.102,0.215,0,0.316c0.094,0.099,0.129-0.062,0.302-0.062
		c0.168,0.005,0.08,0.062,0.484-0.129c0.404-0.191,0.729,0,0.729,0l0.101,0.19l0.039,0.008l0.112,0.036c0,0,0.088,0.015,0.102,0.035
		c0.013,0.015,0.021,0.029,0.029,0.059c0.006,0.032,0.015,0.062,0.015,0.072c0,0.015,0.021,0.035,0.021,0.062
		c0,0.01,0.101,0.097,0.101,0.097s0.08,0.032,0.094,0.025c0.011-0.004,0.102-0.025,0.102-0.025h0.123h0.035c0,0,0.064,0,0.12,0
		c0.053,0,0.039,0,0.081-0.029c0.04-0.028,0.08,0.009,0.112,0c0.029-0.003,0.066-0.064,0.066-0.064l0.032-0.094l0.032-0.181
		c0,0,0,0,0.161-0.237c0.166-0.237,0.087-0.715,0.087-0.715L26.606,13.119z"/>
	<path fill="#DE5841" d="M26.151,14.73h-0.1c-0.103,0.027-0.04,0.194-0.04,0.194c0.011,0.158,0.256,0.148,0.296,0.025
		C26.332,14.824,26.151,14.73,26.151,14.73z"/>
	<path fill="#DE5841" d="M28.635,14.314c-0.037-0.028-0.102-0.064-0.102-0.064l-0.094-0.058l-0.059-0.026h-0.1l-0.022,0.04
		c0,0,0.072,0.101,0.101,0.127c0.029,0.032,0.052,0.054,0.052,0.082c0.007,0.037,0.024,0.087,0.024,0.094
		c0,0.008,0.024,0.029-0.037,0.095c-0.06,0.065-0.094,0.127-0.094,0.127l-0.081,0.067l-0.101,0.127l-0.038,0.061v0.051l-0.082,0.022
		l-0.059,0.032l-0.035,0.028l-0.103,0.101c0,0,0.009,0.032,0,0.059c-0.003,0.024,0,0.062,0,0.062l0.062,0.05
		c0,0-0.006-0.003,0.037,0c0.033,0.014,0.051,0.014,0.109,0c0.061-0.003,0.07-0.028,0.115-0.05c0.035-0.03,0.058-0.072,0.058-0.072
		s0.057-0.021,0.036-0.045c-0.017-0.021,0-0.029,0-0.056c0-0.029,0-0.059,0-0.059l0.063-0.058l0.037-0.062l0.035-0.1l0.052-0.03
		l0.118-0.083c0,0,0.054,0.007,0.068-0.042c0.025-0.053,0.037-0.103,0.037-0.103l0.061-0.108v-0.126
		C28.7,14.379,28.67,14.339,28.635,14.314z"/>
	<path fill="#DE5841" d="M11.094,11.485l-0.072-0.043L10.91,11.36c0,0-0.064,0.028-0.101,0c-0.034-0.03-0.071,0-0.071,0
		l-0.165-0.012l-0.125-0.115l-0.183-0.1h-0.06h-0.088l-0.096,0.115c0,0-0.294,0.072-0.265-0.115
		c0.029-0.188,0.112-0.175,0.112-0.175s0.06-0.114-0.071-0.216c-0.129-0.099-0.176-0.131-0.176-0.131H9.438l-0.125-0.078
		l-0.101-0.091l-0.024-0.064L9.013,10.34h-0.06l-0.094-0.102c0,0-0.07,0.021-0.101,0c-0.029-0.025-0.147,0-0.147,0l-0.1-0.007
		l-0.095-0.112l-0.094-0.04H8.291H8.203l-0.16,0.065l-0.129,0.021l-0.042,0.036l-0.101,0.1l-0.064,0.074v0.028
		c-0.06,0-0.189,0.004-0.189,0.004H7.364c0,0-0.143-0.013-0.125-0.032c0.013-0.016-0.112-0.097-0.112-0.123c0-0.007,0-0.067,0-0.094
		c0-0.021,0.065-0.094,0.065-0.094c0.088-0.112-0.12-0.268-0.189-0.268c-0.065-0.003-0.184,0-0.184,0S6.79,9.795,6.767,9.762
		C6.736,9.733,6.772,9.668,6.832,9.56c0.065-0.1,0.06-0.245,0.029-0.255C6.827,9.292,6.643,9.336,6.643,9.336L6.619,9.38
		L6.583,9.443c0,0-0.052,0.044-0.148,0.116c-0.094,0.069-0.164,0-0.164,0H6.092V9.438L6.034,9.38L5.921,9.264L5.879,9.148
		l0.042-0.14V8.976C5.975,8.99,6.063,9.02,6.063,9.02S5.921,8.767,6.377,8.612l0.177,0.007L6.855,8.65c0,0-0.059-0.064-0.023-0.123
		c0,0,0.301-0.082,0.372,0.029l0.114-0.05c0,0,0.129,0.072,0.141,0.08C7.465,8.6,7.482,8.741,7.482,8.741s0.165,0.256,0.219,0.256
		c0.042,0,0.124-0.115,0-0.303c0,0-0.225-0.272-0.089-0.486c0,0,0.249-0.293,0.314-0.319c0,0,0.064-0.07,0.023-0.146l-0.01-0.054
		l-0.06-0.101L7.872,7.53c0,0,0-0.064,0.042-0.059c0,0,0.082-0.036,0.094-0.225l0.094-0.083c0,0,0.013-0.01,0.036-0.034l0.226-0.06
		L8.54,6.921c0,0,0.101,0.189,0.195,0.148C8.829,7.016,8.93,6.892,8.93,6.892L8.877,6.791V6.667L8.93,6.572H8.813L8.693,6.625
		L8.611,6.656L8.457,6.685c0,0,0.225-0.242,0.272-0.255C8.771,6.407,9.06,6.49,9.06,6.49l0.195-0.065l0.125-0.129h0.148l0.07-0.083
		c0,0,0.125-0.147-0.164-0.348L9.189,5.708L9.106,5.591l-0.04-0.176L9.013,5.237l-0.029-0.13L8.865,4.912
		c0,0-0.094-0.006-0.07,0.249C8.818,5.415,8.434,5.314,8.434,5.19s0.07-0.242,0.07-0.242s0-0.155-0.099-0.184
		C8.304,4.734,8.221,4.646,8.221,4.646L8.12,4.563c0,0,0.031-0.059-0.023-0.059c-0.053,0-0.154,0.059-0.154,0.059L7.767,4.504
		c0,0-0.096,0.125-0.066,0.218C7.73,4.818,7.771,4.964,7.771,4.964L7.767,5.047L7.725,5.13v0.095l0.164,0.206
		c0,0-0.005,0.249-0.177,0.301C7.546,5.786,7.564,5.88,7.629,5.929c0.06,0.052,0.083,0.247,0.031,0.27
		C7.605,6.223,7.44,6.33,7.382,6.105C7.317,5.88,7.453,5.739,7.257,5.704C7.063,5.662,7.003,5.62,6.961,5.603
		c-0.028-0.023-0.176-0.13-0.176-0.13L6.619,5.443L6.5,5.438L6.442,5.337c0,0-0.208-0.083-0.184-0.225
		c0.024-0.148,0.06-0.343,0.125-0.419c0.065-0.072,0.148-0.166,0.148-0.166l0.094-0.195l0.101-0.054l0.13-0.083l0.083-0.182
		L6.961,3.86l0.06-0.125h0.052l0.102-0.13l0.176,0.13l0.096-0.13V3.38c0,0-0.101-0.028-0.059-0.117
		c0.041-0.082,0.224-0.129,0.028-0.189c-0.194-0.054-0.343-0.06-0.348,0.07c-0.005,0.131-0.06,0.249-0.06,0.249L6.91,3.51
		c0,0-0.06,0-0.06-0.154c0-0.153-0.054-0.223-0.054-0.223l-0.06-0.089l-0.118-0.09L6.518,2.837c0,0-0.023-0.296-0.094-0.348
		c-0.07-0.06-0.07-0.148-0.07-0.148l0.052-0.178c0,0,0.052,0.071,0.094,0c0.041-0.071,0.147-0.255,0.147-0.255s0.153-0.023,0-0.094
		c-0.153-0.071-0.319-0.06-0.319-0.06s-0.117,0.13-0.117,0.296c0,0.153,0,0.208,0,0.208l0.028,0.13c0,0,0.06,0.029,0.005,0.129
		C6.193,2.619,6.165,2.7,6.165,2.767c0,0.065,0.041,0.183,0.041,0.183S6.3,2.925,6.3,3.044c0,0.118,0.177,0.183-0.005,0.377
		c0,0,0.042,0.277-0.207,0.064c0,0-0.083-0.041-0.307-0.023c-0.225,0.018-0.207-0.06-0.207-0.06L5.449,3.339H5.324L5.241,3.362
		L5.17,3.446c0.006,0.006,0.013,0.031,0.036,0.089C5.259,3.648,5.29,3.829,5.054,3.559C4.81,3.286,4.87,3.439,4.751,3.486
		c-0.118,0.048-0.225,0.008-0.22-0.041C4.54,3.393,4.616,3.352,4.616,3.352L4.621,3.25L4.597,3.198L4.374,3.174
		c0,0-0.13-0.031-0.184-0.071C4.137,3.061,4.007,3.009,4.007,3.009L3.875,2.936c-0.005,0-0.011,0-0.052,0c-0.07,0-0.117,0-0.117,0
		L3.634,3.009c0,0-0.053,0.029-0.07,0C3.54,2.979,3.498,2.955,3.498,2.925c0-0.029,0-0.029,0-0.029S3.292,2.92,3.19,3.061
		c-0.1,0.148-0.123,0.13-0.271,0.13c-0.148,0-0.244-0.006-0.244-0.006L2.453,3.068L2.322,3.061l-0.42-0.182L1.388,2.767H1.021H0.856
		c0,0,0.006,0.006-0.094,0.082C0.662,2.92,0.602,2.932,0.578,2.979c-0.023,0.054,0.083,0.066,0,0.113
		c-0.083,0.047-0.07,0.042-0.129,0.065c-0.06,0.024-0.036-0.013-0.06,0.024C0.366,3.216,0.324,3.156,0.355,3.245
		c0.028,0.083,0.004,0.07,0.07,0.125C0.49,3.422,0.607,3.463,0.607,3.463L0.69,3.575c0,0,0.059,0.054,0.054,0.083
		c-0.008,0.031-0.12,0.119-0.12,0.119L0.531,3.741c0,0-0.041,0.023-0.064,0c-0.023-0.023-0.083-0.023-0.118,0
		C0.313,3.772,0.264,3.746,0.259,3.777c-0.004,0.036,0.031,0.023,0,0.07C0.23,3.894,0.217,3.824,0.23,3.901
		c0.011,0.07,0.059,0.141,0.064,0.141c0.006,0,0.029,0.023,0.064,0.023c0.035,0.007,0.183-0.005,0.208,0c0.023,0.007,0.064,0,0.13,0
		c0.064,0,0.129,0,0.129,0L0.82,4.255C0.731,4.286,0.662,4.31,0.602,4.314c-0.06,0.005-0.071-0.036-0.094,0
		c-0.024,0.036-0.059,0.07-0.072,0.101c-0.01,0.029-0.01,0.071-0.01,0.125c0,0.053,0.028,0.053,0.028,0.089
		c0,0.034,0.023,0.064,0.06,0.153s0,0.088,0.036,0.088c0.035,0,0.083-0.023,0.099,0.054c0.023,0.07-0.07,0.04,0.023,0.07
		C0.768,5.023,0.986,5.06,0.986,5.06s0.054-0.041,0.064,0c0.013,0.041,0.064,0.065,0.064,0.065S0.934,5.42,0.903,5.426
		C0.874,5.431,0.655,5.514,0.625,5.544C0.591,5.573,0.513,5.615,0.496,5.638c-0.023,0.023-0.042,0.037-0.042,0.06
		c0,0.024,0.006,0.071,0.006,0.071H0.49c0,0,0.101,0.013,0.13,0c0.028-0.011-0.013-0.011,0.101-0.064
		C0.838,5.651,0.91,5.667,0.934,5.638c0.023-0.028-0.06,0,0.023-0.028c0.083-0.031,0.07-0.037,0.117-0.073
		c0.041-0.034,0.101-0.07,0.153-0.111C1.282,5.39,1.329,5.324,1.329,5.324S1.353,5.415,1.388,5.42c0.037,0.006,0.066,0.011,0.113,0
		c0.041-0.012,0.142-0.03,0.142-0.072s-0.06-0.265-0.06-0.265l0.037-0.042c0,0,0.023-0.029,0.06-0.036
		C1.713,5,1.832,4.964,1.832,4.964l0.165-0.065c0,0,0.147-0.034,0.178-0.01c0.029,0.023,0.183,0.094,0.183,0.094
		S2.629,5.047,2.66,5.083c0.028,0.042,0.07,0.094,0.099,0.094c0.03,0,0.06-0.029,0.153,0.007c0.095,0.042,0.119,0.118,0.119,0.118
		l0.065,0.095L3.19,5.544L3.244,5.61c0,0,0.042-0.042,0.083,0.023c0.042,0.059,0.07,0.223,0.07,0.223l0.031,0.195
		c0,0,0.04-0.004,0.059,0.023c0.023,0.03,0.059,0.042,0.059,0.042l0.053,0.083l0.132,0.179L3.853,6.5L4,6.708h0.018
		C3.995,6.762,3.965,6.81,3.93,6.861c0,0,0,0.244-0.071,0.278l0.153,0.71c0,0,0.272,0.154,0.249,0.294l0.04,0.008L4.278,8.157
		L4.254,8.245c-0.029,0.023,0,0.208,0,0.208L4.35,8.572l0.088,0.181l0.088,0.089l0.112,0.09c0,0,0.042,0.116,0.095,0.187
		c0.042,0.073,0.13,0.095,0.159,0.065c0.037-0.021,0-0.044-0.052-0.184c-0.054-0.14-0.013-0.025-0.036-0.065
		c-0.024-0.04-0.119-0.155-0.119-0.155L4.568,8.65L4.514,8.565c0,0-0.005-0.037-0.005-0.059c0.005-0.025,0.036-0.03,0.036-0.03
		s0.071,0.066,0.094,0.096C4.669,8.6,4.768,8.701,4.768,8.701s0.06,0.059,0.13,0.113C4.981,8.867,5.106,9.037,5.17,9.099
		c0.065,0.059,0.029,0.011,0.055,0.27c0.023,0.257,0.667,0.437,0.667,0.437s0.083,0.021,0.102,0.021
		c0.023,0,0.164,0.008,0.164,0.008l0.101,0.015l0.071,0.04l0.072,0.094l0.159,0.039c0,0,0.13,0.025,0.242,0.036
		c0.119,0.014,0.096,0.145,0.113,0.155c0.006,0.011,0.042,0.163,0.042,0.163l0.183,0.158l0.243,0.04l0.165-0.005
		c0,0,0.101,0.005,0.114,0c0.005,0,0.011-0.006,0.029-0.014c0,0.008-0.006,0.014-0.011,0.028c-0.031,0.044,0.034,0.065,0,0.126
		c-0.036,0.059-0.083,0.148-0.083,0.148L7.53,10.917l-0.072,0.064l-0.034,0.071l-0.06,0.081v0.042L7.4,11.277l0.006,0.036
		c0,0-0.06,0.123-0.042,0.147c0.005,0.028,0,0.142,0,0.142s0.005,0,0.064,0.042c0.06,0.041,0.112,0.122,0.112,0.122l0.267,0.521
		l0.04,0.029l0.101,0.064l0.102,0.042l0.101,0.102l0.034,0.04c0,0,0.042,0.295,0.03,0.464c0,0-0.101,1.083-0.212,1.365
		c-0.114,0.274,0,0.454,0,0.454l-0.055,0.225c0,0,0,0.14,0,0.212c0,0.069,0,0.157,0,0.157l-0.06,0.074l0.161,0.609l0.249,0.194
		l0.064,0.166c0,0,0.242,0.094,0.265,0S8.439,16.27,8.439,16.27l-0.112-0.142l0.005-0.183l0.13-0.271l0.161-0.141l-0.125-0.246
		l0.042-0.095l0.13-0.175l0.07-0.194l0.125-0.143l0.065-0.115l0.296-0.085l0.101-0.095v-0.147v-0.127l0.212-0.068l0.195-0.241
		l0.125-0.159L9.9,13.557l0.07-0.029l0.06-0.141v-0.147l0.042-0.094l0.247-0.148h0.177l0.142-0.129l0.042-0.082l0.101-0.269v-0.223
		v-0.167l0.065-0.064l0.042-0.071l0.099-0.112l0.143-0.142c0,0-0.005-0.042,0-0.071s0-0.102,0-0.102l0.005-0.04L11.094,11.485z
		 M6.489,6.708l0.052,0.005H6.484C6.484,6.713,6.489,6.713,6.489,6.708z"/>
	<path fill="#DE5841" d="M29.563,3.523c-0.183-0.024-0.146-0.071-0.146-0.071l-0.4-0.337l-0.22-0.177c0,0-0.372-0.083-0.401-0.083
		c-0.032,0-0.188,0-0.188,0l-0.02,0.153c0,0-0.029,0.005-0.058,0.011c-0.03,0.007-0.115-0.04-0.131-0.058
		c-0.024-0.013-0.102-0.042-0.102-0.042h-0.284c0,0,0.003-0.007-0.054,0c-0.058,0.005-0.16,0.005-0.16,0.005l-0.086-0.07
		l0.058-0.101V2.659h-0.027l-0.226-0.052h-0.126H26.91h-0.243L26.55,2.513c0,0-0.038-0.013-0.066-0.054s-0.082-0.142-0.082-0.142
		l-0.059-0.04h-0.1c0,0-0.013,0.07-0.092,0.04c-0.072-0.029-0.176-0.118-0.176-0.118l-0.058-0.036h-0.065H25.77l-0.057,0.101
		l-0.044,0.083l-0.051,0.094l-0.163,0.072l-0.111-0.007l-0.267-0.065l-0.072-0.006l-0.13,0.111l-0.079-0.034
		c0,0-0.03-0.125-0.03-0.148s0-0.06,0-0.088c0-0.031-0.006-0.073-0.006-0.113c0-0.042,0.051-0.071,0-0.112
		c-0.055-0.036-0.209-0.153-0.209-0.153s-0.004-0.03-0.073-0.036c-0.064-0.005-0.137,0-0.137,0h-0.036l-0.06,0.054l-0.03,0.07
		l-0.026,0.083c0,0-0.067,0.005-0.107-0.006c-0.036-0.012-0.122-0.071-0.122-0.071l-0.068-0.058c0,0-0.008-0.083-0.062-0.066
		c-0.051,0.007-0.116,0-0.116,0s-0.042-0.006-0.083,0c-0.035,0.007-0.11,0.025-0.129,0c-0.026-0.024-0.069-0.042-0.069-0.042
		s-0.032,0-0.086,0c-0.051,0-0.123,0-0.123,0l-0.036,0.059l-0.145,0.023l-0.051,0.036l-0.058-0.023l0.058-0.095l0.051-0.053
		l0.066-0.065l0.1-0.096l0.091-0.081l0.091-0.065l0.038-0.036c0,0,0.249-0.296-0.117-0.485c-0.369-0.189-0.254-0.088-0.254-0.088
		l-0.245-0.028V0.704l-0.065-0.12c0,0-0.032,0.013-0.064,0c-0.029-0.011-0.115,0-0.137,0c-0.025,0-0.063-0.005-0.063-0.005
		s-0.024,0.031-0.06,0.119c-0.037,0.088-0.059,0.094-0.087,0.148c-0.03,0.052,0.028,0.029-0.059,0.088
		c-0.091,0.058-0.15,0.088-0.15,0.088L22.04,1.064c0,0-0.103-0.007-0.167,0.005c-0.065,0.013-0.176,0.036-0.176,0.036l-0.126,0.088
		c0,0-0.087,0.052-0.099,0.083c-0.01,0.029-0.01,0.029-0.01,0.029l-0.164,0.088l-0.262,0.161l-0.009,0.034l0.037,0.083l0.057,0.071
		l0.009,0.071l-0.116-0.005l-0.097-0.013h-0.083l-0.146,0.13l-0.122,0.13l-0.043,0.083l-0.16,0.148l-0.11,0.023h-0.058h-0.098
		l-0.08-0.189l-0.058-0.083l-0.058-0.053h-0.064l-0.057,0.06l-0.084,0.111l-0.09,0.16l-0.023,0.101l-0.009,0.064v0.111v0.197
		c0,0,0.003,0.011,0.009,0.065c0.01,0.052,0.037,0.111,0.037,0.111l0.036,0.301l-0.245-0.224l-0.166-0.16l-0.303-0.089h-0.091
		l0.155,0.167l0.022,0.088c0,0-0.064,0.141-0.087,0.141c-0.025,0-0.065-0.006-0.065-0.006l-0.072-0.011c0,0-0.007,0.024-0.065,0.024
		c-0.056,0-0.211-0.007-0.211-0.007s-0.041-0.006-0.084,0.007c-0.035,0.011-0.094,0.034-0.094,0.034l-0.119,0.06l-0.14,0.064
		c0,0,0.003,0.031-0.038,0.054c-0.043,0.024-0.053,0.012-0.081,0.042c-0.032,0.029-0.032,0.034-0.065,0.058
		c-0.037,0.024-0.037,0.024-0.037,0.024l-0.054,0.012l-0.129-0.012l-0.058,0.04l-0.094,0.036l-0.091,0.112l-0.095,0.12l-0.061,0.07
		L17.263,4l-0.18,0.095l-0.127-0.023c0,0-0.065-0.065-0.065-0.101c0-0.036-0.035-0.112-0.035-0.112L16.85,3.806L16.82,3.648
		l-0.035-0.055l0.219,0.095l0.121,0.006l0.167-0.023L17.379,3.6l0.007-0.072V3.399l-0.123-0.131l-0.111-0.101L17.01,3.074
		l-0.119-0.006h-0.146l-0.037-0.036l-0.034-0.042c0,0-0.102-0.159-0.147-0.112c0,0-0.035,0.035-0.07,0.094
		c0.005-0.023,0.005-0.034,0.005-0.034c-0.095-0.503-0.804,0.029-0.804,0.029L15.23,3.393l-0.065,0.372L15,4.049l-0.46,0.432
		l-0.054,0.082l-0.052,0.188l0.029,0.368l0.059,0.088h0.195c0-0.095,0.119-0.195,0.119-0.195L14.9,4.958l0.07,0.125l0.083,0.036
		l0.029,0.182v0.185c0,0,0,0.082,0.065,0.087c0.065,0.013,0.314-0.241,0.314-0.241L15.409,5.26c0,0-0.007-0.13,0.071-0.19
		c0.083-0.057,0.059-0.182,0.059-0.205c-0.007-0.023-0.089-0.114-0.095-0.154c-0.005-0.041,0.037-0.267,0.037-0.267
		s0.101-0.125,0.177-0.153c0.064-0.024,0.096-0.088,0.096-0.088s0.011-0.225,0.14-0.301C16.017,3.829,16.1,3.943,16.1,3.943
		l-0.013,0.099l-0.083,0.125c0,0-0.112,0.054-0.182,0.237c-0.065,0.183-0.006,0.401-0.006,0.401s0.023,0.054,0.029,0.083
		c0.005,0.029,0.036,0.01,0.07,0c0.036-0.013,0.129,0,0.129,0s0.084,0,0.096,0c0.023,0,0.064-0.083,0.064-0.083s0,0,0.125-0.004
		c0.007,0,0.013,0,0.024,0l0.042,0.041c-0.042,0.112-0.084,0.236-0.098,0.335c-0.022-0.081-0.064-0.147-0.064-0.147h-0.223
		L15.91,5.096l0.089,0.058l0.071,0.041v0.154c-0.373-0.182-0.296,0.131-0.296,0.131l0.024,0.242l-0.249-0.029l-0.183,0.089
		L15.212,5.81l-0.1-0.07L15.09,5.644l-0.06-0.053l-0.101-0.03V5.486l-0.053-0.148c0,0-0.088,0.071-0.119,0.094
		c-0.029,0.024-0.042,0.072-0.042,0.072v0.041l0.023,0.1l0.06,0.154h-0.147l-0.13,0.007l-0.065,0.059L14.42,6.01l-0.023,0.091
		l-0.088,0.058L14.22,6.229l-0.195,0.123c0,0,0.088,0.213-0.184,0.161c-0.272-0.053-0.283,0.088-0.212,0.094
		c0.071,0.007,0.267,0.132,0.283,0.296c0.025,0.16,0.042,0.373-0.123,0.249c-0.166-0.125-0.449-0.023-0.498,0.004
		c-0.052,0.031-0.005,0.066-0.052,0.408c-0.037,0.343,0.378,0.308,0.378,0.308h0.089c0,0,0,0,0.101-0.007
		c0.099-0.005,0.07-0.065,0.07-0.065s0.06-0.057,0.118-0.099c0.059-0.054,0-0.031,0-0.031l0.007-0.028c0,0-0.023-0.147,0-0.166
		c0.023-0.029,0.07-0.059,0.07-0.059s0,0,0.036-0.024c0.034-0.023,0.094-0.042,0.094-0.042s0,0,0.029-0.024
		c0.031-0.023,0.042-0.052,0.042-0.052l0.012-0.089c0,0-0.028-0.059,0-0.059c0.029,0,0.06,0,0.06,0s0,0.129,0.166,0.028
		c0.177-0.101,0.218,0.006,0.218,0.006l-0.101,0.101v0.088V7.5c0,0,0,0,0,0.065c0,0.064,0.042,0.059,0.042,0.059l0.065,0.005
		c0,0,0,0,0.005-0.029c0.008-0.028,0.055-0.059,0.055-0.059s-0.005-0.06-0.036-0.089c-0.029-0.028,0-0.088,0-0.088V7.311
		l0.054-0.058l0.041,0.005l0.123,0.023l0.06,0.06c0,0,0.055,0.029,0.096,0.058c0.053,0.03,0.146,0.155,0.146,0.155l-0.029,0.094
		l-0.065,0.065l-0.102,0.054l0.042,0.034l0.036,0.131l0.089-0.042l0.036-0.07l0.034-0.059l0.055-0.059l0.129-0.22l-0.094-0.1
		l-0.196-0.088c0,0-0.071-0.007-0.153-0.212c-0.071-0.197,0.096-0.167,0.096-0.167l0.064,0.07l0.125,0.12l0.058,0.034l0.119,0.037
		l0.06,0.054v0.034v0.119l0.041,0.094v0.036v0.06l0.04,0.07v0.059h0.037h0.096l0.064-0.059c0,0,0.029-0.119,0.006-0.166
		C15.84,7.417,15.927,7.44,15.927,7.44h0.102l0.159-0.035l0.094-0.088c0,0-0.065-0.189,0.066-0.226
		c0.129-0.036,0.123-0.094,0.123-0.094c0.023-0.285,0.22-0.255,0.195-0.13c-0.025,0.123,0.035,0.117,0.035,0.117
		c0.186,0.071,0.153-0.088,0.153-0.088l0.061-0.119l0.088-0.059c0,0,0.086,0.006,0.121,0c0.009,0,0.016-0.007,0.026-0.007
		C17.123,6.779,17.09,6.838,17.05,6.88c-0.118,0.129,0.321,0.35,0.321,0.35s0.058,0.306-0.41,0.159
		c-0.466-0.148-1.034,0.041-0.713,0.379c0,0,0.13,0.129,0.519,0.088c0.393-0.042,0.153,0.248,0.065,0.485c0,0,0,0,0,0.005
		C16.82,8.34,16.809,8.34,16.809,8.34s-0.318,0.005-0.592-0.09c-0.271-0.094-0.502-0.206-0.524-0.083
		c-0.023,0.125-0.179,0.155-0.179,0.155L15.23,8.174c0,0-0.418-0.031-0.331-0.118c0.088-0.089,0-0.349,0-0.349
		c-0.179,0.006-0.857,0.148-0.857,0.148l-0.438,0.06c-0.437,0.148-0.348,0.491-0.49,0.579c-0.141,0.088-0.673,0.582-0.608,0.733
		c0.065,0.145,0.065,0.495,0.052,0.606c-0.023,0.116,0.024,0.119,0.379,0.592c0.361,0.472,0.963,0.086,1.311,0.111
		c0.343,0.026,0.615,0.239,0.527,0.437c-0.088,0.21,0,0.286,0,0.286c0.526,0.466,0.265,0.854,0.212,1.005
		c-0.054,0.146-0.054,0.243-0.054,0.243l0.166,0.407l0.096,0.346c0,0,0.242,0.527,0.242,0.581c0,0.055,0,0.271,0.083,0.285
		c0.084,0.007,0.46-0.055,0.46-0.055c0.638-0.165,0.78-0.85,0.78-0.85c0.083,0,0.243-0.091,0.186-0.235
		c-0.059-0.152,0.006-0.389,0.141-0.422c0.126-0.028,0.421-0.225,0.24-0.61c-0.176-0.376,0-0.695,0-0.695
		c0.96-0.712,0.888-1.146,0.888-1.146c0.009-0.097-0.296,0.023-0.296,0.023c-0.14,0.028-0.296-0.059-0.296-0.059l-0.007-0.014
		c0.229-0.035,0.853-0.246,1.134-0.622c0.347-0.468,0.263-0.295-0.103-0.406c-0.366-0.12-0.32,0-0.424,0.032
		c-0.102,0.029-0.312-0.31-0.312-0.411c0-0.102-0.115-0.349,0.557,0.101c0,0,0.182,0.176,0.498,0.176s0.497,0.034,0.497,0.034
		l0.234,0.171c0,0,0.011,0.268,0.238,0.192v0.068l0.098,0.34c0,0,0.151,0.685,0.367,0.641l0.118-0.097l0.069,0.278
		c0,0,0.152,0.1,0.145-0.092c-0.007-0.187-0.166-0.205-0.129-0.389c0.035-0.184-0.065-0.184,0.249-0.451
		c0.313-0.271,0.651-0.592,0.741-0.311c0.091,0.278,0.296,0.401,0.296,0.401l0.166,0.035l0.065,0.185c0,0,0.029,0.569,0.111,0.642
		c0.084,0.073,0.084,0.249,0.084,0.249l-0.159-0.054l-0.277-0.167c0,0-0.184-0.425-0.181-0.591c0.008-0.162-0.292,0.584,0.617,1.35
		c0,0,0.646,0.433,0.853,0.433c0.204,0,0.524,0.051,0.524,0.051l0.343,0.126l0.343-0.04l0.337-0.118l0.18-0.072l-0.852,0.035
		l-0.699-0.1l-0.557-0.196l-0.101-0.129h0.181l-0.303-0.437l-0.274-0.47c0,0-0.068-0.375,0.037-0.389
		c0.114-0.008,0.331,0.245,0.331,0.245l0.035,0.108c0,0,0.469-0.005,0.343-0.513l-0.221-0.242l-0.063-0.118
		c0,0,0.035-0.21,0.249-0.218l0.006,0.159c0,0,0.041,0.112,0.188-0.007l0.055-0.152l0.122-0.101l0.224-0.07l0.317-0.196l0.122-0.379
		V8.263c0,0-0.158-0.253-0.071-0.32c0.09-0.064,0.253-0.087,0.021-0.165c-0.003,0-0.008-0.006-0.028-0.006
		c-0.274-0.088-0.115-0.059-0.115-0.059V7.601l0.237-0.111l0.224,0.01l0.088,0.125l-0.037,0.12l0.122,0.081
		c0,0,0.036,0.254-0.021,0.278c-0.057,0.024,0.239,0.071,0.296-0.207l-0.05-0.095l-0.058-0.117l-0.057-0.095l0.023-0.082
		l0.098-0.072l0.123-0.177l0.233-0.059c0,0,0.553-0.437,0.625-1.117V5.869l-0.166-0.147l-0.122-0.125l0.006-0.094l0.052-0.155
		l0.393-0.372l0.314-0.023h0.336l0.212,0.042l0.121-0.031l0.088-0.241c0,0,0.274-0.296,0.405-0.06c0,0,0.015,0.083,0.117,0.013
		l0.132-0.083v0.13l-0.141,0.095L27.224,5.07l-0.249,0.245L26.893,5.49l0.023,0.503L26.834,6.43l0.39-0.52l0.263-0.277l0.059-0.154
		c0,0,0.057-0.165,0.051-0.208c-0.009-0.035-0.012-0.166-0.012-0.166l0.09-0.177l0.194-0.142l0.196-0.005l0.129,0.023l0.308-0.207
		l0.213-0.154l0.177-0.036l0.082-0.112l-0.071-0.218l0.071-0.177l0.058-0.007l0.102-0.099c0,0,0.144,0.005,0.155,0.034
		c0.011,0.031,0.005,0.055,0.04,0.088c0.035,0.036,0.166,0.12,0.166,0.12l0.085,0.028V3.924l0.092-0.054l0.1-0.058
		C29.789,3.819,29.742,3.546,29.563,3.523z"/>
	<path fill="#DE5841" d="M18.446,2.653h0.148l0.155-0.052l-0.116-0.153l0.058-0.278l0.036-0.185c0,0,0.126-0.184,0.146-0.207
		c0.01-0.023,0.12-0.296,0.12-0.296l0.211-0.187l0.145-0.09l0.284-0.159c0.228-0.267-0.064-0.267-0.064-0.267L19.407,0.94L19.283,1
		L19.06,1.041l-0.209,0.141l-0.209,0.166l-0.065,0.249l-0.112,0.242l-0.141,0.337v0.206l0.04,0.16L18.446,2.653z"/>
	<path fill="#DE5841" d="M25.622,7.637c-0.025,0.039-0.068,0.088-0.068,0.088l-0.123,0.053l-0.174,0.154l-0.13,0.054l-0.19,0.071
		l-0.13,0.111l-0.041,0.114V8.31l0.152,0.226l0.051-0.129l0.043-0.096c0,0,0.029-0.071,0.094-0.094
		c0.064-0.024,0.158-0.064,0.158-0.064s-0.003-0.037,0.196-0.114c0.209-0.07,0.209-0.07,0.209-0.07l0.087-0.071l0.097-0.147
		c0,0-0.011-0.035,0-0.111c0.012-0.072,0.039-0.142,0.039-0.142V7.281V7.229c0,0,0.245-0.155,0.275-0.178
		c0.028-0.023,0.242-0.208,0.267-0.213c0.021-0.005,0.021-0.005,0.021-0.005s-0.403,0.07-0.426,0.094
		c-0.021,0.025-0.021,0.025-0.021,0.025s-0.059,0.006-0.059-0.031c0-0.036,0,0.031-0.007-0.117
		c-0.014-0.148-0.014-0.196-0.014-0.196L25.9,6.189l-0.016,0.094l-0.039,0.295c0,0,0.025,0.065,0,0.119
		c-0.025,0.053,0.025,0.059,0,0.117c-0.025,0.06,0.036,0.083-0.004,0.12c-0.044,0.034-0.035,0.065-0.064,0.112
		c-0.029,0.041-0.036,0.06-0.054,0.088c-0.011,0.029,0,0.065,0,0.065S25.69,7.24,25.687,7.311c-0.003,0.064,0,0.179,0,0.179v0.064
		C25.669,7.542,25.639,7.589,25.622,7.637z"/>
	<path fill="#DE5841" d="M23.688,10.628c-0.012,0.029-0.091,0.064-0.091,0.064s-0.246,0.214-0.281,0.239
		c-0.036,0.021-0.119,0.05-0.119,0.05l-0.039,0.152v0.157l0.071,0.11l0.181,0.022h0.181c0,0,0.028-0.009,0.064-0.061
		c0.029-0.039,0.021-0.039,0.029-0.068c0.004-0.028,0.036-0.062,0.058-0.091c0.022-0.028,0.036-0.123,0.036-0.123l0.094-0.371
		v-0.088l-0.064-0.03h-0.022C23.778,10.569,23.699,10.592,23.688,10.628z"/>
	<path fill="#DE5841" d="M24.146,9.574h-0.025h-0.065l-0.06,0.028v0.221l0.027,0.207l0.043,0.089l0.102,0.191l0.021,0.123l0.03,0.13
		l0.22,0.028c0,0,0.032-0.015,0.072-0.094c0.04-0.084,0-0.116,0-0.116v-0.086v-0.13l-0.111-0.13H24.37l-0.13-0.112
		c0,0-0.065-0.032-0.089-0.072c-0.026-0.032,0-0.054,0-0.054l-0.026-0.069V9.632V9.574H24.146z"/>
	<path fill="#DE5841" d="M24.615,11.401c0,0,0.127,0.022,0.183-0.023c0.062-0.044,0.149-0.07,0.149-0.07s0.064-0.038,0.147,0
		c0.085,0.035,0.179,0.07,0.195,0.094c0.024,0.022,0.126,0.092,0.126,0.092l0.271,0.254l0.14,0.107h0.132l0.089-0.097
		c0,0,0.09,0.027,0.103,0.057c0.011,0.032,0.121,0.131,0.146,0.141c0.022,0.007,0.122,0.025,0.122,0.025h0.167l0.152-0.035
		c0,0-0.109-0.032-0.188-0.065c-0.084-0.028-0.141-0.055-0.16-0.084c-0.021-0.029-0.028-0.1-0.028-0.1s-0.024-0.059,0-0.059
		c0.021,0,0.13-0.028,0.13-0.028l0.112-0.015l0.094-0.069l0.055-0.01l-0.073-0.208l-0.072,0.041l-0.173,0.073l-0.18,0.087
		l-0.087,0.01c0,0-0.055-0.054-0.115-0.068c-0.058-0.026-0.103-0.055-0.103-0.055l-0.252-0.098l-0.072-0.028h-0.244l-0.275-0.05
		l-0.241-0.029h-0.054l-0.115,0.064C24.677,11.249,24.564,11.349,24.615,11.401z"/>
	<path fill="#DE5841" d="M18.071,12.186c0,0.065-0.253,0.246-0.253,0.246c-0.165,0.079-0.116,0.122-0.116,0.122
		c0.066,0.059,0.123-0.064,0.03,0.181c-0.095,0.256-0.152,0.47,0.086,0.491c0.237,0.028,0.194-0.21,0.332-0.606
		c0.144-0.39,0-0.533,0-0.533C18.13,12.086,18.071,12.121,18.071,12.186z"/>
</g>
</svg>
