<?xml version="1.0" encoding="utf-8"?>
<!-- Generator: Adobe Illustrator 16.0.0, SVG Export Plug-In . SVG Version: 6.00 Build 0)  -->
<!DOCTYPE svg PUBLIC "-//W3C//DTD SVG 1.1//EN" "http://www.w3.org/Graphics/SVG/1.1/DTD/svg11.dtd">
<svg version="1.1" id="Layer_1" xmlns="http://www.w3.org/2000/svg" xmlns:xlink="http://www.w3.org/1999/xlink" x="0px" y="0px"
	 width="20px" height="20px" viewBox="0 0 20 20" enable-background="new 0 0 20 20" xml:space="preserve">
<g>
	<g>
		<path fill-rule="evenodd" clip-rule="evenodd" fill="#FFFFFF" d="M19.451,17.103l-4.318-4.317
			c-0.022-0.023-0.049-0.04-0.072-0.061c0.848-1.289,1.345-2.831,1.345-4.49c0-4.513-3.658-8.171-8.171-8.171
			S0.063,3.722,0.063,8.234s3.658,8.171,8.171,8.171c1.658,0,3.201-0.497,4.489-1.345c0.021,0.023,0.038,0.05,0.062,0.072
			l4.317,4.318c0.648,0.647,1.7,0.647,2.349,0C20.099,18.803,20.099,17.751,19.451,17.103L19.451,17.103z M8.234,13.572
			c-2.949,0-5.339-2.39-5.339-5.338c0-2.949,2.39-5.339,5.339-5.339c2.948,0,5.338,2.39,5.338,5.339
			C13.572,11.183,11.183,13.572,8.234,13.572L8.234,13.572z M8.234,13.572"/>
	</g>
</g>
</svg>
