<?xml version="1.0" encoding="utf-8"?>
<!-- Generator: Adobe Illustrator 16.0.0, SVG Export Plug-In . SVG Version: 6.00 Build 0)  -->
<!DOCTYPE svg PUBLIC "-//W3C//DTD SVG 1.1//EN" "http://www.w3.org/Graphics/SVG/1.1/DTD/svg11.dtd">
<svg version="1.1" id="Layer_1" xmlns="http://www.w3.org/2000/svg" xmlns:xlink="http://www.w3.org/1999/xlink" x="0px" y="0px"
	 width="8px" height="10px" viewBox="0 0 8 10" enable-background="new 0 0 8 10" xml:space="preserve">
<g>
	<path fill="#8A8A8A" d="M6.451,8.783c0.104,0,0.663,0.23,1.448-0.17C7.717,7.184,7.258,4.85,6,4.71
		C5.533,5.163,4.788,5.534,4.014,5.534c-0.775,0-1.476-0.314-1.986-0.824c-1.203,0.636-1.43,2.303-1.612,3.731
		c0.171,0.67,1.121,0.471,1.226,0.471C2.96,8.912,5.133,8.783,6.451,8.783z M0.101,8.316"/>
</g>
<path fill="#8A8A8A" d="M2.25,4.403C2.297,4.449,2.344,4.496,2.394,4.54c0.431,0.385,0.998,0.624,1.621,0.624
	S5.203,4.924,5.636,4.54c0.049-0.044,0.097-0.09,0.142-0.136c0.046-0.048,0.091-0.098,0.132-0.15
	c0.339-0.418,0.542-0.95,0.542-1.528c0-1.343-1.094-2.437-2.437-2.437c-1.344,0-2.437,1.093-2.437,2.437
	c0,0.578,0.203,1.109,0.542,1.528C2.16,4.305,2.205,4.353,2.25,4.403L2.25,4.403z M2.25,4.403"/>
<ellipse fill="#8A8A8A" cx="4.172" cy="8.506" rx="3.728" ry="1.205"/>
</svg>
